SplineFontDB: 3.0
FontName: Untitled
FullName: Untitled 
FamilyName: Untitled
Weight: Normal
Copyright: Copyright 2011 Adobe Systems Incorporated. All rights reserved.
Version: 001.001
ItalicAngle: 0
UnderlinePosition: -50
UnderlineWidth: 50
Ascent: 750
Descent: 250
sfntRevision: 0x00010000
LayerCount: 2
Layer: 0 0 "Back"  1
Layer: 1 0 "Fore"  0
NeedsXUIDChange: 1
XUID: [1021 14 500265001 14779192]
FSType: 4
OS2Version: 3
OS2_WeightWidthSlopeOnly: 0
OS2_UseTypoMetrics: 1
CreationTime: 1313529237
ModificationTime: 1313568733
PfmFamily: 81
TTFWeight: 400
TTFWidth: 5
LineGap: 9
VLineGap: 0
Panose: 0 0 0 0 0 0 0 0 0 0
OS2TypoAscent: 0
OS2TypoAOffset: 1
OS2TypoDescent: 0
OS2TypoDOffset: 1
OS2TypoLinegap: 0
OS2WinAscent: -12
OS2WinAOffset: 1
OS2WinDescent: -259
OS2WinDOffset: 1
HheadAscent: -262
HheadAOffset: 1
HheadDescent: 9
HheadDOffset: 1
OS2SubXSize: 650
OS2SubYSize: 600
OS2SubXOff: 0
OS2SubYOff: 75
OS2SupXSize: 650
OS2SupYSize: 600
OS2SupXOff: 0
OS2SupYOff: 350
OS2StrikeYSize: 50
OS2StrikeYPos: 300
OS2Vendor: 'pyrs'
OS2CodePages: 20000000.00000000
OS2UnicodeRanges: 00000001.00000000.00000000.00000000
DEI: 91125
LangName: 1033 "" "" "Regular" "1.000;pyrs;Untitled" "Untitled" "Version 1.000;PS 001.001;hotconv 1.0.56" "" "Please refer to the Copyright section for the font trademark attribution notices." 
Encoding: UnicodeBmp
Compacted: 1
UnicodeInterp: none
NameList: Adobe Glyph List
DisplaySize: -48
AntiAlias: 1
FitToEm: 1
WinInfo: 0 22 12
BeginPrivate: 0
EndPrivate
BeginChars: 65537 89

StartChar: exclam
Encoding: 33 33 2
Width: 406
Flags: HW
LayerCount: 2
Fore
SplineSet
121.179003172 254.590656051 m 1
 122.485307019 262.89451564 125.028218479 285.75549822 125.944640538 291.254030579 c 1
 135.814520389 364.29114147 170.845208492 436.874178986 197.689730649 507.108151293 c 0
 251.600457694 645.133633973 299.456648986 791 447 791 c 0
 467.090851639 791 478.490987543 791.265630565 490.943868511 778.127693612 c 1
 490.490320116 769.561905732 488.824128056 752.912040353 488.149287499 750.212678125 c 0
 488.083792371 749.950697614 l 1
 488.046894354 749.683186986 l 0
 476.363463624 664.978314197 328.406053225 389.232488945 272.548318443 310.959855647 c 1
 248.412063282 275.985430353 189.79011645 235 152 235 c 0
 138.993869672 235 126.509361389 243.084496041 121.179003172 254.590656051 c 1
36.9490666751 67.287530474 m 0
 48.568981835 151.531915383 130.367102948 210 199.000469664 210 c 0
 207.829848939 210 214.997029852 209.594919061 220.72452747 208.833533901 c 0
 245.712994072 205.511690944 243.360445076 197.908013963 241.088722916 179.681091702 c 0
 230.789411562 101.291746857 162.979980577 11 85 11 c 0
 81.1937328572 11 77.5672431331 11.2608858312 74.1429448735 11.7691167455 c 0
 47.5591988697 15.714649673 31.9696118962 34.0911652811 36.9490666751 67.287530474 c 0
EndSplineSet
EndChar

StartChar: dollar
Encoding: 36 36 3
Width: 610
Flags: HW
LayerCount: 2
Fore
SplineSet
82.88671875 -117.54296875 m 0
 86.73046875 -86.744140625 104.715820312 -57.810546875 108.893554688 -24.333984375 c 0
 116.853515625 34.7578125 25.751953125 21.45703125 33.8876953125 76.5634765625 c 0
 39.45703125 115.825195312 112.20703125 179 146.938476562 179 c 0
 159.614372477 179 166.054682785 171 181.089022 171 c 0
 207.995817909 171 233.577029866 255.420898438 236.347585602 277.311523438 c 0
 246.012314914 344.82421875 126.396484375 384.82421875 142.889648438 499.305664062 c 0
 165.017145667 663.274414062 303.044640603 704.614257812 422.424893101 722.006835938 c 0
 444.168639008 725.552734375 453.05829493 743 467.316613232 743 c 0
 479.900390625 743 478.219754428 714 503.938476562 714 c 0
 530.895507812 714 537.693359375 744 555.938476562 744 c 0
 568.056640625 744 568.82421875 737.422851562 567.001953125 724.6953125 c 0
 566.072265625 718.274414062 563.071289062 709.473632812 561.9765625 700.833007812 c 0
 561.106445312 697.426757812 560.864257812 692.083007812 562.120117188 688.155273438 c 0
 573.098632812 648.291015625 604.623046875 637.0234375 598.985351562 594.375976562 c 0
 594.073242188 558.756835938 558.076171875 495 522.938476562 495 c 0
 508.119140625 495 502.611328125 516 480.938476562 516 c 0
 457.848968597 516 432.298077359 438.62109375 429.517098875 416.646484375 c 2
 429.476355408 416.325195312 l 1
 429.476355408 416 l 2
 429.476355408 413.556640625 428.506092387 404.719726562 428.506092387 402 c 2
 428.506092387 400.397460938 l 1
 429.409081312 399.09375 l 2
 468.319092018 342.950195312 510.6640625 282.3515625 499.98828125 204.703125 c 0
 477.515745224 42.8349609375 354.581335898 0.9423828125 236.800501349 -41 c 0
 191.218037328 -56.693359375 206.506312568 -125.166992188 167.419115158 -131.559570312 c 1
 172.366130034 -102.381835938 182.072550336 -80.49609375 185.895803549 -52.4091796875 c 0
 188.184070342 -36.9423828125 179.303889644 -33 164.594550641 -33 c 0
 117.98828125 -33 122.111328125 -130 87.9384765625 -130 c 0
 81.970703125 -130 81.2666015625 -132.174804688 82.88671875 -117.54296875 c 0
288.817590542 101.448242188 m 2
 290.341206692 87.3154296875 305.024015067 89 308.193477767 89 c 0
 308.983711517 89 327.913315654 86.6435546875 329.501363333 101.370117188 c 2
 337.073015483 156 l 1
 331.479790275 156 l 2
 302.840923269 156 296.281225129 125.047851562 289.05731373 103.642578125 c 2
 288.696307664 102.573242188 l 1
 288.817590542 101.448242188 l 2
266.065680714 241.33984375 m 2
 257.166549567 224.015625 227.941166146 162.28125 222.86434069 127.749023438 c 2
 222.019150636 122 l 1
 232.51296212 122 l 2
 239.590007534 122 255.893079352 122.017578125 260.310429161 134.16015625 c 0
 264.986452608 145.725585938 290.339311647 203.033203125 296.103090903 215.904296875 c 2
 296.445146519 216.666992188 l 1
 296.525685929 217.502929688 l 2
 296.769199207 220.0078125 297.021240187 223.071289062 297.048718339 226.32421875 c 0
 297.124520138 235.340820312 295.124300179 251 280.055850155 251 c 0
 273.186312163 251 269.277781927 246.872070312 266.192648727 241.572265625 c 2
 266.126322153 241.458007812 l 1
 266.065680714 241.33984375 l 2
379.161016592 491.384765625 m 1
 375.405037475 463 l 1
 380.963204352 463 l 2
 418.72481781 463 451.778192057 553.133789062 455.618500675 578.041015625 c 0
 456.730892068 587.280273438 451.678702197 610 439.17898562 610 c 0
 431.647129414 610 427.522564051 605.0078125 424.345521171 598.14453125 c 2
 424.195812619 597.88671875 l 1
 379.161016592 491.384765625 l 1
334.439850507 577.54296875 m 0
 333.984092193 574.629882812 332.137370877 563.740234375 332.080519528 553.737304688 c 0
 332.035985971 547.940429688 332.664193377 537 344.093209549 537 c 0
 368.822598796 537 383.992433726 594.860351562 385.768090856 606.0703125 c 0
 386.139519669 608.946289062 386.84637144 612.59375 386.911750491 616.494140625 c 0
 387.011240352 624.657226562 384.600743159 637 374.171363204 637 c 0
 348.636579848 637 336.339633083 594.390625 334.439850507 577.54296875 c 0
EndSplineSet
EndChar

StartChar: ampersand
Encoding: 38 38 4
Width: 644
Flags: HW
LayerCount: 2
Fore
SplineSet
42.9510639899 131.301929994 m 0
 56.5373758531 230.287916426 175.450874728 321.818141276 239.26471277 379.240701476 c 2
 240.620682476 380.460863975 l 1
 240.875734148 382.292893219 l 2
 247.769631477 431.811570789 246.792427841 475.771356571 253.544266272 522.290107614 c 0
 272.857955285 665.974444381 387.925566918 828 525.486549313 828 c 0
 535.826564619 828 545.894374097 827.318196779 555.737559333 825.942681128 c 0
 626.484232695 816.056332942 674.83358389 771.190319573 662.048530114 681.694943142 c 0
 646.513097152 571.004983285 503.65283888 476.442918878 427.075402804 418.012311705 c 2
 425.110282873 416.512873272 l 1
 425.110282873 414.385977211 l 2
 424.351977588 411.876518879 423.417916824 408.876313864 423.322197372 408.479335459 c 0
 415.717281568 356.083060188 485.130057755 282.193851465 503.036417328 257.049917053 c 2
 504.496274455 255 l 1
 546.950344596 255 l 1
 550.886431065 243.876078243 557.240054427 210.929366814 567.464466094 201.464466094 c 0
 602.657325608 166.27160658 644.374248931 147.525954134 642.047538634 129.687841856 c 0
 632.475456834 60.7688528942 548.551108559 1 491.378109261 1 c 0
 440.031863122 1 412.131490367 57 369.562251931 57 c 0
 341.035922139 57 296.986812059 17.9961695718 274.16197602 8.62758795246 c 0
 232.877989715 -9.10580598398 195.763848406 -14 152 -14 c 0
 147.268894467 -14 142.636124012 -13.6696087536 138.110259171 -13.031791574 c 0
 76.2383377503 -4.312358757 33.0212325563 62.6958219079 42.9510639899 131.301929994 c 0
225.380281052 193.701307234 m 0
 224.811434885 189.323443028 224.528866579 185.24206268 224.498472597 181.195561198 c 0
 224.192584275 140.471133158 250.933873922 115 289.651049522 115 c 0
 304.156670472 115 319.431594231 124.360469161 321.767692625 142.3391814 c 1
 318.521707465 153.739056071 300.145963927 232.497468215 264.560838986 263.796283012 c 2
 261.691496442 266.320006647 l 1
 258.595498337 264.096159603 l 2
 236.961992285 248.556870868 228.340906807 213.954730584 225.380281052 193.701307234 c 0
393.973904657 592.704978714 m 0
 393.079780362 585.82376025 390.856316045 573.303659456 390.745390296 561.456899866 c 0
 390.629799056 549.111870504 392.997516785 532 408.543326276 532 c 0
 455.031471438 532 492.485132188 672.642502596 496.201107661 700.287530474 c 0
 497.47133356 708.97705256 499.455981046 717.862346683 499.486872395 725.651882401 c 0
 499.526449039 735.631494817 494.835112437 745 481.632840674 745 c 0
 425.889582939 745 398.638173718 624.293821575 393.973904657 592.704978714 c 0
EndSplineSet
EndChar

StartChar: quoteright
Encoding: 8217 8217 5
Width: 221
Flags: HW
LayerCount: 2
Fore
SplineSet
158.955156145 611.331806208 m 0
 161.636978239 630.998501568 179.589742596 646.774403047 182.956139503 670.3391814 c 0
 189.634963159 720.430358818 133.693251439 729.6213216 138.95415084 767.324433976 c 0
 144.372964243 807.062398927 213.368131972 841 247 841 c 0
 288.747871271 841 305.977767265 789.175548161 300.050252532 745.707106781 c 0
 292.158865142 690.467395053 232.211532867 586 172 586 c 0
 160.047008448 586 156.970468354 596.446647781 158.955156145 611.331806208 c 0
EndSplineSet
EndChar

StartChar: parenleft
Encoding: 40 40 6
Width: 385
Flags: HW
LayerCount: 2
Fore
SplineSet
60.9521484375 264.291992188 m 0
 88.736328125 459.76953125 206.440429688 645.834960938 352.517578125 772.114257812 c 1
 367.1015625 784.075195312 434.41015625 834 462.002929688 834 c 0
 472.220703125 834 480.436523438 830.081054688 479.05078125 819.694335938 c 1
 474.272460938 787.1953125 462.795898438 783.071289062 441.96875 754.954101562 c 0
 338.895507812 612.692382812 262.533203125 469.840820312 239.63671875 295.70703125 c 0
 232.95703125 246.37890625 231.72265625 189.227539062 254.39453125 146.5859375 c 1
 268.875976562 118.379882812 329.073242188 87.359375 324.939453125 57.70703125 c 0
 319.010742188 13.9208984375 257.436523438 6 225.372070312 6 c 0
 217.483398438 6 209.88671875 6.5556640625 202.578125 7.6259765625 c 0
 95.0546875 22.744140625 43.3828125 142.23046875 60.9521484375 264.291992188 c 0
EndSplineSet
EndChar

StartChar: plus
Encoding: 43 43 7
Width: 695
Flags: HW
LayerCount: 2
Fore
SplineSet
279.317409475 126.300901585 m 1
 285.047978012 171.306760777 l 0
 291.747033934 220.322310104 313.206897316 266.218714771 320.19636122 316.336308716 c 1
 320.533198215 319.09662011 321.02695251 322.1753816 321.037087021 325.481573678 c 0
 321.056738305 331.892432515 317.813909892 340 307.548387752 340 c 0
 292.521538031 340 270.218946951 338 246.045962379 338 c 0
 227.445880075 338 207.34459193 338.891173842 187.519994741 341.668055358 c 0
 128.307581641 349.957210459 78.8302271387 373.75554537 87.9554911743 438.334337006 c 0
 96.4874583595 501.850092718 152.132467662 524 202 524 c 0
 246.809572674 524 289.737703606 507 335.859028003 507 c 0
 373.239730925 507 386.713248361 555.352210641 393.40858333 606.300067516 c 1
 397.343576968 633.50803589 399.297330414 662.526180919 403.173047595 690.316813014 c 0
 411.135578574 749.450839076 423.945372118 795 460.816336698 795 c 0
 511.731985992 795 525.250504804 745.176958892 523.298101046 691.178457653 c 0
 522.332443362 663.481661239 512.567689135 533.339203307 510.616418835 505.35623525 c 0
 510.472368956 503.290430643 l 1
 525.947264187 485 l 1
 634 485 l 0
 645.71555107 485 661.99804336 484.778182436 678.189654058 482.544181695 c 0
 712.349221249 477.831092931 741.767143299 465.314786767 737.04584916 431.675566024 c 0
 725.886539134 349.840625833 547.346605532 355.400116649 493.356918461 347.955303308 c 0
 490.119121077 347.508832909 l 1
 489.287690903 344.272466496 l 0
 469.052550131 265.50658578 447.210182141 68 340.740172874 68 c 0
 305.525239958 68 287.690575014 92.8713318678 279.317409475 126.300901585 c 1
EndSplineSet
EndChar

StartChar: zero
Encoding: 48 48 8
Width: 613
Flags: HW
LayerCount: 2
Fore
SplineSet
446.165039062 744.373046875 m 1
 345.390625 632.795898438 286.422851562 510.712890625 266.8203125 365.711914062 c 0
 265.690429688 357.918945312 265.104492188 347.770507812 265.103515625 336.030273438 c 0
 265.09375 276.083007812 280.143554688 163 335.876953125 163 c 0
 425.270507812 163 500.544921875 462.865234375 508.11328125 516.32421875 c 0
 519.8515625 604.767578125 506.88671875 655.372070312 473.141601562 727.1015625 c 1
 474.110351562 737.412109375 483.36328125 742.743164062 485.705078125 757.177734375 c 0
 486.649414062 763 l 1
 480.904296875 763 l 0
 467.259765625 763 455.366210938 754.876953125 446.165039062 744.373046875 c 1
207.956054688 43.568359375 m 0
 100.608398438 58.4228515625 51.302734375 177.72265625 67.9677734375 295.3046875 c 0
 98.861328125 517.541992188 273.013671875 830 504.264648438 830 c 0
 514.844726562 830 524.865234375 829.291992188 534.333984375 827.927734375 c 0
 641.6171875 812.8203125 683.3359375 716.50390625 666.063476562 594.689453125 c 0
 639.173828125 401.4765625 437.313476562 42 230.756835938 42 c 0
 222.861328125 42 215.262695312 42.5361328125 207.956054688 43.568359375 c 0
EndSplineSet
EndChar

StartChar: one
Encoding: 49 49 9
Width: 416
Flags: HW
LayerCount: 2
Fore
SplineSet
32.9404296875 112.59375 m 0
 52.5546875 250.08984375 234.052941371 454.462890625 253.573840953 602.31640625 c 0
 254.324608779 608 l 1
 248.825842935 608 l 0
 230.491942857 608 214.195974895 602 198.020766346 602 c 0
 180.297216171 602 181.353158948 623.543945312 184.550006983 645.053710938 c 1
 194.424195291 722.681640625 421.20703125 830 479.990234375 830 c 0
 501.780273438 830 506.067382812 807.975585938 503.032226562 781.323242188 c 1
 500.028320312 759.860351562 498.256835938 747.268554688 487.447265625 725.247070312 c 1
 422.409179688 577.387695312 370.035529731 464.868164062 310.534839263 312.901367188 c 0
 267.765412318 202.3125 228.204066841 48 97.990234375 48 c 0
 94.8740234375 48 91.6396484375 48.236328125 88.35546875 48.708984375 c 0
 58.6845703125 52.994140625 28.111328125 75.5185546875 32.9404296875 112.59375 c 0
EndSplineSet
EndChar

StartChar: two
Encoding: 50 50 10
Width: 500
Flags: HW
LayerCount: 2
Fore
SplineSet
163.307617188 55.31640625 m 0
 104.8359375 63.6171875 39.9541015625 85.4228515625 46.9267578125 134.235351562 c 0
 48.5029296875 143.689453125 62.083984375 162.33203125 65.056640625 167.072265625 c 1
 175.774321962 298.88671875 335.529995755 425.75390625 360.021849287 607.392578125 c 1
 361.952761865 626.39453125 l 1
 363.512200051 638.01953125 365.131979254 652.337890625 365.170635219 666.15625 c 0
 365.24700432 693.92578125 358.534066061 725 327.231220115 725 c 0
 326.735292373 725 320.947268781 726.561523438 317.059987259 722.53515625 c 0
 316.823337329 722.291015625 l 1
 316.621572049 722.014648438 l 0
 283.150220767 676.12890625 275.153150218 635.762695312 268.388356396 584.71484375 c 1
 263.450764028 550.9609375 267.301275243 521.716796875 263.553532324 490.661132812 c 0
 262.137404057 479.658203125 251.337304653 476 242.27106669 476 c 0
 239.009823229 476 235.850405237 476.224609375 232.788098571 476.657226562 c 0
 177.554381995 484.453125 149.5546875 562.626953125 157.938476562 621.313476562 c 0
 176.194823431 755.48046875 293.604302146 839 406.398635807 839 c 0
 415.479959024 839 424.499055567 838.33984375 433.350328654 837.036132812 c 0
 512.221679688 825.755859375 577.922851562 767.048828125 564.034179688 670.694335938 c 0
 542.40234375 516.325195312 382.975949688 368.829101562 282.209278017 258.434570312 c 0
 281.123139692 257.245117188 l 1
 279.966289236 247.6640625 l 1
 277.718586313 231.36328125 339.16742775 234 345.574889605 234 c 0
 392.016731284 234 439.323146613 250 484.985351562 250 c 0
 488.524414062 250 489.263671875 245.534179688 488.030273438 235.666015625 c 1
 470.665039062 115.075195312 302.183097822 51 218.134659467 51 c 0
 206.288020531 51 185.912555824 52.0087890625 163.307617188 55.31640625 c 0
EndSplineSet
EndChar

StartChar: three
Encoding: 51 51 11
Width: 592
Flags: HW
LayerCount: 2
Fore
SplineSet
175.076171875 29.6005859375 m 0
 99.7802734375 39.859375 34.7080078125 98.22265625 46.953125 188.309570312 c 0
 61.5927734375 290.787109375 179.659179688 398 271.146484375 398 c 0
 275.173828125 398 279.069335938 397.91015625 282.358398438 397.439453125 c 0
 290.508789062 396.2734375 294.264648438 394.427734375 292.619140625 383.720703125 c 1
 289.112304688 356.70703125 256.676757812 339.891601562 239.731445312 311.61328125 c 0
 220.559570312 279.487304688 215.694335938 243.708007812 210.82421875 209.689453125 c 1
 208.927734375 194.892578125 206.6875 181.915039062 206.618164062 170.87890625 c 0
 206.505859375 153.075195312 213.814453125 140 236.09375 140 c 0
 311.657226562 140 407.227539062 282.916015625 417.15234375 355.286132812 c 0
 431.328125 456.15625 330.776367188 450.112304688 335.360351562 482.276367188 c 0
 335.411132812 482.635742188 l 1
 335.411132812 482.905273438 l 1
 336 485.565429688 337.7890625 491.520507812 338.01953125 492.561523438 c 1
 387.49609375 541.3359375 458.754882812 608.373046875 469.739257812 687.3359375 c 1
 470.248046875 691.515625 470.620117188 696.03125 470.633789062 700.749023438 c 0
 470.671875 714.059570312 467.376953125 733 449.334960938 733 c 0
 421.759765625 733 317.99609375 569.8984375 303.63671875 554.028320312 c 1
 265.779296875 556.30859375 247.905273438 617.498046875 253.5703125 656.283203125 c 1
 270.576171875 781.45703125 415.453125 846 514.572265625 846 c 0
 522.92578125 846 531.142578125 845.41796875 539.23828125 844.271484375 c 0
 611.208984375 834.233398438 666.192382812 781.561523438 654.05078125 695.70703125 c 0
 639.342773438 592.750976562 524.266601562 555.418945312 521.431640625 530.672851562 c 1
 517.974609375 507.59765625 637.700195312 486.251953125 623.05078125 383.70703125 c 0
 601.549804688 233.198242188 327.881835938 28 198.119140625 28 c 0
 190.389648438 28 182.682617188 28.5400390625 175.076171875 29.6005859375 c 0
EndSplineSet
EndChar

StartChar: four
Encoding: 52 52 12
Width: 524
Flags: HW
LayerCount: 2
Fore
SplineSet
215.378647609 47.0625 m 0
 190.26953125 50.7724609375 171.452148438 63.4619140625 175.96484375 94.2978515625 c 0
 186.59375 171.599609375 258.8557332 234.481445312 269.942498184 315.01953125 c 0
 271.23382227 321.723632812 268.800715635 327.731445312 261.59544701 331.471679688 c 2
 260.323873693 332.1328125 l 1
 258.910282942 331.969726562 l 2
 250.937555866 331.049804688 224.683140822 331 199.730395504 331 c 0
 174.501953125 331 143.557617188 328.625 118.583984375 331.969726562 c 0
 88.052734375 336.05859375 68.517578125 347.190429688 72.970703125 380.338867188 c 0
 78.7041015625 423.341796875 126.352539062 503.497070312 145.478515625 541.748046875 c 0
 202.68642726 655.947265625 273.29354532 833 407.756780502 833 c 0
 414.656382464 833 420.847778281 832.802734375 426.017777188 832.048828125 c 0
 440.662502127 829.911132812 447.704121523 825.016601562 444.403862078 801.715820312 c 0
 434.302754517 729.252929688 281.986705208 586.943359375 234.938492484 492.29296875 c 2
 232.701012513 487.79296875 l 1
 237.064051431 485.528320312 l 2
 248.171507697 479.760742188 253.790131214 475.91015625 266.623428484 477.020507812 c 0
 276.503515535 478.046875 319.511285234 482.985351562 330.60839586 485.081054688 c 2
 331.549849181 485.258789062 l 1
 332.353987632 485.795898438 l 2
 406.595247183 535.426757812 396.844010387 625 520.013671875 625 c 0
 525.69921875 625 535.819335938 624.987304688 545.791015625 623.557617188 c 0
 563.19921875 621.0625 574.793945312 615.384765625 573.0625 603.692382812 c 0
 568.2890625 567.41796875 542.340820312 535.698242188 537.0546875 497.635742188 c 0
 534.08203125 472.366210938 571.26171875 484.551757812 569.0625 467.693359375 c 0
 562.615234375 421.641601562 463.328125 353.264648438 436.054929879 282.919921875 c 0
 426.393982312 259.846679688 387.77934794 151.442382812 380.168718295 127.874023438 c 1
 358.477671396 82.3798828125 271.302479705 46 230.549119207 46 c 0
 225.387584915 46 220.271195238 46.3369140625 215.378647609 47.0625 c 0
EndSplineSet
EndChar

StartChar: five
Encoding: 53 53 13
Width: 559
Flags: HW
LayerCount: 2
Fore
SplineSet
171.954101562 43.478515625 m 0
 87.2861328125 55.205078125 47.3291015625 135.719726562 60.9716796875 230.305664062 c 0
 75.7314453125 338.548828125 174.5625 458 279.839423423 458 c 0
 291.718190787 458 308.176130647 453.102539062 307.033231308 443.673828125 c 1
 302.644384219 412.893554688 243.347130444 350.856445312 227.013233511 318.217773438 c 1
 209.10654801 279.23046875 200.40176456 231.884765625 195.52716158 192.671875 c 1
 194.132388815 182.60546875 190.542719061 170.2890625 190.510524713 159.74609375 c 0
 190.478330365 149.015625 195.653098292 139 210.026927593 139 c 0
 293.529596284 139 382.478791072 306.62109375 393.241172089 385.330078125 c 0
 398.075058688 422.21875 395.110338033 477.421875 353.017175468 490.779296875 c 0
 352.320262532 491 l 1
 351.591155249 491 l 0
 344.974269929 491 310.067075121 492 303.110255367 492 c 0
 271.103392519 492 246.794766312 483 218.753489572 483 c 0
 215.251880827 483 212.022977143 483.212890625 209.064884736 483.622070312 c 0
 185.214554536 486.923828125 176.693359375 502.504882812 180.888202357 533.283203125 c 0
 190.626045607 602.57421875 279.936953359 814.005859375 358.800795321 829 c 1
 476.116051002 829.0234375 514.280273438 831.870117188 603.799804688 821.111328125 c 1
 615.639648438 816.427734375 618.7578125 814.067382812 617.0625 799.654296875 c 1
 611.576171875 762.166015625 554.5546875 722.407226562 532.950195312 705.946289062 c 0
 480.723630276 664.916992188 435.884479241 663 374.708590595 660.997070312 c 0
 372.348934296 660.919921875 l 1
 370.953214639 658.95703125 l 0
 360.308248302 643.986328125 346.338742131 626.907226562 344.870111745 617.822265625 c 0
 344.803829265 617.4140625 l 1
 344.803829265 617 l 0
 344.803829265 612.916992188 348.220217679 605 355.469627239 605 c 0
 392.687239932 605 432.329844511 621 469.884550961 621 c 0
 479.95664729 621 489.38580356 620.350585938 498.190429688 619.077148438 c 0
 573.583984375 608.478515625 605.258789062 555.028320312 592.0703125 462.70703125 c 0
 569.3671875 303.786132812 345.835942173 42 193.543421633 42 c 0
 186.093270847 42 178.962222858 42.5048828125 171.954101562 43.478515625 c 0
EndSplineSet
EndChar

StartChar: six
Encoding: 54 54 14
Width: 592
Flags: HW
LayerCount: 2
Fore
SplineSet
345.809570312 499 m 0
 286.408203125 499 244.861328125 398.836914062 238.044921875 351.721679688 c 0
 236.463867188 340.325195312 235.635742188 328.663085938 235.595703125 317.008789062 c 0
 235.333007812 241.618164062 268.631835938 163 347.751953125 163 c 0
 387.659179688 163 413.1484375 257.450195312 420.413085938 283.625976562 c 0
 420.453125 283.76953125 l 1
 420.484375 283.915039062 l 0
 424.393554688 302.025390625 437.924804688 361.502929688 439.0078125 369.314453125 c 0
 439.84375 375.526367188 440.268554688 381.689453125 440.302734375 387.76171875 c 0
 440.637695312 447.342773438 402.913085938 499 345.809570312 499 c 0
201.7578125 44.1328125 m 0
 111.01171875 56.740234375 36.181640625 107.53515625 51.9609375 221.311523438 c 0
 74.66015625 384.15234375 290.998046875 732.104492188 414.643554688 821.904296875 c 0
 432.303710938 834.631835938 464.397460938 837 491.504882812 837 c 0
 495.870117188 837 522.629882812 840.310546875 548.140625 836.908203125 c 0
 573.559570312 833.518554688 591.8515625 824.453125 589.063476562 803.745117188 c 1
 586.98046875 791.244140625 587.219726562 784.28125 578.44140625 775.50390625 c 0
 523.711914062 719.779296875 437.696289062 639.692382812 436.169921875 625.551757812 c 1
 435.940429688 624.134765625 435.536132812 621.674804688 435.235351562 619.822265625 c 0
 434.29296875 614 l 1
 440.026367188 614 l 0
 466.967773438 614 493.192382812 620 519.008789062 620 c 0
 524.829101562 620 530.390625 619.618164062 535.69921875 618.885742188 c 0
 607.739257812 608.944335938 637.09375 532.791992188 626.057617188 453.69921875 c 0
 600.282226562 271.291992188 423.65625 41 247.708007812 41 c 0
 232.2109375 41 216.767578125 42.0078125 201.7578125 44.1328125 c 0
EndSplineSet
EndChar

StartChar: seven
Encoding: 55 55 15
Width: 529
Flags: HW
LayerCount: 2
Fore
SplineSet
77.0947265625 41.3115234375 m 0
 53.6728515625 44.68359375 34.900390625 54.296875 38.9482421875 81.28515625 c 0
 43.490234375 113.990234375 142.990234375 242.985351562 165.693805496 271.892578125 c 0
 166.006507404 272.299804688 l 1
 166.232031811 272.763671875 l 0
 168.111086005 276.63671875 169.441490487 286.887695312 169.649958426 289.537109375 c 1
 175.397988049 340.784179688 121.662109375 311.48828125 127.950195312 357.30078125 c 0
 151.896484375 526.922851562 259.133873589 441.659179688 287.321581664 488.390625 c 1
 396.71039466 675.610351562 l 1
 396.71039466 676.606445312 l 1
 397.303580704 678.694335938 398.403722872 682.869140625 398.54396494 683.7421875 c 1
 399.609994173 690.334960938 400.221184266 701.594726562 389.310730413 704.807617188 c 0
 388.525185316 705.0390625 l 1
 387.708370028 704.9921875 l 0
 315.772717407 700.874023438 248.957795429 650 182.268901796 650 c 0
 174.933673094 650 169.088990154 650.329101562 164.566183463 650.97265625 c 0
 148.071289062 653.276367188 148.6640625 657.0546875 150.951171875 672.302734375 c 1
 155.881835938 709.776367188 212.537498933 827 267.657369543 827 c 0
 440.629851464 827 406.84383165 829.03125 495.395507812 819.036132812 c 1
 503.810546875 817.9140625 516.749023438 816.961914062 530.7890625 815.09375 c 0
 569.41015625 809.956054688 609.328125 798.494140625 605.046875 766.684570312 c 0
 592.483398438 675.840820312 480.663276373 599.030273438 467.583808374 503.641601562 c 1
 465.231910991 483.038085938 478.145552221 478 490.999023438 478 c 0
 498.447265625 478 506.447265625 479 512.999023438 479 c 0
 524.094726562 479 528.569335938 477.872070312 527.04296875 465.657226562 c 1
 513.513671875 369.020507812 402.692476923 385.965820312 359.634371738 316.697265625 c 0
 359.423061055 316.356445312 l 1
 359.2667101 315.984375 l 0
 344.049498147 279.717773438 294.207656716 185.903320312 253.851106503 107.696289062 c 1
 221.534785657 64.4755859375 142.657226562 40 96.9990234375 40 c 0
 90.6494140625 40 83.7841796875 40.3486328125 77.0947265625 41.3115234375 c 0
EndSplineSet
EndChar

StartChar: eight
Encoding: 56 56 16
Width: 561
Flags: HW
LayerCount: 2
Fore
SplineSet
323.469726562 354 m 0
 272.268554688 354 231.0703125 193.37109375 228.35546875 174.737304688 c 0
 227.177734375 166.544921875 226.142578125 158.49609375 226.090820312 151.028320312 c 0
 225.971679688 133.49609375 232.645507812 118 255.493164062 118 c 0
 310.138671875 118 349.634765625 214.24609375 355.474609375 259.353515625 c 0
 356.200195312 265.078125 356.732421875 273.096679688 356.734375 282.12890625 c 0
 356.739257812 309.006835938 352.564453125 354 323.469726562 354 c 0
188.681640625 30.47265625 m 0
 111.447265625 41.3076171875 39.619140625 87.3251953125 52.94921875 182.298828125 c 0
 72.5361328125 319.411132812 243.763671875 365.236328125 251.55859375 420.278320312 c 0
 251.608398438 420.637695312 l 1
 251.608398438 421 l 0
 251.608398438 422.263671875 252.580078125 430.263671875 252.580078125 433 c 0
 252.580078125 434.579101562 l 1
 251.69921875 435.872070312 l 0
 212.932617188 492.758789062 182.869140625 545.182617188 193.296875 622.3046875 c 0
 209.405273438 740.372070312 330.579101562 831 435.14453125 831 c 0
 446.63671875 831 458.58203125 830.474609375 469.203125 828.901367188 c 0
 492.55859375 825.440429688 505.059570312 817.840820312 503.173828125 804.732421875 c 0
 503.12109375 804.368164062 l 1
 503.12109375 804.10546875 l 1
 503.01171875 803.194335938 502.805664062 801.96484375 502.607421875 800.735351562 c 1
 431.241210938 774.412109375 390.55078125 707.907226562 380.81640625 634.734375 c 1
 379.400390625 625.6171875 377.502929688 613.333984375 377.469726562 601.44140625 c 0
 377.4140625 581.58984375 383.301757812 559 408.924804688 559 c 0
 456.151367188 559 484.688476562 645.821289062 489.485351562 684.353515625 c 0
 492.54296875 708.49609375 487.693359375 725.541015625 490.453125 747.330078125 c 0
 494.594726562 778.887695312 545.905273438 785 570.998046875 785 c 0
 575.858398438 785 580.333007812 784.704101562 584.435546875 784.135742188 c 0
 622.530273438 778.859375 632.228515625 749.965820312 625.045898438 699.684570312 c 0
 612.35546875 607.92578125 546.935546875 551.958007812 475.706054688 490.814453125 c 0
 475.552734375 490.681640625 l 1
 475.411132812 490.53515625 l 0
 471.880859375 486.900390625 472.283203125 482.333984375 471.962890625 478.623046875 c 1
 467.696289062 443.470703125 537.5859375 374.51171875 527.045898438 301.686523438 c 0
 508.448242188 167.586914062 341.151367188 28 223.447265625 28 c 0
 211.979492188 28 200.286132812 28.8076171875 188.681640625 30.47265625 c 0
EndSplineSet
EndChar

StartChar: nine
Encoding: 57 57 17
Width: 563
Flags: HW
LayerCount: 2
Fore
SplineSet
417.546511248 766 m 0
 353.919108171 766 301.130834174 634.650390625 294.342281093 584.684570312 c 0
 293.594526188 579.033203125 293.204063551 572.959960938 293.181318155 566.643554688 c 0
 293.023048105 522.90234375 310.884818303 461 359.318296627 461 c 0
 412.689421405 461 452.70236446 642.224609375 457.283666372 675.266601562 c 1
 458.04184625 680.350585938 458.511917774 686.609375 458.546035869 693.361328125 c 0
 458.687246871 721.216796875 451.436204064 766 417.546511248 766 c 0
73.1875 38.1396484375 m 0
 59.453125 40.3115234375 50.8369140625 45.087890625 52.94140625 58.2431640625 c 0
 58.3505859375 95.2041015625 118.296875 103.669921875 149.28125 130.228515625 c 0
 202.591143171 177.420898438 253.346547371 230.672851562 292.575721977 293.328125 c 1
 305.71877016 315.205078125 336.556788968 367.8125 337.853276559 371.81640625 c 1
 340.650960309 392 l 1
 335.056540535 392 l 0
 290.830960533 392 241.583386566 355 197.249765932 355 c 0
 192.624868677 355 188.188568666 355.30859375 183.934231827 355.901367188 c 0
 114.682617188 365.31640625 87.7021484375 448.7734375 97.9521484375 523.315429688 c 0
 122.532226562 701.276367188 311.0601474 833 458.306261482 833 c 0
 467.110625314 833 475.488512965 832.397460938 483.456035756 831.241210938 c 0
 598.224609375 815 634.7109375 687.341796875 617.047851562 563.6953125 c 0
 584.35546875 330.888671875 314.199959819 37 90.9990234375 37 c 0
 85.5400390625 37 79.1435546875 37.1982421875 73.1875 38.1396484375 c 0
EndSplineSet
EndChar

StartChar: equal
Encoding: 61 61 18
Width: 619
Flags: HW
LayerCount: 2
Fore
SplineSet
114.952568127 519.312916002 m 0
 126.308117893 600.694355989 208.934251757 609 278.59690834 609 c 0
 411.958987493 609 420.127080411 609.023587071 515.499723269 600.018266755 c 0
 530.159892217 598.726300711 561.14013176 598.359733783 592.040824549 593.885722155 c 0
 636.309246214 587.476240185 672.452416872 573.543998421 668.050252532 543.707106781 c 0
 656.103625734 460.080719198 262.920125399 447 206.62337796 447 c 0
 190.553616417 447 176.67146351 447.725375128 165.112505313 449.263661683 c 0
 117.267582568 455.630948437 108.699911238 473.981153557 114.952568127 519.312916002 c 0
73.9510011998 276.301669339 m 0
 82.2987888684 334.736183019 171.684529335 359.969778184 211.95926082 368.00028353 c 1
 228.466915229 368.019812733 294.391395843 369 309.720597154 369 c 0
 407.253450897 369 423.065016799 372.010689529 495.69441016 360.06279684 c 0
 495.829979092 360.040495084 l 1
 495.966555868 360.026092807 l 0
 506.568790426 358.908067314 522.496826554 357.577744618 539.833400479 354.948468537 c 0
 587.88083899 347.825475485 638.702719376 332.016972599 633.046605801 293.681091702 c 0
 623.06726772 221.104087479 271.710660452 208 215.376915438 208 c 0
 197.933425318 208 170.571561927 207.27456808 144.441183245 210.883849909 c 0
 102.532788111 216.672484315 67.8259038234 232.312333636 73.9510011998 276.301669339 c 0
EndSplineSet
EndChar

StartChar: question
Encoding: 63 63 19
Width: 455
Flags: HW
LayerCount: 2
Fore
SplineSet
119.954546615 280.326487242 m 0
 123.563805254 308.298241696 161.015768045 336.765804759 181.869546414 362.833027721 c 1
 250.949189771 448.770409135 325.456773776 547.466117037 341.021198446 661.336308716 c 1
 341.531922411 665.606577032 341.826685995 670.209299622 341.855391496 675.191432939 c 0
 341.991389579 698.795291235 335.749164793 735 306.618554223 735 c 0
 256.879145056 735 225.168006035 623.887153692 218.677566535 590.938784561 c 1
 215.97418376 574.927943407 203.845888537 498.932095533 200.20662549 476.114493704 c 1
 135.820025959 480.474646528 112.215260465 570.268281434 120.953892827 635.322544571 c 0
 136.610025066 749.808011571 235.389316554 833 335.322547187 833 c 0
 346.066365128 833 356.88273425 832.19756204 367.60349046 830.610799683 c 0
 458.432970297 817.48391774 542.585761041 751.592397621 527.048628976 643.695647169 c 0
 510.41067643 525.272573165 391.508534514 461.415129718 382.253817305 393.707106781 c 0
 381.473737529 388 l 1
 467.994607352 388 l 1
 469.731358364 387.508054644 474.849438107 377.106793598 474.044418185 370.666634223 c 1
 457.792241592 257.857408456 292.679353687 231 222.420174864 231 c 0
 210.454463975 231 192.396393519 230.881665948 174.302721821 233.425390989 c 0
 141.917312605 237.922608181 115.558638361 249.555129467 119.954546615 280.326487242 c 0
67.9548695906 55.3297255653 m 0
 80.5817316539 148.574245418 163.260271082 207 240.599370407 207 c 0
 244.247391631 207 247.864391572 206.762542602 251.360825137 206.269013449 c 0
 273.106137137 203.199615671 289.286033435 191.316588441 285.617040994 163.707106781 c 0
 272.527667847 67.9445289256 205.653492143 7 117 7 c 0
 113.817580102 7 110.651844702 7.20438829438 107.554165066 7.61467698785 c 0
 83.235204058 10.835731426 63.9682019472 25.8283850042 67.9548695906 55.3297255653 c 0
EndSplineSet
EndChar

StartChar: A
Encoding: 65 65 20
Width: 697
Flags: HW
LayerCount: 2
Fore
SplineSet
345.132952529 281 m 0
 426.660994636 281 l 1
 436.487639289 278.827148438 437.847282811 279 444.790529062 279 c 0
 449.579336666 279 454.81849637 280.440429688 456.368967053 286.787109375 c 1
 455.740191558 305.278320312 460.588155581 458.06640625 441.880414858 483.971679688 c 0
 438.955988616 488.021484375 l 1
 435.020178422 485 l 0
 424.382518335 476.833984375 379.070608968 385.623046875 373.073865435 374.370117188 c 0
 359.556623489 348.67578125 343.013816906 323.763671875 328.288639032 299.650390625 c 0
 327.698983104 298.684570312 l 1
 327.575899586 297.551757812 l 0
 326.074089829 283.713867188 339.07609844 281 345.132952529 281 c 0
421.295889006 618.309570312 m 1
 423.647833765 633.958007812 406.377021563 662.278320312 402.071960812 676.635742188 c 1
 409.527577991 685.208984375 464.086971577 695 477.032686176 695 c 0
 499.504492649 695 l 0
 650.40234375 695 597.41796875 468.890625 621.055664062 299.31640625 c 0
 629.106445312 240.947265625 643.171875 185.727539062 659.211914062 130.588867188 c 0
 664.236328125 113.508789062 682.615234375 72.138671875 683.138671875 56.8193359375 c 1
 646.916015625 33.607421875 601.90234375 4 564.008789062 4 c 0
 486.352684717 4 482.244175942 102.583007812 470.117109863 171.881835938 c 0
 469.993072209 172.590820312 l 1
 469.678207393 173.236328125 l 0
 467.850083191 176.977539062 463.895190281 178 462.377160215 178 c 0
 451.833005437 178 434.212979531 166.392578125 428.79348816 164.807617188 c 0
 428.477669209 164.715820312 l 1
 428.17711643 164.581054688 l 0
 413.464342321 157.9921875 396.549422775 156 380.306214835 156 c 0
 345.410606048 156 312.19141387 159 276.740498045 159 c 0
 241.021470059 159 242.825740865 140.375 233.553449115 125.708984375 c 0
 185.784640051 49.8779296875 145.352181189 5 65.0087890625 5 c 0
 57.525390625 5 48.1826171875 4.7548828125 39.7900390625 5.849609375 c 0
 25.1259765625 7.7626953125 15.9697265625 12.3779296875 17.9638671875 27.3330078125 c 0
 24.5361328125 76.1533203125 109.095703125 126.896484375 113.940429688 157.177734375 c 0
 116.671875 173.564453125 69.4404296875 170.567382812 73.94921875 201.225585938 c 1
 76.568359375 216.942382812 89.3095703125 228.201171875 100.666015625 240.58984375 c 1
 137.381835938 279.291015625 152.940423244 289 194.669552664 289 c 0
 203.41993213 289 210.621749184 292.642578125 211.637903816 293 c 1
 213.757993574 293 l 1
 215.221637898 295.047851562 l 0
 274.109945631 377.419921875 323.964495565 471.487304688 378.508622979 555.2265625 c 0
 378.573504213 555.325195312 l 1
 378.633614769 555.427734375 l 0
 380.519941255 558.646484375 419.006917211 599.568359375 421.295889006 618.309570312 c 1
EndSplineSet
EndChar

StartChar: B
Encoding: 66 66 21
Width: 560
Flags: HW
LayerCount: 2
Fore
SplineSet
158.127929688 -8.375 m 0
 116.400390625 -2.388671875 67.6875 14.05859375 72.052734375 45.05078125 c 0
 74.65234375 64.3779296875 102.217773438 78.4921875 105.033203125 95.6220703125 c 2
 105.95703125 101.2421875 l 1
 100.344726562 101.51953125 l 2
 93.7158203125 101.84765625 87.67578125 102.3359375 82.291015625 103.114257812 c 0
 55.822265625 106.942382812 44.494140625 115.913085938 50.05078125 154.5546875 c 0
 57.8642578125 210.015625 91.6044921875 276.772460938 114.692382812 331.7421875 c 0
 139.719726562 390.623046875 163.690429688 450.365234375 190.899219663 506.916992188 c 0
 198.113087765 521.9921875 216.33400491 542.618164062 218.554750273 562.337890625 c 2
 219.191686204 568.000976562 l 1
 213.735078838 568.000976562 l 2
 196.697990527 568.000976562 182.288262928 555.83203125 169.088903161 555.83203125 c 0
 160.907226562 555.83203125 157.662109375 558.502929688 159.034179688 566.157226562 c 0
 161.83203125 585.0703125 174.140790822 605.805664062 184.633172886 620.754882812 c 0
 246.946738053 708.549804688 359.090113722 712 443.759940475 712 c 0
 500.673828125 712 586.395507812 697.802734375 610.346679688 639.420898438 c 1
 613.973632812 626.3984375 619.815429688 611.303710938 618.161132812 601.241210938 c 2
 612.147460938 559.5703125 l 2
 602.629882812 489.120117188 517.202148438 439.861328125 460.344918013 415.51953125 c 2
 457.949773526 414.484375 l 1
 457.441741296 411.829101562 l 2
 454.849449973 398.288085938 506.530273438 388.735351562 506.560546875 388.729492188 c 0
 550.02734375 367.84765625 576.772460938 330.735351562 569.1484375 275.649414062 c 0
 552.633789062 154.484375 409.864902084 72.7822265625 316.484597358 26.0341796875 c 0
 274.965284231 5.857421875 232.895286915 -11 189.470852927 -11 c 0
 182.707199954 -11 171.354196127 -10.2578125 158.127929688 -8.375 c 0
151.1015625 72.08984375 m 1
 151.1015625 64 l 2
 151.1015625 61.888671875 154.989257812 58 157.1015625 58 c 2
 162.1015625 58 l 1
 162.1015625 63 l 2
 162.1015625 69.0615234375 157.533203125 68.8740234375 157.533203125 68.8740234375 c 1
 151.1015625 72.08984375 l 1
354.467589122 70 m 2
 356.516778826 70 360.29100334 73.888671875 360.29100334 76 c 2
 360.29100334 82 l 1
 355.438158158 82 l 2
 349.501953202 82 349.785351778 77.5322265625 349.785351778 77.5322265625 c 1
 349.61474394 77.1806640625 l 1
 349.61474394 70 l 1
 354.467589122 70 l 2
155.198242188 132.98046875 m 2
 154.608398438 130.033203125 151.8046875 119.091796875 162.23828125 118.000976562 c 1
 192.537054912 107.0078125 224.645450106 96 259.35182355 96 c 0
 309.830891659 96 348.328550402 123.446289062 377.967871045 172.306640625 c 0
 394.469440307 198.309570312 409.590981721 225.131835938 413.624909279 256.302734375 c 0
 421.839676699 313.43359375 385.986439452 343.489257812 341.279603211 356.796875 c 0
 321.111861065 363.030273438 308.2148563 363.815429688 295.898866008 377.411132812 c 2
 294.459125415 379 l 1
 285.087068157 379 l 1
 283.915561 375.731445312 l 2
 253.894268363 291.916992188 214.210885143 198.5 156.453125 135.419921875 c 2
 155.477539062 134.37890625 l 1
 155.198242188 132.98046875 l 2
301.318508342 424.573242188 m 1
 301.230360959 424.212890625 l 2
 299.064589232 415.283203125 307.829093021 412 311.762551518 412 c 0
 367.629036036 412 450.134038883 501.556640625 456.329946882 547.30859375 c 0
 457.293881169 554.423828125 457.824661111 561.16015625 457.850252287 567.491210938 c 0
 457.98105163 600.884765625 442.773258476 623 405.907748053 623 c 0
 375.400223077 623 375.722482327 611.625 366.443311559 585.811523438 c 0
 345.17894014 532.03515625 322.800878665 477.895507812 301.456890255 424.916992188 c 2
 301.318508342 424.573242188 l 1
EndSplineSet
EndChar

StartChar: C
Encoding: 67 67 22
Width: 600
Flags: HW
LayerCount: 2
Fore
SplineSet
205.578125 -8.2431640625 m 0
 103.750976562 5.849609375 36.65625 102.078125 52.9619140625 221.500976562 c 0
 82.623046875 437.064453125 353.388671875 712 545.009765625 712 c 0
 552.880859375 712 560.388671875 711.490234375 567.5078125 710.489257812 c 0
 629.223632812 701.810546875 663.434570312 656.58203125 652.059570312 578.702148438 c 0
 631.274414062 432.216796875 475.327148438 244 373.430664062 244 c 0
 359.567382812 244 353.393554688 247.372070312 355.86328125 264.291015625 c 1
 358.33984375 282.953125 397.3125 320.084960938 411.734375 346.545898438 c 0
 450.956054688 418.080078125 491.998046875 527.401367188 502.81640625 608.248046875 c 1
 504.696289062 619.8359375 504.10546875 631 489.24609375 631 c 0
 469.232421875 631 448.389648438 605.651367188 437.244140625 594.950195312 c 1
 336.120117188 492.112304688 263.68359375 348.620117188 244.032226562 204.538085938 c 0
 242.001953125 188.580078125 239.555664062 172.280273438 239.498046875 157.48046875 c 0
 239.388671875 129.627929688 249.197265625 106 285.838867188 106 c 0
 398.385742188 106 548.141601562 250 587.009765625 250 c 0
 593.184570312 250 598.452148438 247.068359375 597.06640625 238.754882812 c 1
 592.349609375 204.791015625 546.66796875 131.890625 518.216796875 107.814453125 c 1
 462.9375 58.849609375 299.38671875 -10 231.337890625 -10 c 0
 222.515625 -10 213.920898438 -9.40234375 205.578125 -8.2431640625 c 0
EndSplineSet
EndChar

StartChar: D
Encoding: 68 68 23
Width: 666
Flags: HW
LayerCount: 2
Fore
SplineSet
244.512572257 125.030273438 m 0
 240.911665499 116.734375 215.203575949 94.716796875 214.678940528 83.484375 c 1
 217.984143685 76.7158203125 219.385397202 77.220703125 219.67251586 77 c 0
 220.944041346 76.0234375 l 1
 222.533209733 76.0009765625 l 0
 291.077304529 74.998046875 356.527958102 80.0634765625 414.518295977 138.409179688 c 0
 477.743541479 201.114257812 515.455289479 276.30859375 527.305372833 365.276367188 c 0
 529.315203439 379.333984375 530.415983942 394.749023438 530.427430534 410.69921875 c 0
 530.483709606 488.264648438 504.362588897 584 423.818651181 584 c 0
 420.487693194 584 l 1
 419.271492898 580.825195312 l 0
 371.384679364 455.760742188 325.510558084 331.848632812 277.621836784 206.78125 c 1
 267.669979775 179.270507812 260.934614842 150.862304688 244.888401996 125.736328125 c 0
 244.672824532 125.399414062 l 1
 244.512572257 125.030273438 l 0
139.862304688 76.1923828125 m 1
 131.983398438 84.0712890625 l 1
 131.983398438 65 l 1
 142.983398438 65 l 1
 142.983398438 70 l 0
 142.983398438 75.228515625 139.862304688 76.1923828125 139.862304688 76.1923828125 c 1
77.9833984375 49 m 0
 77.9833984375 44 l 1
 90.9833984375 44 l 1
 90.9833984375 49 l 0
 90.9833984375 57.0263671875 84.9970703125 54.900390625 84.9970703125 54.900390625 c 1
 84.5986328125 55 l 1
 83.9833984375 55 l 0
 81.8720703125 55 77.9833984375 51.111328125 77.9833984375 49 c 0
139.5 8.7431640625 m 0
 84.7119140625 16.1845703125 39.8408203125 33.9462890625 44.93359375 71.298828125 c 0
 49.66796875 103.489257812 81.373046875 158.549804688 96.595703125 194.068359375 c 1
 123.631835938 260.158203125 149.609375 324.102539062 176.326183431 390.096679688 c 0
 197.002542344 441.502929688 213.560036255 500.997070312 247.031776164 547.013671875 c 0
 247.1777202 547.213867188 l 1
 247.302678819 547.427734375 l 0
 248.703932336 549.817382812 256.251051349 552.127929688 262.495166751 559.798828125 c 0
 264.236956351 561.938476562 l 1
 261.286597515 571 l 1
 257.766770777 571 l 0
 214.388006339 571 175.420948857 540 133.983398438 540 c 0
 127.580078125 540 124.356445312 541.822265625 125.924804688 551.232421875 c 1
 145.159179688 684.916015625 330.665339573 695 455.075475728 695 c 0
 490.258480995 695 526.928589212 694.950195312 560.353588874 686.150390625 c 1
 666.938476562 659.844726562 718.78125 565.879882812 702.03125 444.690429688 c 0
 667.34765625 195.9609375 468.108373487 4 218.695740093 4 c 0
 196.969156454 4 168.017866115 4.857421875 139.5 8.7431640625 c 0
EndSplineSet
EndChar

StartChar: E
Encoding: 69 69 24
Width: 600
Flags: HW
LayerCount: 2
Fore
SplineSet
211.571289062 -9.81640625 m 0
 110.733398438 4.83203125 35.0712890625 90.603515625 51.9560546875 211.357421875 c 0
 80.6396484375 415.965820312 348.8046875 713 536.005859375 713 c 0
 542.379882812 713 548.700195312 712.5703125 554.911132812 711.728515625 c 0
 614.64453125 703.626953125 663.583007812 657.860351562 654.056640625 587.713867188 c 0
 639.515625 486.895507812 511.298828125 397 425.020507812 397 c 0
 416.813476562 397 411.963867188 398.62109375 412.33984375 402.475585938 c 0
 413.845703125 416.405273438 460.418945312 460.939453125 473.919921875 483.344726562 c 0
 499.42578125 524.666992188 526.041992188 580.024414062 532.056640625 627.400390625 c 0
 533.060546875 636.677734375 530.932617188 649 518.46484375 649 c 2
 518.27734375 649 l 1
 518.090820312 648.985351562 l 2
 503.65625 647.82421875 486.912109375 637.184570312 475.91015625 628.844726562 c 0
 405.903320312 581.422851562 349.978515625 509.51953125 310.727539062 432.569335938 c 0
 301.98046875 415.293945312 292.865234375 397.471679688 289.779296875 377.041992188 c 2
 289.720703125 376.647460938 l 1
 289.720703125 376.3359375 l 2
 289.53125 374.686523438 289.463867188 369.5 289.720703125 368.588867188 c 2
 289.720703125 362 l 1
 558.005859375 362 l 2
 571.314453125 362 581.497070312 353.51953125 580.049804688 342.661132812 c 0
 576.545898438 316.3828125 488.376953125 233 436.701171875 233 c 2
 267.333007812 233 l 2
 258.284179688 233 259.475585938 220.3984375 259.434570312 220.034179688 c 0
 258.693359375 214.353515625 258.177734375 206.771484375 258.15234375 199.877929688 c 0
 257.997070312 159.420898438 272.143554688 107 315.028320312 107 c 0
 379.290039062 107 458.390625 158.102539062 513.626953125 191.39453125 c 1
 542.353515625 201.032226562 562.341796875 229 584.005859375 229 c 0
 589.157226562 229 588.873046875 230.083007812 588.041015625 222.59375 c 0
 583.197265625 184.811523438 561.3515625 133.37890625 533.485351562 104.502929688 c 0
 482.501953125 51.1552734375 311.352539062 -12 242.025390625 -12 c 0
 231.658203125 -12 221.485351562 -11.259765625 211.571289062 -9.81640625 c 0
EndSplineSet
EndChar

StartChar: F
Encoding: 70 70 25
Width: 459
Flags: HW
LayerCount: 2
Fore
SplineSet
83.51171875 4.6083984375 m 0
 55.435546875 8.64453125 31.955078125 32.021484375 36.943359375 65.275390625 c 0
 41.71484375 98.673828125 65.3193359375 134.3671875 79.62890625 169.119140625 c 1
 111.625976562 249.112304688 145.537109375 327.90625 182.514757799 406.859375 c 0
 190.916338388 425.271484375 238.474496113 501.83203125 242.666349557 533.381835938 c 1
 244.009699359 545.928710938 216.172819816 542.608398438 202.68381925 544.418945312 c 0
 177.894876233 547.745117188 155.072265625 556.244140625 158.850917277 585.31640625 c 0
 162.245979907 610.87109375 205.996098418 648.861328125 236.37668795 678.365234375 c 0
 252.051924468 693.733398438 277.471150655 696 297.61104975 696 c 0
 342.273667777 696 388.536452479 687 436.99609375 687 c 0
 462.99609375 687 l 0
 473.834960938 687 484.779296875 686.65625 494.794921875 685.301757812 c 0
 523.250976562 681.451171875 542.734375 670.866210938 538.041015625 636.672851562 c 0
 527.607421875 559.837890625 463.293945312 554.012695312 403.413016742 551.997070312 c 0
 401.512760019 551.931640625 l 1
 400.167528775 550.53515625 l 0
 397.208960759 547.463867188 396.03964437 542.08984375 395.894773313 540.072265625 c 1
 373.797233505 485.2109375 352.804100327 432.754882812 327.950247551 379.168945312 c 0
 327.473301928 378.140625 l 1
 327.473301928 371.62109375 l 1
 327.26258039 370.768554688 322.912685794 359 332.289794215 359 c 0
 365.319454504 359 399.043367001 362 430.99609375 362 c 0
 439.336914062 362 448.237304688 361.87890625 456.090820312 360.702148438 c 0
 472.659179688 358.219726562 482.893554688 352.502929688 480.053710938 333.760742188 c 0
 476.198242188 308.696289062 437.838867188 243.787109375 404.037655585 236.000976562 c 1
 392.355780347 236.030273438 367.647739349 237 341.922778788 237 c 0
 311.45470219 237 276.870029841 237.166992188 271.324478663 227.572265625 c 0
 271.102468471 227.188476562 l 1
 270.950071645 226.76953125 l 0
 243.679506235 151.951171875 177.267415226 4 91.99609375 4 c 0
 89.1455078125 4 86.30859375 4.2060546875 83.51171875 4.6083984375 c 0
EndSplineSet
EndChar

StartChar: G
Encoding: 71 71 26
Width: 575
Flags: HW
LayerCount: 2
Fore
SplineSet
201.968354873 -150.591796875 m 0
 154.161132812 -143.780273438 85.810546875 -113.864257812 91.982421875 -70.6640625 c 0
 92.958984375 -62.849609375 94.955078125 -56.142578125 98.5615234375 -52.53515625 c 2
 98.732421875 -52.365234375 l 1
 98.8857421875 -52.1787109375 l 2
 111.885742188 -36.3935546875 185.493447071 11 194.320239552 11 c 0
 217.249401269 11 234.634414865 -73 269.148207893 -73 c 0
 288.210131747 -73 340.231361361 82.51953125 342.956933665 100.509765625 c 0
 343.661103112 106.380859375 344.036913221 114.38671875 337.173633657 114.38671875 c 2
 335.625789496 114.38671875 l 1
 334.362649964 113.454101562 l 2
 280.607569166 73.7236328125 230.069650664 32.341796875 169.026367188 32.341796875 c 0
 162.594726562 32.341796875 156.465820312 32.7666015625 150.62890625 33.58203125 c 0
 68.8212890625 45.013671875 40.0048828125 135.224609375 52.970703125 228.09375 c 0
 58.9375 268.385742188 67.802734375 308.228515625 88.509765625 350.176757812 c 0
 166.06640625 511.3203125 363.707155964 712 530.026367188 712 c 0
 539.168945312 712 548.02734375 711.450195312 556.450195312 710.297851562 c 0
 607.236328125 703.348632812 642.108398438 675.573242188 633.07421875 610.692382812 c 0
 620.362304688 519.751953125 539.896484375 437 455.732232846 437 c 0
 450.389275996 437 449.100513046 439.09765625 449.858776372 445.3359375 c 0
 451.489184875 457.081054688 464.363528149 474.528320312 468.869453394 485.859375 c 0
 486.55530488 524.279296875 496.443096608 559.908203125 502.318451113 600.217773438 c 0
 502.904942646 603.840820312 503.347183835 607.833007812 503.41456393 611.607421875 c 0
 503.555018213 619.400390625 502.017613222 632 490.716737525 632 c 0
 485.071044753 632 479.962494713 629.676757812 476.064888357 625.919921875 c 1
 367.250779566 560.3046875 314.329883328 489.388671875 267.547218868 363.41796875 c 0
 254.915823543 331.010742188 241.14466069 294.279296875 236.154737578 259.955078125 c 0
 235.187690859 252.290039062 234.604995387 244.338867188 234.58981114 236.188476562 c 0
 234.526227107 202.63671875 244.903710794 164.03125 284.696876639 164.03125 c 0
 334.348414733 164.03125 395.887320057 289.342773438 421.582861743 321.865234375 c 0
 446.926318705 353.94140625 544.3046875 382.821289062 581.026367188 382.821289062 c 0
 597.912109375 382.821289062 600.80859375 376.854492188 598.0859375 360.306640625 c 0
 591.26171875 312.90625 564.577148438 265.666992188 546.397460938 219.629882812 c 0
 521.5390625 159.19921875 493.191769757 102.521484375 463.120317941 43.8779296875 c 0
 399.037102258 -79.5927734375 347.258820593 -152 219.586826264 -152 c 0
 214.500103579 -152 208.504224115 -151.532226562 201.968354873 -150.591796875 c 0
174.884403619 63 m 1
 170.025444636 63 l 2
 167.915039062 63 164.026367188 59.111328125 164.026367188 57 c 2
 164.026367188 52 l 1
 169.026367188 52 l 2
 171.105424191 52 174.884403619 55.888671875 174.884403619 58 c 2
 174.884403619 63 l 1
155.026367188 68 m 1
 155.026367188 68 162.026367188 67.40234375 162.026367188 74 c 2
 162.026367188 80 l 1
 157.026367188 80 l 2
 150.407226562 80 151.666992188 76.7119140625 151.666992188 76.7119140625 c 1
 142.955078125 68 l 1
 155.026367188 68 l 1
EndSplineSet
EndChar

StartChar: H
Encoding: 72 72 27
Width: 732
Flags: HW
LayerCount: 2
Fore
SplineSet
404.346387663 -6.458984375 m 0
 380.954055576 -3.2890625 371.507631309 12.6875 375.712003931 43.3154296875 c 0
 381.406303497 83.8134765625 404.652996423 127.465820312 421.432160817 166.502929688 c 0
 427.906396416 180.94140625 442.19628094 200.662109375 444.404822164 219.049804688 c 2
 444.442190107 219.365234375 l 1
 444.442190107 219.682617188 l 1
 444.442190107 219.682617188 446.414067695 229.538085938 437.7830311 231.784179688 c 2
 437.197599998 231.936523438 l 1
 436.59300585 231.936523438 l 2
 388.714131662 231.936523438 338.675582021 235 290.401949056 235 c 0
 278.187422577 235 272.530490954 226.666992188 270.174394263 219.598632812 c 0
 233.114976697 126.809570312 199.190633701 -5 108.998046875 -5 c 0
 102.698242188 -5 96.2197265625 -4.6162109375 89.859375 -3.7490234375 c 0
 57.787109375 0.6240234375 30.638671875 16.14453125 35.9580078125 56.22265625 c 0
 40.72265625 93.9150390625 66.654296875 142.388671875 83.33984375 180.056640625 c 1
 86.892578125 185.005859375 93.759765625 195.595703125 94.9599609375 205.330078125 c 0
 98.0517578125 230.415039062 63.4619140625 219.032226562 67.9482421875 250.881835938 c 0
 71.603515625 276.8359375 107.020507812 325.423828125 128.055664062 341.909179688 c 2
 128.15625 341.987304688 l 1
 128.252929688 342.071289062 l 2
 133.552734375 346.6796875 150.30078125 350.608398438 157.033845499 360.215820312 c 2
 157.257095002 360.540039062 l 1
 157.429562429 360.895507812 l 2
 163.548323497 373.545898438 168.430109849 389.743164062 173.17871302 401.573242188 c 0
 204.811155534 471.05859375 264.19456529 642.893554688 322.876607507 690.834960938 c 0
 340.341809002 705.087890625 358.483466073 708 380.667568016 708 c 0
 386.543916533 708 392.121321508 707.647460938 397.342293801 706.922851562 c 0
 431.177528625 702.162109375 450.970082239 682.57421875 444.49584664 635.706054688 c 0
 440.760968682 609.637695312 427.411031638 588.864257812 417.321687128 562.779296875 c 0
 401.692305584 522.374023438 383.115647334 481.927734375 365.406116984 442.248046875 c 0
 357.894202363 424.76953125 338.944822839 396.296875 335.630573773 373.169921875 c 0
 334.634095303 368.01953125 335.588415069 360 344.365090825 360 c 0
 397.411280772 360 446.463891619 361 503.311072037 361 c 2
 505.062574579 361 l 1
 506.41836019 362.129882812 l 2
 520.277076145 373.6875 556.842087086 479.93359375 583.251641003 532.771484375 c 1
 619.155526805 607.991210938 652.581630565 697 735.998046875 697 c 0
 739.569335938 697 743.07421875 696.78515625 746.482421875 696.359375 c 0
 777.232421875 692.512695312 800.053710938 672.084960938 795.045898438 633.6875 c 0
 785.271484375 567.221679688 744.612304688 499.41015625 714.544921875 438.2734375 c 0
 705.927734375 421.997070312 683.559570312 390.284179688 681.079101562 372.89453125 c 0
 677.411132812 352.512695312 738.342773438 359.205078125 734.044921875 326.2109375 c 0
 730.505859375 300.196289062 674.452416681 243.319335938 650.608794825 232.896484375 c 0
 640.315363858 228.805664062 631.024160276 232.341796875 618.730107151 220.794921875 c 2
 618.035446679 220.141601562 l 1
 617.623441157 219.270507812 l 2
 573.755392812 126.557617188 534.489350326 -7 413.045453077 -7 c 0
 409.933374163 -7 407.033046923 -6.8154296875 404.346387663 -6.458984375 c 0
EndSplineSet
EndChar

StartChar: I
Encoding: 73 73 28
Width: 548
Flags: HW
LayerCount: 2
Fore
SplineSet
314.583984375 241.08984375 m 1
 314.583984375 233 l 2
 314.583984375 230.888671875 318.359375 227 320.409179688 227 c 0
 325.263671875 227 l 1
 325.263671875 232 l 0
 325.263671875 238.061523438 320.828125 237.874023438 320.828125 237.874023438 c 1
 314.583984375 241.08984375 l 1
181.65234375 -8.05859375 m 0
 104.82421875 2.716796875 36.0546875 57.2060546875 48.947265625 148.319335938 c 0
 53.0146484375 178.821289062 86.9521484375 261 115.994140625 261 c 0
 148.896484375 261 172.858398438 159.296875 181.96875 137.014648438 c 1
 184.760742188 130.541992188 197.631835938 83 213.609375 83 c 0
 236.19140625 83 331.73046875 334.541015625 344.28515625 365.021484375 c 1
 364.784179688 413.280273438 380.341796875 462.375 396.861328125 511.41796875 c 1
 404.563476562 536.20703125 415.36328125 561.319335938 419.384765625 588.239257812 c 0
 420.245117188 594 l 1
 414.586914062 594 l 0
 368.065429688 594 317.067382812 580.825195312 271.844726562 560.57421875 c 1
 243.984375 547.7109375 213.530273438 538 185.453125 538 c 0
 169.75390625 538 160.12109375 558.41015625 162.938476562 576.256835938 c 1
 165.630859375 595.10546875 182.172851562 613.529296875 195.008789062 629.799804688 c 1
 233.850585938 676.635742188 270.819335938 689 324.29296875 689 c 0
 457.306640625 689 l 0
 470.025390625 689 496.198242188 687.013671875 524.397460938 682.846679688 c 0
 576.790039062 675.146484375 623.149414062 660.017578125 621.041992188 645.693359375 c 0
 614.19140625 596.759765625 588.368164062 535.899414062 568.423828125 490.028320312 c 1
 510.508789062 362.21484375 449.188476562 238.465820312 374.572265625 120.692382812 c 0
 329.833007812 48.5654296875 286.461914062 -10 208.754882812 -10 c 0
 199.712890625 -10 190.633789062 -9.3486328125 181.65234375 -8.05859375 c 0
EndSplineSet
EndChar

StartChar: J
Encoding: 74 74 29
Width: 424
Flags: HW
LayerCount: 2
Fore
SplineSet
264.418140843 666 m 1
 259.637486107 666 l 2
 257.618779947 666 253.900700423 662.111328125 253.900700423 660 c 0
 253.900700423 651.91015625 l 1
 256.469368622 653.252929688 258.021213969 653.939453125 261.297643162 655.653320312 c 1
 262.152932173 656.099609375 264.418140843 660 264.418140843 661 c 0
 264.418140843 666 l 1
200.357367375 29.08984375 m 1
 185.594294712 21.3701171875 l 1
 200.357367375 5.9287109375 l 1
 200.357367375 29.08984375 l 1
114.010742188 -50 m 0
 59.4736328125 -50 37.890625 52.8125 45.9609375 108.29296875 c 0
 53.79296875 164.098632812 89.349609375 232.73046875 139.5859375 261.712890625 c 1
 148.07421875 267.017578125 154.090820312 271 160.010742188 271 c 0
 169.155191725 271 170.072106364 257.494140625 167.90773963 242.780273438 c 0
 165.18967597 224.77734375 156.346679688 205.890625 151.204101562 187.377929688 c 1
 138.15234375 143.200195312 130.053710938 98.6533203125 124.072265625 54.78515625 c 1
 123.104492188 49.4658203125 122.026367188 43.1357421875 121.887695312 38.009765625 c 0
 121.796875 34.6611328125 121.572265625 25 130.010742188 25 c 0
 136.833007812 25 141.162109375 30.19921875 143.467773438 34.87890625 c 0
 201.992313946 155.1484375 240.291707692 284.307617188 277.591085574 411.2109375 c 0
 293.793956988 466.856445312 318.743932616 536.841796875 324.612373049 583.565429688 c 1
 325.112847842 585.688476562 326.743125805 597.430664062 317.005342944 597.430664062 c 0
 275.320274574 597.430664062 229.809748694 561.907226562 185.059272219 561.907226562 c 0
 181.829529107 561.907226562 178.540961532 562.111328125 175.339230069 562.5625 c 0
 158.369140625 564.921875 145.125976562 572.810546875 147.96875 593.724609375 c 1
 149.731445312 608.037109375 162.161132812 627.078125 171.778949501 642.241210938 c 1
 217.012160058 708.875 263.747728714 704 372.460937887 704 c 0
 387.584960938 704 407.973632812 703.240234375 428.002929688 700.61328125 c 0
 470.899414062 694.987304688 505.322265625 681.413085938 502.05859375 656.051757812 c 0
 497.20703125 620.649414062 479.37890625 580.264648438 467.29296875 544.540039062 c 1
 420.409179688 412.108398438 364.284337588 281.493164062 299.443906561 156.16796875 c 0
 261.616042237 84.203125 194.090227807 -50 114.010742188 -50 c 0
EndSplineSet
EndChar

StartChar: K
Encoding: 75 75 30
Width: 688
Flags: HW
LayerCount: 2
Fore
SplineSet
358.426926174 61.173828125 m 1
 316.070516893 122.28515625 331.230440936 316 317.087001606 316 c 0
 297.76707308 316 245.755498802 198.2421875 236.099373953 180.37890625 c 0
 203.600658728 119.259765625 172.676103021 62.6142578125 113.717773438 32.4384765625 c 1
 96.498046875 23.322265625 71.8583984375 10 56.0205078125 10 c 0
 36.9208984375 10 26.322265625 21.9912109375 28.9755859375 42.330078125 c 0
 33.7998046875 78.033203125 53.4931640625 113.723632812 68.646484375 151.102539062 c 0
 125.671875 290.163085938 181.043144802 431.997070312 246.802698823 566.8046875 c 0
 289.228217547 655.140625 318.121723533 714 413.410206469 714 c 0
 419.495676801 714 425.837427982 713.7265625 431.838431219 712.884765625 c 0
 451.597012733 710.072265625 465.831638133 702.206054688 462.60173156 678.2109375 c 0
 456.953954362 636.455078125 419.894015948 571.432617188 397.16756783 520.461914062 c 1
 385.746272642 495.913085938 366.570322121 470.193359375 362.361365116 443.052734375 c 0
 361.451424126 437.181640625 l 1
 368.197273574 437.181640625 l 0
 374.414243818 437.181640625 386.39609337 450.814453125 392.356782765 456.96484375 c 1
 468.468355326 539.568359375 615.499653596 699.819335938 723.020507812 699.819335938 c 0
 726.263671875 699.819335938 729.381835938 699.678710938 732.271484375 699.346679688 c 0
 746.279296875 697.739257812 754.14453125 693.028320312 752.063476562 676.147460938 c 1
 738.6640625 579.095703125 568.433243854 507.387695312 480.335022475 442.318359375 c 0
 480.00579277 442.075195312 l 1
 479.720716321 441.780273438 l 0
 475.062547942 436.975585938 474.49719431 429.768554688 474.341698065 427.356445312 c 1
 469.378296316 389.439453125 478.409556625 354.884765625 484.262742443 323.684570312 c 1
 499.120312677 239.890625 527.978304089 172.03515625 577.717905452 109.4296875 c 1
 592.300957623 91.8759765625 631.137584615 73.3369140625 629.686286328 60.611328125 c 1
 626.49189433 37.5380859375 544.775737973 -5.119140625 526.366710289 -9.1171875 c 1
 513.844463292 -12.0576171875 503.592269503 -13 492.041394111 -13 c 0
 435.745994267 -13 389.106719272 15.9033203125 358.426926174 61.173828125 c 1
EndSplineSet
EndChar

StartChar: L
Encoding: 76 76 31
Width: 375
Flags: HW
LayerCount: 2
Fore
SplineSet
84.8232421875 7.66015625 m 0
 52.4365234375 11.94921875 21.18359375 24.9501953125 25.9443359375 60.3212890625 c 0
 36.7587890625 137.989257812 223.712809613 632.193359375 276.021793333 668.807617188 c 1
 308.742920453 690.9453125 353.47265625 697 390.991210938 697 c 0
 398.306640625 697 405.494140625 696.979492188 411.747070312 696.09375 c 0
 427.545898438 693.856445312 438.827148438 687.524414062 434.041015625 654.70703125 c 0
 422.279296875 572.375976562 363.819335938 487.809570312 323.551757812 411.301757812 c 1
 278.664862872 319.229492188 237.092311664 232.190429688 197.359580319 137.021484375 c 0
 196.844061871 135.788085938 l 1
 196.985160838 134.448242188 l 0
 198.350039735 121.44140625 209.262615401 120 215.843545001 120 c 0
 218.313238031 120 228.580262868 121 230.953123274 121 c 0
 231.440053043 121 l 1
 341.502929688 144.999023438 l 1
 353.702148438 144.778320312 356.598632812 142.385742188 355.0390625 130.693359375 c 0
 348.427734375 83.470703125 279.909853758 14.783203125 230.574092716 10.984375 c 1
 198.59534905 7.99609375 150.548845236 6 110.991210938 6 c 0
 103.360351562 6 94.2216796875 6.4150390625 84.8232421875 7.66015625 c 0
EndSplineSet
EndChar

StartChar: M
Encoding: 77 77 32
Width: 1056
Flags: HW
LayerCount: 2
Fore
SplineSet
421.391720967 441 m 1
 416.455531559 441 l 2
 400.785058388 441 327.186667136 293.608398438 287.794525921 224.510742188 c 0
 234.100932816 130.842773438 164.900763454 6 48.96875 6 c 0
 36.44140625 6 22.7509765625 12.2841796875 24.91015625 25.2353515625 c 0
 26.5068359375 36.412109375 42.0078125 48.794921875 50.8486328125 59.8466796875 c 0
 173.686602141 209.104492188 269.892162422 381.803710938 369.201158973 547.176757812 c 1
 385.897434006 569.396484375 411.082605081 602.682617188 414.437671319 625.336914062 c 0
 416.849848252 646.104492188 394.374760854 665.427734375 394.699662384 668.393554688 c 0
 397.775139769 691.755859375 467.591368707 698 487.536659034 698 c 0
 519.595859499 698 553.841637616 690.061523438 571.214710493 661.349609375 c 0
 589.806405131 631.21875 590.206506421 580.032226562 591.196636601 542.90234375 c 0
 591.686399144 501.24609375 588.728541897 432.618164062 588.728541897 374.5 c 0
 588.728541897 320.258789062 588.617670455 264 608.966918469 264 c 0
 629.117561988 264 657.211421236 344.221679688 668.579118366 364.592773438 c 0
 708.014644058 439.490234375 754.294312056 513.295898438 798.75279611 585.349609375 c 0
 813.621138503 609.447265625 827.29978212 633.141601562 845.6196007 653.650390625 c 0
 880.388884842 692.676757812 942.100585938 698 983.96875 698 c 0
 988.087890625 698 992.030273438 697.864257812 995.564453125 697.419921875 c 0
 1008.12597656 695.842773438 1015.8046875 691.90234375 1013.02050781 671.721679688 c 0
 1006.05664062 623.966796875 995.06640625 576.034179688 988.015625 527.685546875 c 0
 970.047851562 397.920898438 948.321289062 237.557617188 1014.75 133.315429688 c 0
 1022.92089844 120.474609375 1040.45605469 105.340820312 1038.0234375 90.7412109375 c 0
 1034.58105469 64.9248046875 953.642578125 9 921.96875 9 c 0
 888.840181004 9 861.512780854 23.259765625 840.486734995 44.55859375 c 0
 764.732617275 119.348632812 784.600779642 231.694335938 794.548358218 346.563476562 c 2
 794.567640208 346.78125 l 1
 794.567640208 347 l 2
 794.567640208 366.3671875 800.485282901 393.706054688 796.142978781 403.969726562 c 2
 794.860726454 407 l 1
 791.605926563 407 l 2
 785.596694419 407 782.654262764 402.8515625 781.458779392 400.588867188 c 2
 577.300106498 58.921875 l 1
 555.257899773 32.1240234375 539.239386684 4 510.24313031 4 c 0
 488.526789214 4 475.637743082 29.28515625 465.260176132 50.3095703125 c 0
 427.426983798 121.057617188 421.393649166 214.163085938 422.37799475 302.893554688 c 0
 423.349807039 334.399414062 428.339021919 368.572265625 426.315377082 400.352539062 c 0
 425.257759937 414.274414062 421.391720967 425.120117188 421.391720967 436 c 2
 421.391720967 441 l 1
454.957808941 266 m 0
 450.655997 266 447.059905889 262.356445312 447.059905889 258 c 0
 447.059905889 253.6796875 449.937742878 252.013671875 451.466804675 250.46484375 c 2
 454.957808941 246.928710938 l 1
 458.447849109 250.46484375 l 2
 460.988251275 253.037109375 460.858097843 256.392578125 460.92076431 257.974609375 c 1
 460.92076431 257.974609375 461.794238452 266 454.957808941 266 c 0
450.021619534 478 m 1
 445.085430126 478 l 2
 443.000082921 478 439.162002836 474.111328125 439.162002836 472 c 2
 439.162002836 463.91015625 l 1
 441.813276444 465.252929688 443.415609802 465.939453125 446.798634926 467.653320312 c 0
 447.681750062 468.099609375 450.021619534 472 450.021619534 473 c 2
 450.021619534 478 l 1
490.840627999 280.736328125 m 0
 490.783746129 280.850585938 490.670946488 280.990234375 490.51476237 281.145507812 c 0
 489.675031711 282.84765625 488.846870246 284.525390625 488.030277975 286.180664062 c 1
 486.759594842 283.607421875 l 2
 486.244765712 283.848632812 485.81188504 284 485.562183271 284 c 2
 480.625993863 284 l 1
 480.625993863 272 l 1
 485.562183271 272 l 2
 487.616679292 272 491.375703218 275.778320312 491.482718262 277.908203125 c 1
 494.679672183 279.528320312 l 2
 496.413123073 280.405273438 501.357989376 282.953125 501.357989376 289 c 2
 501.357989376 297.08984375 l 1
 494.214012128 293.471679688 l 2
 490.43859851 291.560546875 489.002090264 288.161132812 488.090052143 286.302734375 c 1
 489.832179928 282.77734375 490.840627999 280.736328125 490.840627999 280.736328125 c 0
491.48561056 279.180664062 m 2
 491.159744931 279.838867188 490.836771601 280.494140625 490.51476237 281.145507812 c 0
 489.764692964 281.893554688 488.017744681 283.017578125 486.759594842 283.607421875 c 1
 481.434873338 272.819335938 l 1
 491.482718262 277.908203125 l 2
 491.482718262 277.939453125 491.48561056 277.969726562 491.48561056 278 c 2
 491.48561056 279.180664062 l 2
EndSplineSet
EndChar

StartChar: N
Encoding: 78 78 33
Width: 788
Flags: HW
LayerCount: 2
Fore
SplineSet
42.0244140625 -10 m 0
 28.7001953125 -10 21.4345703125 -2.8505859375 23.9697265625 12.5732421875 c 0
 25.72265625 25.904296875 35.650390625 36.0673828125 44.2060546875 49.08203125 c 1
 102.49609375 140.809570312 146.438449296 235.163085938 193.654744907 330.506835938 c 1
 237.891749027 423.765625 286.046396599 514.958007812 330.37848449 608.416015625 c 0
 330.732887637 609.163085938 l 1
 330.837575829 609.98828125 l 0
 334.515108749 639.060546875 299.271684746 645.5078125 301.318386927 659.576171875 c 0
 305.273487623 686.490234375 409.429594981 708 438.079583754 708 c 0
 508.24180232 708 511.845381196 668.630859375 518.771129404 617.3203125 c 0
 518.8325977 616.869140625 l 1
 518.972822252 616.436523438 l 0
 544.923968636 536.297851562 530.008302339 399.564453125 577.415725934 316.490234375 c 0
 578.640289651 314.345703125 l 1
 581.059643379 314.0390625 l 0
 591.181743 312.751953125 595.626669183 318.272460938 599.529906004 324.2265625 c 0
 599.761372557 324.579101562 l 1
 599.930410373 324.965820312 l 0
 661.076958654 464.600585938 704.99701687 702 843.024414062 702 c 0
 859.12109375 702 861.10546875 691.920898438 858.0703125 670.6796875 c 1
 853.205078125 633.701171875 836.537109375 600.2109375 820.486328125 565.099609375 c 0
 758.547851562 431.232421875 697.222237818 310.166992188 635.227619135 171.088867188 c 1
 627.427868588 154.09375 574.236662479 8 517.742495882 8 c 0
 472.086918734 8 422.716351423 177.151367188 412.35414127 218.2421875 c 1
 401.702838035 274.364257812 393.559249205 309.840820312 386.912989657 341.64453125 c 1
 385.9496662 360.229492188 379.425382803 450 364.317628079 450 c 0
 343.453943664 450 267.179471375 238.801757812 248.711129634 196.5703125 c 0
 206.224051078 100.034179688 150.087168953 -10 42.0244140625 -10 c 0
EndSplineSet
EndChar

StartChar: O
Encoding: 79 79 34
Width: 624
Flags: HW
LayerCount: 2
Fore
SplineSet
232.141601562 -6.9541015625 m 0
 124.37890625 8.3154296875 35.0361328125 79.609375 53.958984375 217.428710938 c 0
 87.6279296875 460.455078125 341.5859375 712 559.006835938 712 c 0
 563.377929688 712 569.55078125 711.89453125 575.7265625 711.09375 c 0
 590.072265625 709.203125 599.416015625 704.5703125 598.057617188 694.448242188 c 0
 593.831054688 666.099609375 520.204101562 637.963867188 495.668945312 629.430664062 c 0
 471.380859375 620.307617188 457.395507812 616.123046875 432.69921875 602.723632812 c 0
 374.509765625 571.3203125 297.500976562 471.296875 271.719726562 407.153320312 c 0
 256.890625 371.05078125 249.013671875 335.02734375 244.1015625 298.125976562 c 0
 241.11328125 275.048828125 238.111328125 246.107421875 238.047851562 216.905273438 c 0
 237.907226562 151.561523438 252.903320312 80 321.967773438 80 c 0
 408.270507812 80 496.111328125 221.369140625 509.875976562 319.29296875 c 0
 515.821289062 362.03125 511.822265625 401.94921875 498.982421875 442.515625 c 0
 491.633789062 466.233398438 475.159179688 486.666992188 478.70703125 511.2578125 c 0
 483.958984375 547.211914062 578.553710938 611 609.006835938 611 c 0
 612.291015625 611 615.392578125 610.725585938 618.318359375 610.1953125 c 1
 616.298828125 609.247070312 614.006835938 607.48046875 614.006835938 605 c 2
 614.006835938 600 l 1
 619.006835938 600 l 1
 619.006835938 600 626.006835938 599.40234375 626.006835938 606 c 2
 626.006835938 608.081054688 l 1
 674.75 589.672851562 665.641601562 488.645507812 658.053710938 432.680664062 c 0
 636.224609375 273.926757812 543.830078125 107.458984375 403.4609375 32.4287109375 c 0
 362.674804688 10.4921875 318.529296875 -10 276.1953125 -10 c 0
 261.318359375 -10 246.557617188 -8.9912109375 232.141601562 -6.9541015625 c 0
618.318359375 615.1953125 m 1
 621.028320312 614.704101562 623.588867188 613.994140625 626.006835938 613.081054688 c 1
 626.006835938 616 l 1
 621.006835938 616 l 2
 620.495117188 616 619.44921875 615.725585938 618.318359375 615.1953125 c 1
EndSplineSet
EndChar

StartChar: P
Encoding: 80 80 35
Width: 576
Flags: HW
LayerCount: 2
Fore
SplineSet
61.083984375 -10 m 0
 34.689453125 -10 32.9208984375 14.53125 37.029296875 42.265625 c 0
 43.8056640625 87.7646484375 74.4453125 136.458007812 92.716796875 181.119140625 c 0
 133.6796875 282.030273438 177.037623009 381.942382812 222.724686059 480.85546875 c 0
 222.820647323 481.063476562 l 1
 222.897606357 481.278320312 l 0
 233.196815347 510.151367188 265.611770429 556.0078125 269.837866516 584.239257812 c 1
 270.692966894 587.754882812 270.639760648 600 260.165731137 600 c 0
 258.583795439 600 l 1
 257.303995207 599.043945312 l 0
 248.250382434 592.275390625 202.036957596 578 191.088822432 578 c 0
 184.667968709 578 179.45375663 588.77734375 181.298873222 599.209960938 c 1
 193.187618802 687.56640625 342.208811898 693 406.102862205 693 c 0
 423.797739347 693 441.565775077 691.818359375 458.922412514 689.323242188 c 0
 561.809570312 674.717773438 650.422851562 616.221679688 632.1328125 485.702148438 c 0
 612.439453125 346.859375 459.194144411 185 332.161382464 185 c 0
 327.574243995 185 321.097333692 185.013671875 314.815196253 185.952148438 c 0
 301.963037582 187.872070312 293.190657822 192.255859375 295.143137017 205.299804688 c 1
 298.587291314 232.739257812 330.151896577 240.451171875 351.599714264 256.985351562 c 1
 414.289973262 304.3046875 451.591351945 349.857421875 462.482480418 432.29296875 c 0
 468.348469007 474.498046875 468.697159938 518.4765625 441.947719912 550.200195312 c 1
 438.37055 554.796875 432.686032714 564 426.534060554 564 c 0
 422.725063429 564 419.433877088 561.774414062 417.25622146 559.53515625 c 0
 416.77831536 559.043945312 l 1
 416.448626659 558.436523438 l 0
 369.30979319 471.62890625 354.772136664 395.682617188 301.574441966 290.302734375 c 0
 301.484181371 290.124023438 l 1
 301.408172448 289.9375 l 0
 264.975195704 200.874023438 247.508345329 91.44921875 172.54359547 31.9541015625 c 0
 142.908203125 8.6396484375 94.5009765625 -10 61.083984375 -10 c 0
EndSplineSet
EndChar

StartChar: Q
Encoding: 81 81 36
Width: 672
Flags: HW
LayerCount: 2
Fore
SplineSet
225.548828125 -7.6455078125 m 0
 114.868164062 7.912109375 40.2431640625 98.0517578125 58.96484375 233.66796875 c 0
 77.7373046875 370.935546875 162.939453125 495.8203125 263.188476562 590.616210938 c 0
 333.15234375 656.366210938 482.8984375 711 568.208984375 711 c 0
 576.408203125 711 587.608398438 711.256835938 597.814453125 709.805664062 c 0
 615.017578125 707.327148438 626.598632812 701.333984375 624.065429688 683.352539062 c 0
 617.838867188 640.051757812 518.388671875 623.499023438 487.479492188 611.3125 c 1
 360.4921875 562.842773438 269.9375 420.2109375 251.182617188 283.745117188 c 0
 249.864257812 273.778320312 249.13671875 263.70703125 249.0234375 253.692382812 c 0
 248.193359375 180.541992188 280.46875 109.23828125 356.41015625 108.622070312 c 1
 356.41015625 108.622070312 407.143554688 102.88671875 411.083007812 130.18359375 c 0
 414.600585938 154.55859375 381.4296875 195.359375 367.626953125 208.682617188 c 0
 367.520507812 208.78515625 l 1
 367.408203125 208.880859375 l 0
 348.641601562 224.947265625 328.676757812 224.522460938 320.557617188 242.149414062 c 1
 326.828125 279.959960938 355.96875 284.069335938 387.721679688 284.069335938 c 0
 415.865234375 284.069335938 440.27734375 274.369140625 463.185546875 259.486328125 c 0
 469 255.708984375 493.787109375 223.221679688 503.819335938 223.221679688 c 0
 506.3515625 223.221679688 l 1
 507.80859375 225.374023438 l 0
 527.09765625 253.866210938 533.028320312 286.305664062 536.948242188 317.893554688 c 0
 542.873046875 365.100585938 539.891601562 405.739257812 524.989257812 447.047851562 c 0
 516.5390625 471.203125 495.416992188 497.174804688 498.890625 520.645507812 c 0
 506.157226562 572.571289062 580.772460938 615.688476562 625.012695312 615.688476562 c 0
 628.698242188 615.688476562 632.18359375 615.459960938 635.479492188 615.021484375 c 0
 700.34765625 606.407226562 700.801757812 512.008789062 692.05859375 445.998046875 c 0
 678.240234375 342.895507812 623.819335938 247.331054688 557.62109375 165.60546875 c 0
 556.72265625 164.475585938 l 1
 556.54296875 163.022460938 l 0
 552.208007812 128.102539062 643.244140625 107.837890625 654.646484375 101.662109375 c 1
 647.66015625 60.8466796875 615.206054688 -8 563.331054688 -8 c 0
 539 -8 518.654296875 -0.4609375 498.646484375 13.2109375 c 1
 488.426757812 19.6572265625 462.141601562 60 450.16015625 60 c 0
 444.581054688 60 387.510742188 24.4951171875 380.6640625 20.4814453125 c 1
 338.811523438 2.16796875 300.9296875 -10 259.916992188 -10 c 0
 248.11328125 -10 236.638671875 -9.203125 225.548828125 -7.6455078125 c 0
EndSplineSet
EndChar

StartChar: R
Encoding: 82 82 37
Width: 635
Flags: HW
LayerCount: 2
Fore
SplineSet
473.580161244 -14 m 0
 358.429221094 3.0439453125 306.488229775 234.2109375 312.888731033 279.948242188 c 0
 313.071548088 281.333984375 313.477173428 282.736328125 314.129411358 284.178710938 c 0
 324.390970724 306.893554688 390.011819464 325.3984375 417.540068777 349.987304688 c 1
 460.475415808 389.528320312 489.190071632 447.342773438 497.172130848 504.529296875 c 0
 498.011946693 510.947265625 498.461371953 517.700195312 498.486128429 524.588867188 c 0
 498.63657163 566.4375 482.596279426 618 436.765376856 618 c 0
 410.678716193 618 389.958497823 520.525390625 382.544885386 501.9375 c 0
 354.372015521 433.189453125 324.886100247 364.5859375 296.867482272 296.243164062 c 1
 269.383032878 247.5546875 245.560637611 120.086914062 179.921697601 57.6455078125 c 1
 161.602857418 39.7958984375 96.8037109375 10 69.0234375 10 c 0
 45.0458984375 10 30.3046875 25.859375 33.9775390625 54.326171875 c 1
 40.8076171875 102.133789062 65.5400390625 152.84765625 86.6318359375 202.060546875 c 1
 124.59375 293.969726562 168.126188885 384.776367188 210.10650724 475.89453125 c 0
 222.397145479 503.045898438 257.03526431 552.16796875 261.218156608 584.338867188 c 1
 261.218156608 584.338867188 266.281808154 599 255.410858605 599 c 0
 239.545766078 599 224.736632476 593 213.484814063 593 c 0
 197.675899693 593 191.382993889 600.713867188 193.929102244 617.249023438 c 1
 205.823636865 700.76953125 330.051634215 706 394.839332314 706 c 0
 444.612227625 706 505.304633266 705.705078125 547.637695312 682.276367188 c 0
 616.818359375 644.193359375 674.677734375 582.096679688 662.071289062 488.6796875 c 0
 647.418945312 382.6875 567.368164062 316.963867188 478.020140025 283.8515625 c 0
 476.991794093 283.467773438 l 1
 476.218630299 282.6640625 l 0
 474.646594063 281.028320312 472.514680597 278.017578125 472.070016199 276.81640625 c 1
 468.201340713 249.991210938 506.059705788 215.118164062 519.315846598 203.30078125 c 1
 533.480359647 189.55078125 611.012695312 143.676757812 623.4921875 131.552734375 c 1
 600.0546875 69.4423828125 553.920898438 -15 487.466640023 -15 c 0
 482.729583528 -15 478.102979003 -14.658203125 473.580161244 -14 c 0
EndSplineSet
EndChar

StartChar: S
Encoding: 83 83 38
Width: 484
Flags: HW
LayerCount: 2
Fore
SplineSet
57.298828125 95.5771484375 m 1
 47.2109375 111.716796875 38.19140625 127.118164062 40.9677734375 149.329101562 c 0
 47.416015625 193.546875 118.072265625 237 157.012695312 237 c 0
 199.409964968 237 190.060898668 172.13671875 198.674454923 131.891601562 c 0
 203.562492907 109.557617188 220.322152102 75 247.673344054 75 c 0
 280.058359229 75 290.991311611 112.033203125 294.811825425 137.225585938 c 1
 315.783267204 291.024414062 131.622070312 330.025390625 153.963867188 492.857421875 c 0
 172.054070266 625.66015625 310.206746672 712 415.256768307 712 c 0
 425.307617188 712 435.448242188 711.345703125 445.223632812 709.98046875 c 0
 505.139648438 701.614257812 550.791015625 667.627929688 540.061523438 591.6953125 c 0
 532.3203125 536.536132812 496.485351562 493.58984375 451.916015625 458.92578125 c 1
 441.556640625 450.638671875 428.263671875 440 418.14613769 440 c 0
 410.285961929 440 409.370806847 440.8046875 408.548766209 446.935546875 c 1
 411.545358284 469.94140625 418.052082697 491.909179688 420.996944527 516.364257812 c 0
 422.102539062 525.180664062 422.776367188 535.58203125 422.79296875 546.508789062 c 0
 422.849609375 583.014648438 416.344984575 634 385.399951342 634 c 0
 361.233461451 634 340.103066734 575.243164062 336.330520966 548.387695312 c 0
 326.355048413 475.79296875 363.744729763 434.303710938 402.099415342 390.818359375 c 0
 440.500976562 348.0703125 464.823242188 288.713867188 455.059570312 221.274414062 c 0
 439.34765625 105.561523438 334.123050281 -10 229.374004624 -10 c 0
 159.008789062 -10 93.59375 32.796875 57.298828125 95.5771484375 c 1
EndSplineSet
EndChar

StartChar: T
Encoding: 84 84 39
Width: 452
Flags: HW
LayerCount: 2
Fore
SplineSet
115.993164062 -12 m 0
 92.6650390625 -12 73.693359375 7.3671875 68 30.5498046875 c 1
 68.1923828125 37.5029296875 70.044921875 62.0048828125 70.943359375 68.29296875 c 0
 70.9677734375 68.4677734375 l 1
 70.98046875 68.6435546875 l 0
 71.8525390625 80.8505859375 83.51953125 105.840820312 88.681640625 119.26171875 c 1
 118.625 203.103515625 156.509765625 285.850585938 197.04258874 366.720703125 c 0
 216.774508596 406.951171875 258.452707162 477.525390625 273.589458345 520.444335938 c 1
 274.120605233 521.276367188 275.131467531 524 275.131467531 525 c 0
 275.131467531 527.5859375 272.968540152 533 267.470982841 533 c 0
 267.09974109 533 l 1
 266.73223981 532.940429688 l 0
 236.312859075 527.9765625 203.983032755 525 171.993164062 525 c 0
 164.705078125 525 157.182617188 525.301757812 150.041992188 526.244140625 c 0
 125.360351562 529.501953125 106.779296875 539.064453125 110.947265625 570.32421875 c 0
 116.49609375 611.01171875 183.038085938 668.838867188 217.530083746 683.352539062 c 1
 233.767468532 689.947265625 251.356098481 691 269.386104013 691 c 0
 318.730397977 691 367.525777816 684.021484375 416.659179688 681.010742188 c 1
 434.658203125 679.661132812 461.591796875 681.204101562 485.110351562 678.009765625 c 0
 515.661132812 673.859375 537.5390625 663.171875 533.043945312 630.70703125 c 0
 522.524414062 557.071289062 478.032226562 560.25390625 422.4921875 542.76953125 c 0
 419.383789062 541.791015625 l 1
 419.024414062 538.551757812 l 0
 417.900390625 528.436523438 419.908203125 522.399414062 419.024414062 513.55859375 c 1
 415.241210938 483.291992188 396.357328595 452.44921875 383.702379948 419.91796875 c 1
 353.956284 346.766601562 329.955551569 271.576171875 304.147236509 196.708984375 c 0
 273.346327727 108.25390625 255.834377434 44.595703125 175.880859375 6.5322265625 c 1
 156.900390625 -2.458984375 134.442382812 -12 115.993164062 -12 c 0
EndSplineSet
EndChar

StartChar: U
Encoding: 85 85 40
Width: 605
Flags: HW
LayerCount: 2
Fore
SplineSet
403.329653435 212.868164062 m 1
 403.329653435 213 l 2
 403.329653435 220.201171875 395.462787925 221 393.60528081 221 c 0
 388.411668126 221 387.098308035 216.897460938 385.444025114 214.1484375 c 1
 321.490131131 126.708007812 244.63814838 9 138.024414062 9 c 0
 133.131835938 9 128.459960938 9.3095703125 124.001953125 9.9052734375 c 0
 64.7265625 17.8212890625 39.8310546875 77.462890625 48.9736328125 143.29296875 c 0
 68.7939453125 282.032226562 157.532226562 469.829101562 222.872267467 595.676757812 c 1
 265.433491322 680.228515625 277.169213675 695 373.184098299 695 c 0
 376.738622394 695 380.075677609 694.763671875 383.16487528 694.296875 c 0
 403.382833597 691.24609375 414.090089588 679.212890625 410.187045497 652.721679688 c 0
 403.635439371 606.518554688 370.056914798 560.826171875 350.283390698 515.07421875 c 0
 320.048568861 446.872070312 293.804158524 377.890625 267.492323338 307.741210938 c 1
 257.845821667 279.965820312 244.030375091 249.69140625 240.0152728 219.752929688 c 1
 239.643011661 217.459960938 238.712358812 213.62109375 238.530026825 209.904296875 c 0
 238.334399798 205.900390625 239.778811005 198 247.739691445 198 c 0
 285.616312746 198 428.469625748 417.25 450.143391021 450.198242188 c 0
 450.217463391 450.310546875 l 1
 450.285837886 450.427734375 l 0
 452.905910549 454.916992188 476.246304139 487.921875 479.458955759 493.427734375 c 1
 516.647083881 547.771484375 543.544921875 600 604.024414062 600 c 0
 607.905273438 600 611.516601562 599.755859375 614.810546875 599.259765625 c 0
 633.30078125 596.474609375 643.009765625 586.6796875 639.075195312 560.71484375 c 1
 628.15234375 481.272460938 601.1640625 402.366210938 590.067382812 320.654296875 c 0
 583.051757812 267.537109375 578.010742188 213.239257812 580.026367188 162.831054688 c 1
 581.040039062 126.344726562 587.907226562 90.5400390625 583.079101562 56.7421875 c 0
 577.87890625 22.0732421875 509.66148964 6 479.179759904 6 c 0
 453.564015064 6 437.37160514 23.9912109375 421.836350085 45.95703125 c 0
 391.345123892 88.71484375 400.370557234 155.059570312 403.323005914 212.737304688 c 0
 403.329653435 212.868164062 l 1
EndSplineSet
EndChar

StartChar: V
Encoding: 86 86 41
Width: 538
Flags: HW
LayerCount: 2
Fore
SplineSet
94.439453125 375.282226562 m 1
 95.7998046875 383.239257812 100.506835938 454.856445312 103.434570312 476.325195312 c 0
 117.473632812 579.616210938 122.756835938 631.423828125 215.238777837 672.411132812 c 1
 240.251990763 683.364257812 261.848907521 692 285.779963114 692 c 0
 303.335064688 692 316.637014335 684.557617188 318.594709599 667.112304688 c 1
 302.073648511 545.80859375 275.225391109 424.889648438 258.776977026 302.70703125 c 0
 256.194706214 283.999023438 250.509370476 246.75 250.430119197 215.760742188 c 0
 250.366906868 190.930664062 253.318073511 163 273.220522466 163 c 0
 275.599004277 163 l 1
 277.049113974 164.951171875 l 0
 315.953000328 217.30078125 347.994103383 274.6015625 375.164083235 333.86328125 c 0
 425.9122618 444.98046875 441.123789863 557.532226562 532.786132812 638.249023438 c 1
 542.987304688 647.4296875 582.920898438 681 602.48046875 681 c 0
 615.619140625 681 614.844726562 662.063476562 612.528320312 644.689453125 c 0
 590.818359375 488.77734375 385.629969287 128.607421875 268.172970823 24.8212890625 c 0
 238.927362257 -0.7197265625 181.94140625 -9 148.48046875 -9 c 0
 70.994140625 -9 89.181640625 307.771484375 94.439453125 375.282226562 c 1
EndSplineSet
EndChar

StartChar: W
Encoding: 87 87 42
Width: 816
Flags: HW
LayerCount: 2
Fore
SplineSet
402.084565205 289.44921875 m 1
 397.610482906 288.934570312 l 2
 382.834022885 287.236328125 296.215214116 143.780273438 259.872046984 100.247070312 c 0
 219.301279685 51.8837890625 174.747070312 -1 116.840820312 -1 c 0
 72.134765625 -1 74.7001953125 92.07421875 76.833984375 139.158203125 c 0
 81.833984375 233.768554688 86.830078125 328.204101562 99.794921875 422.548828125 c 0
 121.87890625 585.9296875 129.331054688 650.325195312 235.674598661 686.959960938 c 0
 260.117570042 695.061523438 288.318195111 704 311.728243312 704 c 0
 328.064158384 704 334.092900364 694.721679688 331.419959878 676.3203125 c 0
 329.658140117 663.583984375 321.115664009 648.653320312 315.929948469 633.66015625 c 0
 296.154792426 573.418945312 282.370015385 510.318359375 270.582031344 448.436523438 c 1
 254.894450599 373.512695312 239.125348525 298.1953125 229.282367465 223.994140625 c 0
 228.269584848 216.674804688 229.660242798 206.03515625 241.017602411 206.03515625 c 2
 243.161133802 206.03515625 l 1
 244.617967889 207.658203125 l 2
 358.397765025 334.350585938 411.53624389 487.86328125 500.382023528 617.924804688 c 0
 545.577447815 684.458007812 592.501124257 696.900390625 650.550064296 696.900390625 c 0
 654.455415448 696.900390625 657.921510503 696.65625 660.956022057 696.189453125 c 0
 678.519552422 693.48828125 683.228607962 684.388671875 680.075171177 663.220703125 c 0
 677.353317894 646.354492188 665.838670071 624.224609375 658.800022697 607.611328125 c 0
 640.340716797 562.856445312 622.346562004 517.200195312 606.437435061 470.854492188 c 1
 623.636517137 435.375976562 666.133105927 347.655273438 695.413648824 287.2109375 c 1
 706.701955076 326.450195312 714.074360358 361.659179688 716.308044748 378.791015625 c 0
 720.250799803 409.333007812 725.18140154 463.217773438 731.019287705 505.421875 c 0
 733.032384971 516.8515625 734.154502076 530.31640625 740.135290333 540.022460938 c 2
 740.28778317 540.26953125 l 1
 740.4105447 540.532226562 l 2
 756.215820312 573.740234375 816.41796875 648.219726562 846.840820312 648.219726562 c 0
 869.778320312 648.219726562 865.38671875 588.662109375 859.887695312 548.504882812 c 0
 852.876953125 496.704101562 846.909179688 447.30859375 833.990234375 396.91796875 c 0
 817.165039062 328.66015625 782.368164062 253.953125 748.475585938 193.293945312 c 0
 701.51911676 106.5546875 595.044589693 -11 503.236229085 -11 c 0
 450.514947605 -11 423.06527783 18.111328125 409.448338817 59.0400390625 c 1
 451.937255012 80.669921875 502.059444738 106.1875 560.695338339 136.0390625 c 1
 566.852596295 122.875 576.553634336 114 591.624530212 114 c 0
 617.030412339 114 640.450051284 145.841796875 660.000783906 187.84765625 c 1
 674.673663886 195.446289062 689.766618474 203.263671875 705.28827934 211.301757812 c 0
 706.166791535 211.756835938 708.493506145 215.724609375 708.493506145 216.741210938 c 2
 708.493506145 218.848632812 l 1
 704.635149641 222.844726562 l 1
 702.600952737 222.844726562 l 2
 696.595228544 222.844726562 696.881991804 218.299804688 696.881991804 218.299804688 c 1
 696.708399328 217.942382812 l 1
 696.708399328 216.741210938 l 2
 696.708399328 210.54296875 701.137405129 210.795898438 701.137405129 210.795898438 c 1
 702.600952737 210.037109375 l 1
 702.600952737 210.037109375 686.491379234 201.692382812 660.075591713 188.008789062 c 1
 668.634372087 206.41796875 676.450828838 226.772460938 683.365755608 247.25 c 1
 691.392249663 251.407226562 699.556850439 255.635742188 707.863394233 259.9375 c 0
 707.848049042 259.969726562 707.832703851 260.002929688 707.816399585 260.03515625 c 1
 700.465093941 256.2265625 692.286107049 251.990234375 683.414668405 247.39453125 c 1
 687.771743622 260.305664062 691.77108407 273.264648438 695.373367697 285.813476562 c 1
 645.628094229 388.869140625 618.425865661 445.233398438 606.424967093 470.114257812 c 1
 583.366899215 402.735351562 564.692760638 333.903320312 555.338907547 264.265625 c 0
 553.454326256 251.384765625 550.707537037 227.23828125 550.639442752 202.137695312 c 0
 550.619302188 194.66015625 550.821666897 186.811523438 551.408620459 179.010742188 c 1
 500.263098297 152.590820312 446.593292187 124.866210938 400.306441179 100.955078125 c 1
 393.095160404 157.958007812 400.633485566 224.262695312 403.056107621 269.35546875 c 2
 403.062821142 269.497070312 l 1
 403.062821142 274.724609375 l 2
 403.062821142 274.950195312 404.097662472 279.02734375 402.967872772 284.876953125 c 2
 402.084565205 289.44921875 l 1
754.840820312 290 m 2
 754.840820312 292.071289062 l 1
 750.912109375 296 l 1
 748.840820312 296 l 2
 742.753563576 296 743.040326836 291.532226562 743.040326836 291.532226562 c 1
 742.866734361 291.180664062 l 1
 742.866734361 290 l 2
 742.866734361 283.90625 747.350585938 284.155273438 747.350585938 284.155273438 c 1
 748.840820312 283.41015625 l 1
 748.840820312 283.41015625 733.275989881 275.525390625 707.908470732 262.606445312 c 1
 707.923815923 262.57421875 707.940120189 262.54296875 707.95546538 262.510742188 c 0
 722.043309946 269.682617188 736.537802079 277.0625 751.577148438 284.653320312 c 0
 752.471679688 285.099609375 754.840820312 289 754.840820312 290 c 2
485.628581295 326 m 1
 483.594384391 326 l 2
 477.588660197 326 477.875423457 321.532226562 477.875423457 321.532226562 c 1
 477.701830982 321.180664062 l 1
 477.701830982 320 l 2
 477.701830982 317.888671875 481.520865434 314 483.594384391 314 c 2
 485.628581295 314 l 1
 491.521134703 320 l 1
 485.628581295 326 l 1
232.178772298 578 m 1
 227.268311125 578 l 2
 225.194792168 578 221.375757716 574.111328125 221.375757716 572 c 2
 221.375757716 563.91015625 l 1
 224.014171523 565.252929688 225.608153255 565.939453125 228.973545493 567.653320312 c 0
 229.852057687 568.099609375 232.178772298 572 232.178772298 573 c 2
 232.178772298 578 l 1
560.655057212 141.125 m 0
 560.668484254 141.096679688 560.681911296 141.067382812 560.695338339 141.0390625 c 1
 591.418329205 156.6796875 624.477625427 173.510742188 660.000783906 191.595703125 c 0
 660.025719842 191.6484375 660.050655778 191.701171875 660.075591713 191.75390625 c 1
 634.719581457 178.841796875 599.868734167 161.094726562 560.655057212 141.125 c 0
409.42532103 64.109375 m 1
 220.294880813 -32.2099609375 64.86328125 -110.186523438 409.448338817 64.0400390625 c 0
 409.440666221 64.0634765625 409.432993626 64.0859375 409.42532103 64.109375 c 1
551.41533398 182.815429688 m 1
 552.578691285 167.688476562 555.242041027 152.745117188 560.655057212 141.125 c 1
 513.572174411 117.147460938 460.199681381 89.9677734375 409.42532103 64.109375 c 1
 405.128667503 77.041015625 402.212122107 91.150390625 400.315072849 105.893554688 c 1
 439.671651896 125.927734375 489.499405767 151.293945312 551.41533398 182.815429688 c 1
726.171166371 225.180664062 m 2
 725.848917356 225.836914062 725.527627416 226.4921875 725.206337476 227.145507812 c 0
 724.154232806 228.200195312 721.135066444 230 720.278612962 230 c 2
 717.244101409 230 l 1
 711.351548 218 l 1
 719.296520727 218 l 1
 719.296520727 218 726.171166371 217.40234375 726.171166371 224 c 2
 726.171166371 225.180664062 l 2
551.408620459 182.908203125 m 0
 551.408620459 182.876953125 551.41533398 182.846679688 551.41533398 182.815429688 c 1
 590.457336609 202.69140625 634.305261296 225.014648438 683.365755608 249.9921875 c 0
 683.382059874 250.0390625 683.398364139 250.0859375 683.414668405 250.133789062 c 1
 647.680513548 231.936523438 600.718474128 208.020507812 551.408620459 182.908203125 c 0
400.306441179 105.955078125 m 1
 271.213102331 40.2060546875 199.55585495 3.6962890625 400.315072849 105.893554688 c 0
 400.315072849 105.9140625 400.306441179 105.934570312 400.306441179 105.955078125 c 1
EndSplineSet
EndChar

StartChar: X
Encoding: 88 88 43
Width: 611
Flags: HW
LayerCount: 2
Fore
SplineSet
53.9482421875 -9 m 0
 33.8251953125 -9 34.591796875 21.5703125 37.900390625 45.056640625 c 0
 48.4580078125 122.920898438 123.56640625 153.301757812 178.26718884 191.680664062 c 0
 213.081405634 216.788085938 301.766684529 284.364257812 304.345232852 305.786132812 c 1
 305.535332079 316.912109375 299.643959466 327.600585938 297.222755992 332.583007812 c 1
 270.660084555 426.702148438 249.589225174 519.428710938 223.107610175 613.135742188 c 1
 219.307493655 624.974609375 216.566832455 641.504882812 208.77683199 653.0625 c 0
 208.639512848 653.266601562 l 1
 208.484075209 653.455078125 l 0
 201.039279807 662.474609375 185.892215614 674.036132812 187.150020806 681.874023438 c 1
 189.260349002 699.412109375 264.472140741 711 284.848775573 711 c 0
 408.348271262 711 405.930882208 456.46484375 438.157968232 456.46484375 c 0
 452.980806674 456.46484375 570.196998034 624.608398438 590.139648438 641.180664062 c 1
 614.299804688 661.76171875 647.283203125 674.493164062 676.948242188 674.493164062 c 0
 690.801757812 674.493164062 692.609375 674.084960938 690.9921875 660.96875 c 1
 685.391601562 621.20703125 636.466796875 570.66796875 610.185546875 539.916015625 c 0
 554.678981437 475.1171875 509.688844094 426.372070312 464.578552501 366.287109375 c 1
 462.254616752 363.873046875 460.160499844 362.111328125 459.427177484 354.767578125 c 1
 456.083837831 328.211914062 493.686396082 251.791015625 508.485394395 232.323242188 c 1
 518.985540695 217.454101562 537.178419736 190.536132812 552.627776761 175.244140625 c 1
 561.87774671 165.106445312 576.403320312 158.697265625 575.984375 154.872070312 c 1
 572.723632812 129.247070312 484.627147162 92.408203125 456.711310019 92.408203125 c 0
 396.113517195 92.408203125 352.652008906 140.754882812 335.438482354 203.322265625 c 0
 334.42670729 207 l 1
 321.02283331 207 l 1
 319.620080136 205.655273438 l 0
 281.567420254 169.176757812 234.634789221 124.5 212.2603516 103.284179688 c 1
 179.703318195 73.572265625 90.9931640625 -9 53.9482421875 -9 c 0
EndSplineSet
EndChar

StartChar: Y
Encoding: 89 89 44
Width: 658
Flags: HW
LayerCount: 2
Fore
SplineSet
141.822761341 -94 m 1
 136.922652139 -94 l 2
 134.853504465 -94 130.994140625 -97.888671875 130.994140625 -100 c 0
 130.994140625 -108.08984375 l 1
 133.675372741 -106.747070312 135.265994126 -106.060546875 138.624291624 -104.346679688 c 1
 139.500951786 -103.900390625 141.822761341 -100 141.822761341 -99 c 0
 141.822761341 -94 l 1
149.662936062 -107 m 1
 144.762826861 -107 l 2
 142.693679187 -107 138.88269582 -110.888671875 138.88269582 -113 c 0
 138.88269582 -121.08984375 l 1
 141.515547463 -119.747070312 143.106168848 -119.060546875 146.464466346 -117.346679688 c 1
 147.341126507 -116.900390625 149.662936062 -113 149.662936062 -112 c 0
 149.662936062 -107 l 1
45.8623046875 -170.09765625 m 0
 25.2060546875 -167.09765625 10.3779296875 -157.245117188 13.947265625 -133.684570312 c 0
 16.7578125 -111.204101562 30.984375 -91.0185546875 45.1015625 -70.8515625 c 0
 70.3291015625 -34.5234375 79.27734375 -16 126.994140625 -16 c 0
 135.672741472 -16 145.182972943 -17 149.662936062 -17 c 0
 150.458246755 -17 l 1
 151.212404187 -16.7431640625 l 0
 153.619391421 -15.9248046875 168.360872285 -12.0888671875 169.277728655 -12 c 1
 170.000303352 -12 l 1
 170.70469405 -11.779296875 l 0
 182.03715363 -8.1708984375 253.640956384 14.6904296875 256.423108229 34.8427734375 c 1
 259.039689978 49.7333984375 239.0593033 80.3271484375 234.635806283 93.1416015625 c 0
 185.794542052 233.62890625 149.777782372 408.26953125 172.160371021 570.377929688 c 0
 180.896346957 637.66796875 191.147337123 661.254882812 252.479094554 687.03515625 c 0
 281.039457596 699.262695312 308.891601731 712 335.867085704 712 c 0
 374.463102084 712 344.314031761 621.641601562 350.550186361 581.171875 c 1
 348.33365259 526.487304688 342.581766594 410.09765625 342.554969122 316.55078125 c 0
 342.534871018 245.665039062 342.956931205 176.822265625 363.307697231 176.822265625 c 0
 381.798910097 176.822265625 457.745817451 334.235351562 492.169084589 407.278320312 c 0
 519.796321368 465.337890625 552.208821038 553.828125 596.079154177 598.130859375 c 1
 627.583984375 630.579101562 690.235351562 685.696289062 731.994140625 685.696289062 c 0
 745.185546875 685.696289062 744.796875 681.340820312 743.137695312 668.868164062 c 1
 698.106445312 563.881835938 634.711914062 466.75 576.69309715 368.645507812 c 0
 525.754930721 282.692382812 473.883638027 197.83203125 416.187723342 116.064453125 c 0
 334.768389344 0.623046875 258.008944351 -106.399414062 134.18356766 -154.333007812 c 0
 108.498046875 -164.21875 83.0634765625 -171 58.994140625 -171 c 0
 54.5615234375 -171 50.1201171875 -170.715820312 45.8623046875 -170.09765625 c 0
EndSplineSet
EndChar

StartChar: Z
Encoding: 90 90 45
Width: 611
Flags: HW
LayerCount: 2
Fore
SplineSet
170.202148438 -4.501953125 m 0
 103.313476562 5.09765625 30.5361328125 29.1787109375 37.9248046875 80.283203125 c 0
 46.2783203125 137.828125 346.52734375 424.154296875 415.279296875 504.69140625 c 0
 429.298828125 520.978515625 445.403320312 533.029296875 448.645507812 556.29296875 c 0
 449.44140625 562 l 1
 443.817382812 562 l 0
 374.8984375 562 306.60546875 527 240.889648438 527 c 0
 234.216796875 527 228.303710938 527.348632812 223.141601562 528.057617188 c 0
 196.891601562 531.663085938 189.188476562 543.1171875 193.03515625 572.29296875 c 0
 198.53125 611.727539062 248.810546875 669.022460938 284.923828125 685.05859375 c 1
 382.448242188 691.030273438 435.159179688 691 528.6953125 691 c 0
 562.700195312 691 605.916992188 695.112304688 636.994140625 690.765625 c 0
 665.067382812 686.838867188 680.219726562 677.4609375 677.022460938 654.67578125 c 0
 674.412109375 635.536132812 645.482421875 603.66796875 627.153320312 591.126953125 c 0
 626.5703125 590.728515625 l 1
 626.12109375 590.184570312 l 0
 607.133789062 567.200195312 519.086914062 460.1953125 501.477539062 437.131835938 c 1
 441.946289062 363.108398438 385.309570312 287.045898438 331.5078125 209.840820312 c 1
 329.287109375 206.42578125 320.864257812 193.127929688 319.453125 190.236328125 c 0
 318.938476562 189.180664062 l 1
 318.938476562 173 l 1
 323.81640625 173 l 0
 400.171875 173 477.259765625 203 550.159179688 203 c 0
 567.735351562 203 575.541015625 196.58984375 574.020507812 183.672851562 c 1
 570.318359375 159.607421875 548.869140625 123.521484375 535.330078125 101.71484375 c 1
 469.760742188 -0.560546875 334.645507812 -10 239.9140625 -10 c 0
 225.53515625 -10 199.145507812 -8.7392578125 170.202148438 -4.501953125 c 0
EndSplineSet
EndChar

StartChar: bracketleft
Encoding: 91 91 46
Width: 454
Flags: HW
LayerCount: 2
Fore
SplineSet
39.9498149459 70.2932870995 m 0
 57.7990614887 197.221262515 110.654059837 312.562273819 134.882551713 441.905322831 c 1
 147.9129882 491.020044977 160.873464071 579.173518187 180.079299277 665.911518635 c 1
 188.103811303 704.44314324 225.5373202 832 274.587553584 832 c 0
 463 832 l 0
 466.973867818 832 470.880303868 831.750762476 474.696871003 831.26482926 c 0
 515.535468025 826.065174682 546.048575227 794.125116446 540.050031276 748.707569391 c 1
 538.0207746 735.517400994 518.326077271 695 508 695 c 0
 371.023652714 695 l 1
 361.7695127 686.593193135 l 1
 356.258793608 680.897551789 328.698951401 569.332407573 317.126978756 521.27566377 c 1
 302.745226155 467.522842253 286.361131908 412.492554023 268.130838256 359.696327431 c 0
 246.71580743 298.049205018 198.495353691 160.514940458 198.495353691 156 c 0
 198.495353691 154.150379619 l 1
 206.875441014 144 l 1
 249.544551088 144 l 0
 262.441758914 144 276.242153952 143.521968652 289.124192375 141.642110525 c 0
 322.462165685 136.777145991 347.018739764 123.747983097 342.054580448 87.6709593637 c 0
 330.140777081 -3.66993503867 252.541130429 -3 168.636389176 -3 c 0
 150.528102163 -3 131.359809143 -2.22793051968 113.641028769 0.314369467463 c 0
 67.0307383858 7.00203860423 33.3415839043 24.6964929124 39.9498149459 70.2932870995 c 0
EndSplineSet
EndChar

StartChar: quoteleft
Encoding: 8216 8216 47
Width: 217
Flags: HW
LayerCount: 2
Fore
SplineSet
126.950019993 676.29465437 m 0
 134.85006255 730.607446953 193.898558546 832 248 832 c 0
 259.221397488 832 267.525393017 825.77066042 266.050252532 814.707106781 c 0
 263.237052701 795.014707968 252.245451534 777.073499795 249.045941065 754.676926516 c 1
 242.440295077 704.033640605 291.392019989 693.880409986 286.042728522 654.652272563 c 0
 281.550635855 620.512368292 216.843245169 578 184 578 c 0
 142.197806985 578 121.056382838 634.056921428 126.950019993 676.29465437 c 0
EndSplineSet
EndChar

StartChar: a
Encoding: 97 97 48
Width: 538
Flags: HW
LayerCount: 2
Fore
SplineSet
329.552501547 424.431640625 m 1
 282.595746644 363.737304688 227.687055049 297.751953125 216.848205296 212.08203125 c 0
 216.021895761 205.280273438 215.267970566 196.734375 215.241648988 187.86328125 c 0
 215.1767851 166.360351562 219.538646579 137 244.722756283 137 c 0
 271.06877564 137 335.03209003 204.90625 357.698728821 227.209960938 c 0
 368.717129338 237.963867188 392.782571982 260.866210938 394.584660011 266.35546875 c 1
 402.932360428 284.27734375 l 1
 391.177895787 279.23046875 l 0
 372.244220775 271.100585938 359.659686374 268.233398438 342.909762271 268.233398438 c 0
 334.922103437 268.233398438 330.677749002 268.5703125 330.375990913 268.790039062 c 1
 330.319587531 268.891601562 329.827938059 270.081054688 330.349669335 273.719726562 c 1
 332.024849756 288.104492188 344.458035085 302.809570312 352.603623386 314.83203125 c 1
 366.857697871 336.69140625 372.672886472 364.401367188 375.579540717 387.288085938 c 1
 376.298683827 391.533203125 377.144734545 399.970703125 377.193617475 408.930664062 c 0
 377.267881927 422.634765625 376.274242362 447 360.236880975 447 c 0
 343.95134471 447 336.675308536 433.989257812 329.552501547 424.431640625 c 1
115.765625 -9.173828125 m 0
 58.99609375 -1.1494140625 31.8251953125 64.5498046875 41.9658203125 135.03515625 c 0
 64.6259765625 296.740234375 276.070815496 515 410.293001674 515 c 0
 418.135742188 515 426.913085938 514.438476562 435.896484375 513.216796875 c 0
 486.799804688 506.154296875 540.799804688 478.75390625 532.059570312 414.75390625 c 0
 529.400390625 393.969726562 505.446289062 373.24609375 503.051757812 352.495117188 c 0
 502.876953125 350.981445312 l 1
 505.926757812 344.76171875 l 1
 532.017578125 344.76171875 l 0
 535.483398438 344.76171875 538.3671875 328.251953125 537.067382812 318.973632812 c 0
 531.12890625 276.586914062 520.11328125 234.676757812 514.072265625 190.534179688 c 0
 507.094726562 142.766601562 505.294921875 98.849609375 512.938476562 56.18359375 c 1
 512.419921875 53.6240234375 510.993164062 50.294921875 510.633789062 49.791015625 c 1
 476.626953125 22.4580078125 440.444335938 -7 403.554677734 -7 c 0
 336.925363526 -7 352.320666424 81.541015625 356.375129475 143.662109375 c 0
 356.723890382 149 l 1
 351.573321623 149 l 0
 343.129735458 149 338.993487503 140.002929688 337.537340212 138.490234375 c 1
 282.286468104 78.0732421875 201.098501153 -10 128.017578125 -10 c 0
 123.771484375 -10 119.688476562 -9.7177734375 115.765625 -9.173828125 c 0
EndSplineSet
EndChar

StartChar: b
Encoding: 98 98 49
Width: 457
Flags: HW
LayerCount: 2
Fore
SplineSet
149.952148438 -8.61328125 m 0
 61.3271484375 3.181640625 33.2255859375 88.638671875 47.994140625 198.111328125 c 0
 71.78515625 369.951171875 191.176974321 595.357421875 324.645929257 730.412109375 c 0
 356.758147983 762.916015625 397.058312952 787 436.041015625 787 c 0
 440.318359375 787 444.448242188 786.723632812 448.426757812 786.189453125 c 0
 496.078125 779.790039062 524.150390625 735.810546875 516.088867188 676.69140625 c 0
 504.487304688 593.544921875 401.228515625 512 334.731036879 512 c 0
 330.815917569 512 327.428932029 514.18359375 327.981412391 519.370117188 c 1
 329.514311293 530.560546875 341.72038166 541.021484375 350.08905453 553.022460938 c 1
 382.820238542 598.200195312 412.811523438 649.013671875 420.991210938 707.29296875 c 0
 421.919921875 713.798828125 421.755859375 729 408.041015625 729 c 0
 406.053710938 729 l 1
 404.609375 727.635742188 l 0
 317.255802112 640.58984375 223.687166189 363.032226562 205.327962843 227.915039062 c 0
 199.618686968 184.56640625 193.000159515 130.873046875 218.859049671 98.0009765625 c 0
 218.997637965 97.82421875 l 1
 219.152145185 97.6611328125 l 0
 222.381814283 94.240234375 228.580831224 85 236.925157503 85 c 0
 290.247003678 85 313.705881685 177.303710938 319.341181376 219.418945312 c 0
 320.122145142 225.26171875 l 1
 314.594532301 225.26171875 l 0
 309.890021559 225.26171875 305.645286847 225.522460938 301.894975238 226.0859375 c 0
 282.589064019 228.989257812 274.378643997 238.6328125 279.068172221 273.680664062 c 0
 290.517625414 359.256835938 376.34498142 515 436.041015625 515 c 0
 489.379882812 515 489.357421875 440.111328125 481.08984375 382.168945312 c 0
 457.205078125 209.698242188 330.563087573 -10 171.721237918 -10 c 0
 164.269307886 -10 156.911132812 -9.52734375 149.952148438 -8.61328125 c 0
EndSplineSet
EndChar

StartChar: c
Encoding: 99 99 50
Width: 360
Flags: HW
LayerCount: 2
Fore
SplineSet
122.904296875 -9.060546875 m 0
 62.8896484375 -0.7216796875 28.9609375 61.8046875 38.966796875 135.068359375 c 0
 55.712890625 258.594726562 137.794921875 364.844726562 219.266391585 449.115234375 c 0
 249.630824079 480.619140625 290.55859375 514 330.014648438 514 c 0
 334.1328125 514 338.140625 513.708007812 342.012695312 513.13671875 c 0
 377.795898438 507.864257812 402.934570312 479.079101562 396.0625 432.6953125 c 0
 388.3125 377.470703125 324.037109375 302 276.105616488 302 c 0
 269.095250109 302 264.859463608 305.48828125 264.976648593 310.250976562 c 1
 267.939625871 323.885742188 281.786132812 336.241210938 288.541992188 350.877929688 c 1
 298.854492188 372.53515625 301.948242188 391.182617188 304.975585938 412.370117188 c 1
 305.704101562 418.926757812 308.657226562 435 295.014648438 435 c 0
 283.0703125 435 274.732749317 420.918945312 269.651428077 413.346679688 c 0
 229.28751066 353.546875 203.313007994 267.196289062 194.00401306 193.330078125 c 1
 192.817740441 185.041015625 191.70358166 173.83984375 191.690961738 162.455078125 c 0
 191.663919049 139.297851562 196.239542007 109 220.72218967 109 c 0
 262.430128724 109 308.64453125 163.315429688 337.86328125 189.834960938 c 1
 340.274414062 190.076171875 340.146484375 190 341.014648438 190 c 0
 344.828125 190 346.087890625 187.94140625 345.051757812 178.61328125 c 1
 331.4921875 78.8505859375 210.059257446 -10 137.014648438 -10 c 0
 132.147460938 -10 127.443359375 -9.6796875 122.904296875 -9.060546875 c 0
EndSplineSet
EndChar

StartChar: d
Encoding: 100 100 51
Width: 546
Flags: HW
LayerCount: 2
Fore
SplineSet
228.024275382 322.8046875 m 0
 216.274396189 291.598632812 206.414756253 259.254882812 202.447153554 227.643554688 c 0
 201.543828161 220.522460938 200.631953947 211.39453125 200.59205945 202.018554688 c 0
 200.508470981 181.918945312 204.59575717 155 228.668286545 155 c 0
 270.289645191 155 336.318836959 220.20703125 341.415833866 249.048828125 c 1
 342.292562928 252.529296875 343.275677315 255.719726562 343.447603599 259.814453125 c 0
 343.522643248 261.596679688 343.332669453 269 336.634193458 269 c 0
 320.27555001 269 310.850950063 249 302.590889476 249 c 0
 300.545821578 249 299.658643957 249.426757812 299.62824815 249.442382812 c 1
 299.538010598 249.705078125 299.439224225 251.624023438 299.550358895 252.731445312 c 1
 310.48335077 281.296875 318.947633186 301.388671875 322.971278154 329.310546875 c 1
 324.159564239 338.681640625 325.752494506 357.390625 325.801887693 377.102539062 c 0
 325.871228128 404.840820312 323.988587824 444 302.590889476 444 c 0
 274.989596868 444 235.193886388 342.155273438 228.024275382 322.8046875 c 0
83.994140625 -9.48828125 m 0
 37.5458984375 -3.2783203125 19.43359375 60.0439453125 26.9638671875 115.702148438 c 0
 49.7880859375 283.6328125 221.425535628 515 337.606859286 515 c 0
 356.011520501 515 365.23094875 505.50390625 380.137242538 492.221679688 c 0
 381.507903466 491 l 1
 383.322153203 491 l 0
 392.65461586 491 433.792491199 617.924804688 456.832513 670.984375 c 0
 492.580831788 754.424804688 510.791992188 772 587.010742188 772 c 0
 589.279296875 772 597.21484375 772.170898438 605.098632812 770.966796875 c 0
 616.61328125 769.208007812 621.890625 765.689453125 621.07421875 760.791015625 c 1
 619.37890625 749.774414062 605.870117188 729.897460938 600.5390625 719.236328125 c 0
 600.423828125 719.004882812 l 1
 600.33203125 718.763671875 l 0
 551.265625 586.763671875 511.12890625 453.525390625 492.312968737 317.189453125 c 0
 483.491535588 254.860351562 483.505783623 198.85546875 484.481299058 139.873046875 c 1
 485.49575912 112.387695312 494.043630006 81.5009765625 490.364787474 56.57421875 c 1
 489.124258596 46.875 412.496428831 -6 364.841502471 -6 c 0
 315.022774591 -6 328.391230512 84.384765625 328.508064396 125.834960938 c 0
 328.525162038 132.071289062 329.622260701 145 320.098874381 145 c 0
 316.455177002 145 314.973381404 143.37109375 311.615594586 139.387695312 c 1
 257.722878682 84.958984375 161.218090794 -10 92.0107421875 -10 c 0
 89.2314453125 -10 86.5615234375 -9.8251953125 83.994140625 -9.48828125 c 0
EndSplineSet
EndChar

StartChar: e
Encoding: 101 101 52
Width: 422
Flags: HW
LayerCount: 2
Fore
SplineSet
222.669500127 270.797851562 m 1
 212.139939127 243.455078125 205.427309374 212.002929688 201.614070443 183.764648438 c 0
 200.970684451 179.677734375 198.295601802 163 211.956246426 163 c 0
 217.165180653 163 219.084261683 166.469726562 222.860577459 170.46484375 c 0
 282.399166436 233.453125 319.558630589 326.478515625 331.96875 421.29296875 c 0
 332.794921875 427.07421875 333.913085938 441 321.60325035 441 c 0
 290.801030574 441 229.686745916 291.21484375 222.669500127 270.797851562 c 1
127.41796875 -8.90234375 m 0
 66.9072265625 -0.5244140625 30.2080078125 54.27734375 40.9697265625 131.98828125 c 0
 62.76171875 288.509765625 217.631335496 515 380.018554688 515 c 0
 383.603515625 515 387.049804688 514.755859375 390.359375 514.287109375 c 0
 434.938476562 507.807617188 458.286132812 457.8671875 450.065429688 398.901367188 c 0
 436.250976562 295.772460938 319.271553052 129.740234375 233.696600652 129.740234375 c 0
 227.399356404 129.740234375 220.782726857 135.888671875 210.065780841 135.888671875 c 0
 203.974383188 135.888671875 202.711611254 128.673828125 202.606380259 128.005859375 c 1
 198.712833464 101.27734375 227.225817571 99 236.53229903 99 c 0
 296.72258171 99 342.577148438 173 385.018554688 173 c 0
 397.479492188 173 408.51953125 163.418945312 406.080078125 148.782226562 c 1
 403.560546875 131.985351562 378.520507812 114.435546875 364.814453125 102.838867188 c 1
 298.879817097 46.9736328125 220.198417914 -10 144.018554688 -10 c 0
 138.291992188 -10 132.75390625 -9.626953125 127.41796875 -8.90234375 c 0
EndSplineSet
EndChar

StartChar: f
Encoding: 102 102 53
Width: 277
Flags: HW
LayerCount: 2
Fore
SplineSet
36.0625 -152.0703125 m 0
 -1.1826171875 -147.190429688 -0.1806640625 -124.3671875 7.1083984375 -69.705078125 c 0
 12.0615234375 -36.5361328125 19.0693359375 -1.97265625 26.0419921875 31.3720703125 c 1
 30.8642578125 52.8974609375 38.947265625 75.291015625 42.0439453125 98.2021484375 c 1
 45.35546875 107.59375 54.220703125 142.147460938 56.75390625 148.143554688 c 0
 56.890625 148.467773438 l 1
 56.9814453125 148.807617188 l 0
 87.4091796875 261.9921875 208.995117188 630 320.158203125 630 c 0
 344.37890625 630 347.31640625 605.579101562 343.204101562 572.680664062 c 1
 340.22265625 552.8046875 339.305664062 547.217773438 333.361328125 526.411132812 c 0
 327.748046875 507.327148438 290.557617188 402 271.158203125 402 c 0
 270.124023438 402 270.044921875 402.078125 268.3203125 405.797851562 c 1
 272.52734375 434.396484375 281.993164062 462.420898438 286.073242188 491.032226562 c 1
 286.8359375 494.638671875 287.293945312 498.338867188 287.296875 503.3359375 c 0
 287.298828125 507.09765625 287.737304688 519 278.158203125 519 c 0
 260.258789062 519 221.6953125 338.055664062 215.250976562 311.106445312 c 1
 208.920898438 282.87109375 200.67578125 256.405273438 196.947265625 228.336914062 c 0
 196.8984375 227.966796875 l 1
 196.8984375 227.592773438 l 0
 196.8984375 225.55859375 197.20703125 217.438476562 204.181640625 217.438476562 c 0
 218.21484375 217.438476562 235.546875 219.469726562 251.158203125 219.469726562 c 0
 254.760742188 219.469726562 258.813476562 219.275390625 262.830078125 218.705078125 c 0
 277.301757812 216.650390625 288.716796875 210.979492188 286.223632812 193.896484375 c 1
 284.362304688 183.500976562 280.661132812 174.006835938 274.81640625 164.114257812 c 1
 244.55859375 107.625 217.046875 100.630859375 170.232421875 97.6181640625 c 0
 169.297851562 97.55859375 l 1
 168.458984375 97.0908203125 l 0
 160.0859375 92.421875 155.916015625 53.5439453125 154.166992188 38.576171875 c 1
 146.573242188 0.244140625 126.850585938 -115.015625 94.9482421875 -142.166015625 c 1
 83.5634765625 -151.798828125 67.09765625 -153 52.158203125 -153 c 0
 46.1005859375 -153 40.7509765625 -152.684570312 36.0625 -152.0703125 c 0
EndSplineSet
EndChar

StartChar: g
Encoding: 103 103 54
Width: 524
Flags: HW
LayerCount: 2
Fore
SplineSet
358.105563195 429.579101562 m 1
 296.968457211 369.2421875 235.366742017 282.560546875 222.574438954 191.80859375 c 0
 221.802603371 187.409179688 220.389927498 179.916015625 220.264586677 172.7109375 c 0
 220.104376605 163.52734375 222.524491108 150 236.021718489 150 c 0
 251.190785095 150 382.160634338 257.631835938 383.6421063 271.448242188 c 0
 384.237710804 277 l 1
 342.77345928 277 l 1
 341.517223832 278.6171875 340.908425557 282.131835938 341.065808393 282.787109375 c 0
 341.104447292 282.9453125 l 1
 341.132719658 283.10546875 l 0
 342.57084066 291.305664062 357.053831191 306.1640625 364.513023673 317.205078125 c 1
 387.969663075 354.678710938 404.735175931 391.390625 410.64410036 436.29296875 c 0
 411.575203604 443.05078125 411.350909502 455 398.146772312 455 c 0
 383.44419974 455 366.677744473 438.461914062 358.105563195 429.579101562 c 1
209.000876185 -93 m 1
 204.175725774 -93 l 2
 202.799803977 -93 197.420515198 -95.130859375 197.420515198 -99 c 0
 197.420515198 -104 l 1
 202.245665609 -104 l 0
 202.245665609 -104 209.000876185 -104.59765625 209.000876185 -98 c 0
 209.000876185 -93 l 1
155.745163344 -230.266601562 m 0
 117.141601562 -224.63671875 87.966796875 -187.010742188 94.97265625 -139.719726562 c 0
 108.567382812 -44.5556640625 235.247998081 52 287.16831285 52 c 1
 287.232396879 51.677734375 287.370931471 50.68359375 287.370931471 50.68359375 c 1
 257.370181823 -4.6572265625 234.201920551 -64.8505859375 225.468586789 -127.193359375 c 1
 224.773086593 -131.157226562 224.129419067 -135.696289062 224.054026092 -139.766601562 c 0
 223.940936629 -145.881835938 225.453508194 -156 235.056688407 -156 c 0
 243.853163786 -156 249.948685829 -145.424804688 252.427229888 -142 c 0
 252.591209609 -141.7734375 l 1
 252.728801789 -141.530273438 l 0
 295.476618715 -64.861328125 341.975236156 51.115234375 353.707325506 137.530273438 c 1
 353.89863518 138.336914062 357.78043099 154.495117188 347.000177951 154.495117188 c 0
 345.323626666 154.495117188 l 1
 344.008961661 153.401367188 l 0
 283.799189272 103.33203125 171.044282832 2.1826171875 102.024414062 2.1826171875 c 0
 98.26171875 2.1826171875 94.6708984375 2.435546875 91.248046875 2.9208984375 c 0
 46.62890625 9.2509765625 26.75 56.5556640625 34.9755859375 113.16796875 c 0
 62.6103515625 311.6015625 289.177535639 517 450.024414062 517 c 0
 458.663085938 517 467.54296875 516.461914062 476.251953125 515.237304688 c 0
 518.927734375 509.150390625 555.85546875 487.567382812 548.077148438 431.563476562 c 0
 542.205078125 390.869140625 512.654296875 346.854492188 511.098632812 337.390625 c 1
 507.495117188 317.290039062 542.672851562 322.907226562 538.071289062 286.5078125 c 1
 528.168945312 218.228515625 507.305664062 154.662109375 481.381835938 88.9423828125 c 0
 427.647101087 -47.421875 363.764748394 -144.375976562 247.374958139 -205.528320312 c 0
 220.563331341 -219.418945312 192.244787452 -231 165.574522483 -231 c 0
 162.232728858 -231 158.952192026 -230.750976562 155.745163344 -230.266601562 c 0
EndSplineSet
EndChar

StartChar: h
Encoding: 104 104 55
Width: 490
Flags: HW
LayerCount: 2
Fore
SplineSet
293.76823764 199 m 1
 292.55683617 198.16015625 l 2
 285.231144023 193.08203125 245.856839957 149.72265625 237.217387611 141.737304688 c 2
 237.09249118 141.62109375 l 1
 236.975107317 141.49609375 l 2
 193.0866894 94.841796875 124.243164062 12 65.9248046875 12 c 0
 29.9873046875 12 29.59765625 74.2412109375 34.875 113.296875 c 0
 57.896484375 275.4453125 266.293840109 752 434.924804688 752 c 0
 439.750976562 752 444.390625 751.669921875 448.841796875 751.032226562 c 0
 501.807617188 743.443359375 530.9140625 691.475585938 520.971679688 623.686523438 c 0
 517.99609375 600.868164062 513.154296875 579.73046875 501.560546875 559.440429688 c 0
 480.786132812 521.473632812 422.642578125 452.79296875 373.905731644 419.387695312 c 0
 356.368582453 407.176757812 340.148010673 400 327.918490249 400 c 0
 320.357091305 400 316.673116136 403.811523438 317.316379708 410.502929688 c 0
 320.987207884 433.310546875 344.270531956 461.78125 354.389960051 483.879882812 c 0
 382.228717094 546.771484375 411.731445312 606.30859375 421.865234375 676.23046875 c 0
 422.274414062 678.686523438 426.779296875 695 414.924804688 695 c 0
 400.7434391 695 394.606610721 677.03125 391.537726997 673.201171875 c 2
 391.315167192 672.923828125 l 1
 391.133926507 672.616210938 l 2
 323.611911069 558.26171875 254.091552741 404.932617188 238.545233873 291.764648438 c 0
 238.468230059 291.288085938 232.10320745 272 242.335324055 272 c 0
 246.562082208 272 249.034655906 274.895507812 250.542803783 276.46484375 c 0
 273.465524627 300.301757812 327.90909954 364.545898438 384.273074459 403.563476562 c 0
 411.79296875 422.377929688 440.221679688 435 464.924804688 435 c 0
 487.881835938 435 500.767578125 415.102539062 496.967773438 385.654296875 c 0
 490.112304688 333.752929688 465.115234375 281.705078125 456.97265625 223.6875 c 0
 451.915039062 187.2734375 452.940429688 158.59765625 455.936523438 123.647460938 c 0
 456.98828125 104.719726562 464.72265625 81.6953125 462.962890625 67.6201171875 c 0
 459.67578125 41.3212890625 373.788347781 9 348.112271037 9 c 0
 310.560703602 9 285.709131115 62.4833984375 291.333226777 107.327148438 c 2
 302.916666417 192.6484375 l 1
 302.916666417 193 l 2
 302.916666417 200.095703125 295.223797546 199 295.223797546 199 c 1
 293.76823764 199 l 1
EndSplineSet
EndChar

StartChar: i
Encoding: 105 105 56
Width: 235
Flags: HW
LayerCount: 2
Fore
SplineSet
204.963867188 532 m 0
 176.8515625 532 170.938476562 554.451171875 175.913085938 587.28515625 c 0
 182.90625 638.237304688 222.002929688 721 271.963867188 721 c 0
 298.586914062 721 311.745117188 704.763671875 307.018554688 670.732421875 c 0
 299.02734375 616.794921875 260.009765625 532 204.963867188 532 c 0
82.9638671875 4 m 0
 28.76171875 4 27.666015625 87.4833984375 34.9189453125 140.327148438 c 0
 44.0947265625 208.63671875 135.744140625 495 209.963867188 495 c 0
 256.982421875 495 260.168945312 442.768554688 253.01171875 393.689453125 c 0
 241.754882812 312.84375 155.913085938 4 82.9638671875 4 c 0
EndSplineSet
EndChar

StartChar: j
Encoding: 106 106 57
Width: 252
Flags: HW
LayerCount: 2
Fore
SplineSet
203.492803376 582.033203125 m 0
 209.763013354 632.7265625 245.985351562 720 294.75 720 c 0
 297.97265625 720 300.923828125 719.817382812 303.610351562 719.462890625 c 0
 326.9609375 716.35546875 333.221679688 700.827148438 328.795898438 664.359375 c 0
 321.784179688 614.884765625 285.642578125 532 231.75 532 c 0
 207.960927953 532 199.965428465 553.85546875 203.492803376 582.033203125 c 0
8.7060546875 -19.37109375 m 0
 13.19921875 11.1669921875 37.232421875 121.990234375 58.7060546875 123.009765625 c 1
 58.7958984375 122.970703125 62.3447265625 118 68.75 118 c 0
 83.583984375 118 139.362125484 501 243.75 501 c 0
 268.71875 501 285.551757812 478.69140625 287.7265625 447.912109375 c 1
 263.583007812 280.334960938 181.594629545 92.61328125 98.3994140625 -65.021484375 c 1
 83.552734375 -92.373046875 56.81640625 -147 33.75 -147 c 0
 1.7353515625 -147 4.294921875 -55.8896484375 8.7060546875 -19.37109375 c 0
EndSplineSet
EndChar

StartChar: k
Encoding: 107 107 58
Width: 459
Flags: HW
LayerCount: 2
Fore
SplineSet
311.590975132 -163.70703125 m 1
 231.840248467 -135.754882812 185.840268336 -22.64453125 199.847528371 80.05859375 c 0
 200.808234268 90.22265625 203.005067092 100.161132812 207.383794651 106.76171875 c 1
 223.9566716 126.916992188 304.573807471 156.69140625 313.598280943 223.499023438 c 1
 315.769905741 238.431640625 308.651905974 251.540039062 294.528875743 251.540039062 c 0
 254.7141984 251.540039062 205.981481475 172.709960938 188.153804986 141.94921875 c 0
 165.911922976 103.458007812 140.119140625 29.1083984375 99.0126953125 29.1083984375 c 0
 95.513671875 29.1083984375 92.19921875 29.3466796875 89.05859375 29.802734375 c 0
 40.1787109375 36.89453125 27.4853515625 99.7158203125 35.9638671875 157.819335938 c 1
 43.888671875 217.91015625 63.7490234375 280.234375 86.6494140625 338.62109375 c 0
 132.953125 454.642578125 281.401095743 751 403.012695312 751 c 0
 408.185546875 751 413.146484375 750.647460938 417.889648438 749.965820312 c 0
 470.375976562 742.420898438 498.932617188 694.000976562 489.060546875 626.69140625 c 0
 477.217773438 541.815429688 397.694335938 424 319.385857091 424 c 0
 314.978186984 424 311.49481118 423.930664062 309.334389949 424.196289062 c 0
 306.258077091 424.57421875 306.048943834 423.814453125 306.79304743 430.369140625 c 1
 347.891466861 505.513671875 378.888671875 582.755859375 390.974609375 670.381835938 c 1
 391.811523438 677.91015625 392.609375 694 380.012695312 694 c 0
 367.774064322 694 358.462032622 671.104492188 355.389454286 665.48046875 c 1
 302.79430753 582.328125 268.923122647 483.987304688 241.205497111 389.729492188 c 0
 232.680516016 360.600585938 221.064283972 329.94140625 217.131831845 298.668945312 c 0
 217.089818467 298.334960938 l 1
 217.089818467 297.999023438 l 0
 217.089818467 297.999023438 217.953426781 290.90234375 222.826044932 290.90234375 c 0
 224.273172377 290.90234375 l 1
 231.719810118 296.166015625 l 1
 232.125005803 296.646484375 l 0
 280.909072412 354.463867188 343.170096869 416.61328125 410.012695312 416.61328125 c 0
 413.704101562 416.61328125 417.170898438 416.392578125 420.416015625 415.967773438 c 0
 454.3359375 411.530273438 467.3203125 384.580078125 461.060546875 339.251953125 c 0
 448.325195312 246.885742188 385.326171875 171.657226562 326.417029212 105.8046875 c 0
 325.466593251 104.73046875 l 1
 325.206110311 103.284179688 l 0
 320.663997396 77.99609375 356.74228504 20.091796875 371.811523438 -3.8212890625 c 1
 383.258789062 -22.3896484375 420.397460938 -53.517578125 418.063476562 -69.29296875 c 0
 415.682617188 -85.9580078125 342.139368676 -150.772460938 311.590975132 -163.70703125 c 1
EndSplineSet
EndChar

StartChar: l
Encoding: 108 108 59
Width: 442
Flags: HW
LayerCount: 2
Fore
SplineSet
141.086914062 9.3544921875 m 0
 70.705078125 18.7373046875 27.470703125 76.095703125 39.9736328125 166.293945312 c 0
 50.833984375 240.341796875 82.56640625 309.91015625 115.521484375 378.81640625 c 0
 165.460995163 482.380859375 325.737377896 751 432.0234375 751 c 0
 435.80859375 751 439.404296875 750.74609375 442.821289062 750.260742188 c 0
 497.998046875 742.423828125 512.51171875 670.879882812 503.071289062 606.684570312 c 0
 486.259765625 485.0546875 414.778320312 358.96484375 325.4782399 281.850585938 c 1
 304.452512612 263.893554688 280.287192853 246 257.643958002 246 c 0
 250.880175653 246 247.391635628 248.551757812 248.970787025 259.266601562 c 1
 251.463937781 277.485351562 289.303698286 332.022460938 302.020170412 354.487304688 c 1
 329.106171843 403.967773438 348.364708972 456.296875 365.615628268 508.318359375 c 0
 379.952414506 550.22265625 396.877929688 595.604492188 402.966796875 639.243164062 c 1
 403.815429688 644.337890625 404.123046875 656 394.0234375 656 c 0
 391.686523438 656 388.985351562 654.032226562 387.48828125 652.53515625 c 0
 387.223632812 652.271484375 l 1
 387.001953125 651.970703125 l 0
 307.730561485 540.030273438 226.232129518 327.823242188 208.841818303 200.749023438 c 1
 207.483448736 191.887695312 206.198049435 181.625976562 206.184016691 172.008789062 c 0
 206.158757753 155.259765625 210.50797271 136 229.86286801 136 c 0
 265.922341128 136 306.848369679 168.24609375 332.153148207 198.725585938 c 0
 332.426318947 199.0546875 l 1
 332.64148768 199.427734375 l 0
 338.574531616 209.75 377.418101037 262 391.0234375 262 c 0
 402.06640625 262 402.270507812 252.08203125 400.07421875 236.70703125 c 0
 388.41796875 155.1171875 302.976268 55.8173828125 239.413553211 25.5693359375 c 0
 214.131227072 13.8388671875 187.98354842 8 161.847095963 8 c 0
 154.795898438 8 147.80859375 8.4580078125 141.086914062 9.3544921875 c 0
EndSplineSet
EndChar

StartChar: m
Encoding: 109 109 60
Width: 699
Flags: HW
LayerCount: 2
Fore
SplineSet
470.973403647 253.823242188 m 2
 477.940978144 253.604492188 523.068364509 300.739257812 542.780384232 323.546875 c 1
 564.150986509 345.377929688 626.173828125 431 669.018554688 431 c 0
 708.840820312 431 717.0703125 391.7578125 711.067382812 345.42578125 c 1
 700.1875 270.758789062 672.163085938 196.122070312 661.075195312 118 c 0
 656.021484375 84.8212890625 655.012695312 56.671875 656.022460938 24.52734375 c 1
 657.081054688 4.23046875 662.856445312 -13.2470703125 660.07421875 -31.0361328125 c 1
 655.713867188 -64.375 609.485351562 -81 586.169935105 -81 c 0
 582.407807721 -81 578.815644468 -80.732421875 575.382941944 -80.2197265625 c 0
 515.560342271 -71.5859375 498.667053522 12.6064453125 507.90240785 78.5908203125 c 0
 512.756888972 117.544921875 522.499271128 158.64453125 529.385682978 199.137695312 c 0
 529.459206788 199.565429688 l 1
 529.459206788 200 l 0
 529.459206788 205.741210938 524.16549252 208 521.637037365 208 c 0
 515.312080058 208 513.076765285 201.418945312 512.926853102 201.154296875 c 1
 439.043063619 121.314453125 354.982433107 8 304.571835876 8 c 0
 267.934062345 8 254.765661648 41.9521484375 260.528209557 88.666015625 c 0
 267.13484899 139.099609375 301.323420302 181.02734375 307.462180949 228.338867188 c 0
 308.200283606 234 l 1
 295.391863118 234 l 1
 293.924251496 232.141601562 l 0
 273.626905863 205.29296875 250.158487885 180.201171875 228.577817581 154 c 0
 193.463037243 113.512695312 118.461914062 11 76.0185546875 11 c 0
 35.234375 11 28.833984375 68.7099609375 34.96484375 114.544921875 c 0
 44.748046875 181.8671875 94.4482421875 276.869140625 133.541015625 359.036132812 c 0
 158.870562407 414.134765625 198.595381072 499 251.77219227 499 c 0
 254.463927574 499 257.166166278 498.805664062 259.830210796 498.4140625 c 0
 281.444301013 495.197265625 299.723083882 479.811523438 295.818683154 448.375976562 c 0
 291.080694301 414.001953125 273.748172406 376.881835938 258.142027747 344.4453125 c 1
 248.663185478 324.40625 232.487947438 300.168945312 229.328333349 275.67578125 c 0
 229.283455179 275.338867188 l 1
 229.283455179 275 l 0
 229.283455179 272.4140625 231.492034021 267 237.105624602 267 c 0
 261.394262739 267 397.44291039 502 477.63733436 502 c 0
 512.050296519 502 528.405047237 461.740234375 522.662551276 418.40234375 c 0
 515.10583145 363.094726562 468.24824843 305.399414062 462.039783393 259.69140625 c 0
 461.263486549 254 l 1
 465.34835481 254 l 1
 466.325171133 253.969726562 470.973403647 253.823242188 470.973403647 253.823242188 c 2
EndSplineSet
EndChar

StartChar: n
Encoding: 110 110 61
Width: 486
Flags: HW
LayerCount: 2
Fore
SplineSet
38.9853515625 82.603515625 m 0
 51.154296875 167.893554688 168.359409224 517 248.949203666 517 c 0
 275.239822512 517 288.82816924 500.216796875 289.149698424 466.102539062 c 1
 281.271298742 410.270507812 263.4871831 360.89453125 256.6565573 311.721679688 c 0
 256.606084695 311.362304688 l 1
 256.606084695 311 l 0
 256.606084695 311 253.416963837 301 262.348745467 301 c 0
 264.2470762 301 l 1
 265.628530077 302.359375 l 0
 315.59266976 353.110351562 385.979492188 459 451.032226562 459 c 0
 455.240234375 459 459.103515625 458.721679688 462.637695312 458.193359375 c 0
 500.505859375 452.618164062 505.478515625 417.73828125 498.08203125 365.439453125 c 1
 491.16015625 314.767578125 474.158203125 262.516601562 467.081054688 209.6953125 c 1
 461.064453125 168.54296875 458.02734375 130.045898438 459.032226562 89.8125 c 1
 459.032226562 75.259765625 463.822265625 64.453125 462.090820312 53 c 0
 458.913085938 30.4716796875 392.569335938 2 373.373520386 2 c 0
 370.325535885 2 367.419622418 2.2080078125 364.647367885 2.607421875 c 0
 308.729330234 10.3310546875 299.940554317 97.2587890625 308.252644526 162.694335938 c 1
 310.097698621 179.297851562 315.830077937 197.438476562 317.828419201 215.416015625 c 0
 317.861132926 215.70703125 l 1
 317.861132926 216 l 0
 317.861132926 216 320.319335698 229 310.204251898 229 c 0
 308.285358251 229 l 1
 306.898296307 227.615234375 l 0
 263.571304108 183.362304688 221.379010831 130.046875 181.228054 81 c 0
 151.768554688 45.623046875 126.85546875 -10 89.0322265625 -10 c 0
 49.984375 -10 33.0703125 35.0546875 38.9853515625 82.603515625 c 0
EndSplineSet
EndChar

StartChar: o
Encoding: 111 111 62
Width: 503
Flags: HW
LayerCount: 2
Fore
SplineSet
184.678710938 -8.2568359375 m 0
 100.3125 4.1904296875 32.9013671875 57.9716796875 48.962890625 171.73046875 c 0
 74.619140625 354.825195312 250.364257812 515 396.118164062 515 c 0
 403.963867188 515 416.282226562 514.807617188 427.36328125 513.154296875 c 0
 444.095703125 510.609375 451.966796875 505.588867188 451.059570312 499.418945312 c 0
 447.66796875 471.756835938 422.221679688 477.689453125 398.264648438 474.19921875 c 0
 295.916992188 456.235351562 224.6796875 316.826171875 210.1875 206.889648438 c 0
 202.438476562 151.271484375 214.717773438 88.8828125 269.557617188 76.779296875 c 2
 270.040039062 76.6728515625 l 1
 270.53125 76.6728515625 l 2
 330.430664062 76.6728515625 369.159179688 155.950195312 376.901367188 216.66796875 c 0
 382.754882812 262.31640625 377.9921875 308.323242188 357.06640625 345.411132812 c 0
 347.920898438 360.969726562 336.288085938 374.236328125 328.36328125 386.1953125 c 1
 354.774414062 416.543945312 408.97265625 440.616210938 443.012695312 440.616210938 c 0
 446.317382812 440.616210938 449.478515625 440.388671875 452.506835938 439.951171875 c 0
 508.76953125 431.831054688 525.57421875 347.162109375 516.063476562 280.263671875 c 0
 501.393554688 175.576171875 437.0859375 84.4423828125 358.129882812 33.1376953125 c 1
 356.930664062 35.87890625 354.3515625 35.7666015625 354.3515625 35.7666015625 c 2
 348.184570312 39.044921875 l 1
 348.184570312 30.7978515625 l 2
 348.184570312 29.93359375 348.78515625 28.77734375 349.635742188 27.703125 c 1
 309.662109375 3.0595703125 265.912109375 -11 222.59765625 -11 c 0
 209.736328125 -11 197.016601562 -10.1025390625 184.678710938 -8.2568359375 c 0
321.341796875 460.071289062 m 1
 321.341796875 448 l 2
 321.341796875 446.57421875 323.383789062 441 327.09375 441 c 2
 331.88671875 441 l 1
 331.88671875 446 l 2
 331.88671875 451.228515625 328.895507812 452.192382812 328.895507812 452.192382812 c 1
 321.341796875 460.071289062 l 1
358.729492188 34 m 2
 358.729492188 35.4091796875 358.494140625 36.4814453125 358.129882812 37.2958984375 c 1
 355.318359375 35.466796875 352.486328125 33.689453125 349.635742188 31.96484375 c 1
 350.903320312 30.3935546875 352.724609375 29 353.936523438 29 c 2
 358.729492188 29 l 1
 358.729492188 34 l 2
EndSplineSet
EndChar

StartChar: p
Encoding: 112 112 63
Width: 521
Flags: HW
LayerCount: 2
Fore
SplineSet
462.989257812 125 m 1
 457.989257812 125 l 2
 456.989257812 125 455.989257812 115 455.989257812 114 c 1
 455.989257812 114 462.989257812 113.40234375 462.989257812 120 c 0
 462.989257812 125 l 1
252.650084315 175.368164062 m 1
 247.013560704 164.694335938 229.213415361 136.90234375 226.948217345 121.690429688 c 0
 223.522058076 93.3779296875 252.088511852 75 270.466301597 75 c 0
 365.590437141 75 392.640456186 265.243164062 397.236085382 302.270507812 c 1
 398.452825719 309.809570312 399.168499716 320.759765625 399.194025737 330.977539062 c 0
 399.222387983 342.24609375 400.71518751 364 389.542353557 364 c 0
 382.669236038 364 l 1
 381.246396717 362.500976562 l 0
 331.433784756 310.038085938 286.680052003 241.654296875 252.650084315 175.368164062 c 1
57.9892578125 -197 m 0
 10.515625 -197 9.728515625 -132.327148438 15.943359375 -84.673828125 c 0
 32.15625 31.79296875 173.603560398 507 283.051575382 507 c 0
 307.652987222 507 318.693464029 489.896484375 315.038515978 460.639648438 c 0
 311.324007212 430.905273438 295.846729784 401.954101562 291.807000601 370.661132812 c 0
 291.764457232 370.33203125 l 1
 291.764457232 351 l 1
 299.5092411 357 l 0
 309.185493893 364.49609375 314.686824133 380.963867188 320.925572758 390.169921875 c 1
 355.27697923 442.887695312 401.999997236 515 457.989257812 515 c 0
 463.514648438 515 468.748046875 514.65234375 473.700195312 513.984375 c 0
 548.600585938 503.693359375 565.251953125 416.264648438 553.037109375 328.145507812 c 0
 533.157226562 183.233398438 418.199566519 -10 284.019673365 -10 c 0
 250.76494039 -10 228.545957181 3.7392578125 212.811528726 35.2900390625 c 0
 212.46550933 35.9833984375 l 1
 211.930408296 36.53515625 l 0
 211.930408296 36.53515625 207.654327066 58 198.827050825 58 c 0
 195.622117071 58 l 1
 194.37134204 54.953125 l 0
 179.840418207 19.57421875 100.493164062 -197 57.9892578125 -197 c 0
EndSplineSet
EndChar

StartChar: q
Encoding: 113 113 64
Width: 500
Flags: HW
LayerCount: 2
Fore
SplineSet
199.814998311 118.22265625 m 1
 201.509781247 116.46484375 l 2
 204.067482535 113.810546875 207.539858456 112 211.662481467 112 c 0
 216.0203603 112 218.697571545 114.19140625 221.080242502 115.83984375 c 0
 221.476413305 116.114257812 l 1
 221.814240665 116.46484375 l 0
 276.764354362 173.489257812 354.849525517 256.524414062 373.100672127 275.46484375 c 0
 374.021933923 276.419921875 l 1
 374.353174119 277.727539062 l 0
 378.525671364 294.182617188 360.701749326 294.62109375 354.362075455 295.4921875 c 0
 346.660740892 296.55078125 344.860563348 297.24609375 345.551274439 302.267578125 c 0
 348.944604404 326.03515625 395.378457373 380.127929688 401.448998584 426.32421875 c 0
 402.194289025 432 l 1
 396.67518746 432 l 0
 371.048300343 432 344.531205198 398.998046875 329.765608835 384.6328125 c 0
 257.654053492 313.842773438 213.776019765 222.741210938 200.144356461 120.686523438 c 0
 199.814998311 118.22265625 l 1
220.334952061 -220 m 0
 203.681662988 -220 195.353606917 -201.784179688 198.124920491 -180.696289062 c 0
 208.541107232 -106.006835938 253.560602203 -16.2373046875 282.579878262 54.0302734375 c 0
 282.807605897 54.583984375 l 1
 284.801634238 67 l 1
 279.115030527 67 l 0
 264.123588576 67 249.105797973 48.248046875 241.678301185 43.109375 c 1
 200.34761749 12.1875 159.982423686 -10 114.013671875 -10 c 0
 109.5859375 -10 105.298828125 -9.6904296875 101.158203125 -9.0927734375 c 0
 52.5068359375 -1.92578125 22.005859375 46.552734375 30.96484375 109.571289062 c 0
 50.6806640625 253.280273438 182.634736199 429.6640625 298.534928057 486.952148438 c 0
 340.163916133 507.97265625 381.752440208 515 425.013671875 515 c 0
 437.672851562 515 451.026367188 514.40625 463.84375 512.575195312 c 0
 506.194335938 506.439453125 540.961914062 487.930664062 533.065429688 432.583984375 c 0
 526.291015625 385.458007812 501.287109375 352.09765625 466.698242188 321.01953125 c 0
 465.337890625 319.797851562 l 1
 465.068359375 317.975585938 l 0
 461.629882812 294.720703125 488.399414062 281.076171875 494.833007812 267.854492188 c 1
 492.071289062 251.046875 l 1
 480.205078125 166.779296875 365.009753924 -147.263671875 302.458995155 -190.83984375 c 0
 280.057935859 -206.337890625 244.873075237 -220 220.334952061 -220 c 0
EndSplineSet
EndChar

StartChar: r
Encoding: 114 114 65
Width: 305
Flags: HW
LayerCount: 2
Fore
SplineSet
79.056640625 3 m 0
 38.6630859375 3 32.9306640625 44.7490234375 39.0078125 88.30078125 c 0
 44.0107421875 123.3203125 48.9794921875 158.014648438 58.8623046875 191.616210938 c 1
 79.419921875 264.596679688 150.284179688 497 231.056640625 497 c 0
 262.791015625 497 255.051757812 456 268.056640625 456 c 0
 270.708984375 456 274.549804688 458.967773438 275.270507812 460.146484375 c 1
 290.953125 476.030273438 306.828125 497 324.056640625 497 c 0
 352.981445312 497 351.427734375 450.194335938 347.110351562 416.731445312 c 1
 344.112304688 398.745117188 342.076171875 379.71875 337.225585938 361.288085938 c 0
 328.994140625 330.419921875 277.974609375 220 248.056640625 220 c 0
 245.893554688 220 243.216796875 226.272460938 243.057617188 233.63671875 c 1
 248.240234375 268.45703125 255.947265625 299.888671875 261.00390625 334.272460938 c 0
 261.020507812 334.38671875 l 1
 261.032226562 334.502929688 l 0
 261.896484375 343.14453125 265.759765625 358.041015625 257.180664062 364.904296875 c 0
 254.177734375 367.306640625 l 1
 251.084960938 365.020507812 l 0
 223.947265625 344.962890625 194.795898438 121.19140625 175.348632812 68.68359375 c 1
 166.341796875 42.5625 103.469726562 3 79.056640625 3 c 0
EndSplineSet
EndChar

StartChar: s
Encoding: 115 115 66
Width: 371
Flags: HW
LayerCount: 2
Fore
SplineSet
96.546875 -9.19140625 m 0
 58.75 -3.6650390625 26.365234375 14.662109375 33.9599609375 66.302734375 c 0
 40.5771484375 115.461914062 105.78515625 171 154.855818302 171 c 0
 161.737256118 171 165.832723461 170.705078125 167.60775872 168.799804688 c 1
 164.146621462 150.598632812 145.241210938 129.340820312 141.088867188 96.89453125 c 0
 140.26953125 92.3876953125 139.338867188 84.8095703125 139.282226562 76.875 c 0
 139.206054688 66.060546875 140.251953125 47 154.855818302 47 c 0
 178.514787747 47 215.958412398 96.787109375 219.862400989 131.125 c 0
 224.323583675 164.578125 199.11644953 179.15234375 172.48003086 190.852539062 c 0
 126.142578125 210.376953125 69.099609375 224.920898438 78.9541015625 296.595703125 c 0
 81.80859375 315.065429688 89.51953125 333.943359375 100.3515625 353.0625 c 0
 149.770507812 442.94921875 236.230658129 515 320.008789062 515 c 0
 324.37890625 515 328.666015625 514.704101562 332.84765625 514.126953125 c 0
 377.6015625 507.951171875 410.918945312 469.724609375 403.060546875 414.71875 c 0
 394.294921875 354.3359375 344.387695312 294.938476562 289.965820312 294 c 0
 288.9609375 294 288.087890625 293.80078125 287.333007812 293.46875 c 2
 286.764648438 293.681640625 l 2
 279.198127167 296.662109375 275.552771014 299.998046875 274.770521324 304.984375 c 1
 278.555629742 333.836914062 291.674804688 358.931640625 295.921875 390.981445312 c 0
 297.381835938 398.196289062 297.935546875 406.934570312 297.990234375 407.576171875 c 0
 298.248046875 409.375 298.4765625 413.9921875 298.481445312 418.953125 c 0
 298.4921875 428.883789062 300.141601562 457 287.008789062 457 c 0
 255.353123863 457 221.793523193 374.830078125 217.1590114 339.162109375 c 0
 211.893799451 295.155273438 253.802236717 279.201171875 280.30616298 279.201171875 c 0
 281.586620419 279.201171875 283.230978236 279.299804688 285.05078125 279.876953125 c 1
 294.122070312 271.583007812 330.469726562 261.223632812 333.616210938 259.385742188 c 0
 358.986328125 245.943359375 370.803710938 223.9375 366.064453125 190.037109375 c 0
 360.321289062 150.916015625 336.26953125 120.133789062 308.502929688 91.7607421875 c 0
 250.400085804 31.7919921875 192.894751301 -11 123.008789062 -11 c 0
 114.33203125 -11 105.330078125 -10.474609375 96.546875 -9.19140625 c 0
297.5 284.655273438 m 1
 287.333007812 288.46875 l 1
 284.073121753 287.028320312 283.093948418 283.0859375 283.093948418 282 c 0
 283.093948418 280.94921875 283.781819954 279.826171875 285.05078125 278.662109375 c 0
 285.768554688 278.875976562 286.504882812 279.158203125 287.245117188 279.528320312 c 2
 297.5 284.655273438 l 1
EndSplineSet
EndChar

StartChar: t
Encoding: 116 116 67
Width: 313
Flags: HW
LayerCount: 2
Fore
SplineSet
298.85546875 508.9765625 m 2
 297.107421875 504.814453125 l 1
 293.4609375 484.362304688 359.240234375 497.459960938 355.072265625 466.858398438 c 0
 345.4609375 394.3359375 294.265625 371.239257812 250.780766093 368.278320312 c 2
 249.615229436 368.190429688 l 1
 248.632001474 367.479492188 l 2
 232.152534439 355.559570312 206.710736559 231.258789062 201.28041543 184.419921875 c 0
 188.120559632 79.8447265625 251.357781962 89.30078125 265.598632812 85.53125 c 1
 262.776367188 78.4013671875 256.211914062 71.8330078125 253.491210938 69.05859375 c 2
 253.362304688 68.9267578125 l 1
 253.243164062 68.7861328125 l 2
 219.059053166 24.4501953125 174.739455418 -10 126.02734375 -10 c 0
 121.080078125 -10 116.33984375 -9.6865234375 111.8046875 -9.080078125 c 0
 54.7919921875 -1.3095703125 26.958984375 54.5380859375 36.9775390625 127.865234375 c 0
 44.853515625 184.041992188 68.65625 243.84375 90.64453125 297.828125 c 2
 90.7138671875 297.997070312 l 1
 90.7705078125 298.169921875 l 2
 94.4892578125 309.5390625 108.69921875 334.927734375 110.96875 349.9609375 c 2
 111.498046875 353.466796875 l 1
 108.455078125 355.189453125 l 2
 90.689453125 365.247070312 79.388671875 373.23046875 82.97265625 397.884765625 c 2
 82.990234375 398.004882812 l 1
 83.001953125 398.125 l 2
 83.8544921875 406.815429688 88.228515625 415.240234375 93.1708984375 424.315429688 c 0
 120.370117188 465.377929688 126.194335938 474.998046875 152.057617188 486.711914062 c 2
 152.90625 487.095703125 l 2
 155.412078769 488.21875 162.652211942 490.84765625 164.485918816 491.96875 c 0
 175.665158792 499.797851562 180.183051451 520.361328125 181.884009275 525.142578125 c 0
 214.709309303 603.623046875 252.204101562 701 342.02734375 701 c 0
 342.845703125 701 343.655273438 700.977539062 344.455078125 700.93359375 c 1
 343.614257812 699.909179688 343.02734375 698.8203125 343.02734375 698 c 2
 343.02734375 689.91015625 l 1
 345.712890625 691.252929688 347.3359375 691.939453125 350.762695312 693.653320312 c 0
 351.657226562 694.099609375 354.02734375 698 354.02734375 699 c 2
 354.02734375 699.168945312 l 1
 366.155273438 695.124023438 373.75390625 684.438476562 371.081054688 667.732421875 c 0
 368.297851562 647.327148438 353.865234375 627.89453125 344.51953125 608.1640625 c 0
 326.709960938 571.5546875 314.67578125 546.487304688 298.85546875 508.9765625 c 2
344.455078125 700.93359375 m 1
 347.858398438 700.744140625 351.077148438 700.153320312 354.02734375 699.168945312 c 1
 354.02734375 704 l 1
 349.02734375 704 l 2
 347.735351562 704 345.780273438 702.545898438 344.455078125 700.93359375 c 1
EndSplineSet
EndChar

StartChar: u
Encoding: 117 117 68
Width: 514
Flags: HW
LayerCount: 2
Fore
SplineSet
81.017578125 -12 m 0
 38.306640625 -12 35.78125 43.0048828125 41.96875 88.2060546875 c 0
 56.8251953125 195.223632812 142.245117188 428.291992188 212.285549628 492.853515625 c 0
 229.31775242 508.995117188 254.133473586 515 273.555616878 515 c 0
 276.5385784 515 279.397484812 514.797851562 282.129516678 514.409179688 c 0
 312.464750452 510.000976562 329.600332503 481.618164062 323.647566819 439.274414062 c 1
 314.293623522 366.942382812 248.318860185 275.359375 219.037155039 196.779296875 c 0
 218.813479915 196.1796875 l 1
 218.738295 195.540039062 l 0
 217.395304447 184.159179688 224.879022972 179.616210938 232.173839397 179.616210938 c 0
 242.194109008 179.616210938 282.121058375 224.296875 296.186276439 239.196289062 c 1
 340.143137276 284.725585938 456.537109375 418.165039062 503.017578125 418.165039062 c 0
 538.220703125 418.165039062 538.256835938 386.561523438 532.06640625 343.434570312 c 0
 524.127929688 285.778320312 509.115234375 229.620117188 501.0703125 170.157226562 c 0
 494.09765625 121.416015625 494.771484375 72.640625 488.295898438 24.9853515625 c 1
 464.9375 1.1181640625 432.296875 -10 405.39988467 -10 c 0
 399.145439513 -10 393.330826112 -9.615234375 387.940067672 -8.87109375 c 0
 333.587012646 -1.37109375 318.800959205 42.9375 328.356022151 114.244140625 c 1
 331.096512321 131.330078125 334.016506476 132 335.123604356 143.502929688 c 0
 335.147099642 143.750976562 l 1
 335.147099642 144 l 0
 335.147099642 147.010742188 333.960117789 149.646484375 332.714867626 152.236328125 c 0
 330.628486222 156.5703125 l 1
 326.393695857 154.540039062 l 0
 300.0019109 141.8828125 276.834619005 114.532226562 254.187042839 95.90234375 c 1
 218.38680552 65.740234375 121.443359375 -12 81.017578125 -12 c 0
EndSplineSet
EndChar

StartChar: v
Encoding: 118 118 69
Width: 401
Flags: HW
LayerCount: 2
Fore
SplineSet
130.6796875 -10 m 0
 53.9248046875 -10 65.193359375 224.489257812 73.6337890625 289.024414062 c 0
 84.9755859375 373.111328125 95.8642578125 515 178.6796875 515 c 0
 182.979492188 515 187.127929688 514.721679688 190.872558009 514.181640625 c 0
 232.606582844 507.989257812 257.480403192 467.790039062 250.043600534 410.737304688 c 0
 225.852872356 226.170898438 l 1
 224.067022347 210.510742188 242.256168118 214.326171875 242.256168118 214.326171875 c 0
 244.376297275 214.64453125 l 1
 245.534465516 216.616210938 l 0
 282.427801287 279.395507812 370.775390625 503.801757812 415.6796875 503.801757812 c 0
 450.962890625 503.801757812 440.173828125 435.766601562 435.720703125 399.45703125 c 1
 422.94140625 303.250976562 205.015836058 -10 130.6796875 -10 c 0
EndSplineSet
EndChar

StartChar: w
Encoding: 119 119 70
Width: 611
Flags: HW
LayerCount: 2
Fore
SplineSet
457.55859375 30 m 1
 452.684570312 30 l 2
 450.625976562 30 446.8359375 26.111328125 446.8359375 24 c 2
 446.8359375 15.91015625 l 1
 449.454101562 17.2529296875 451.036132812 17.939453125 454.376953125 19.6533203125 c 0
 455.249023438 20.099609375 457.55859375 24 457.55859375 25 c 2
 457.55859375 30 l 1
440.01171875 24.6630859375 m 2
 440.01171875 26.7744140625 l 1
 436.182617188 30.78125 l 1
 434.163085938 30.78125 l 2
 428.201171875 30.78125 428.485351562 26.2255859375 428.485351562 26.2255859375 c 1
 428.314453125 25.8662109375 l 1
 428.314453125 24.6630859375 l 2
 428.314453125 22.509765625 432.10546875 18.544921875 434.163085938 18.544921875 c 2
 435.314453125 18.544921875 l 1
 435.314453125 18.544921875 424.139648438 12.697265625 405.739257812 3.0703125 c 1
 379.235351562 41.818359375 365.814453125 95.15625 364.953125 150.1328125 c 0
 364.953125 151.31640625 365.801757812 174.359375 365.823242188 194.918945312 c 0
 365.836914062 208.044921875 368.822265625 233.709960938 358.129882812 233.709960938 c 0
 344.092773438 233.709960938 293.64453125 125.116210938 265.850585938 86.2998046875 c 1
 236.778320312 59.849609375 221.268554688 27.7216796875 187.361328125 27.7216796875 c 0
 120.669921875 27.7216796875 128 267.366210938 133.338867188 323.978515625 c 2
 133.361328125 324.221679688 l 1
 133.361328125 324.384765625 l 2
 133.455078125 326.293945312 135.400390625 349.962890625 136.318359375 357.44921875 c 0
 148.26171875 444.731445312 173.000976562 499.862304688 252.852539062 499.862304688 c 0
 283.13671875 499.862304688 285.108398438 478.424804688 280.20703125 444.577148438 c 0
 277.291015625 426.279296875 274.35546875 406.829101562 271.439453125 388.528320312 c 0
 269.45703125 376.08203125 269.536132812 363.442382812 270.372070312 354.072265625 c 1
 269.29296875 345.732421875 256.911132812 265.385742188 256.771484375 227.6328125 c 0
 256.740234375 219.307617188 255.516601562 204.137695312 265.524414062 204.137695312 c 0
 281.111328125 204.137695312 388.381835938 454.975585938 403.146484375 477.688476562 c 0
 410.076171875 489.135742188 417.387695312 496.905273438 425.389648438 502.118164062 c 1
 425.389648438 500.790039062 l 1
 428.008789062 502.159179688 429.590820312 502.859375 432.931640625 504.606445312 c 0
 433.3515625 504.826171875 434.104492188 505.862304688 434.772460938 506.991210938 c 0
 444.700195312 510.900390625 455.709960938 512 468.28125 512 c 0
 470.90625 512 473.35546875 511.915039062 475.633789062 511.745117188 c 0
 519.689453125 508.409179688 505.220703125 473.032226562 497.537109375 362.59765625 c 0
 496.352539062 345.264648438 492.3671875 262.713867188 492.331054688 199.267578125 c 0
 492.309570312 161.575195312 490.580078125 118.732421875 504.34765625 118.732421875 c 2
 507.118164062 118.732421875 l 1
 508.536132812 121.21875 l 2
 536.508789062 170.295898438 546.216796875 235.19140625 554.001953125 290.122070312 c 0
 556.962890625 309.71484375 558.913085938 332.159179688 561.809570312 353.349609375 c 0
 568.625976562 402.204101562 579.202148438 449.10546875 618.288085938 477.309570312 c 0
 637.146484375 491.465820312 657.232421875 502.834960938 676.361328125 502.834960938 c 0
 699.348632812 502.834960938 704.442382812 486.473632812 699.41015625 447.506835938 c 0
 683.53515625 332.264648438 633.77734375 206.390625 578.040039062 101.7890625 c 0
 550.255859375 47.857421875 511.825195312 -29 458.533203125 -29 c 0
 441.461914062 -29 427.266601562 -21.853515625 415.3046875 -9.58203125 c 0
 411.96875 -5.59375 408.80078125 -1.400390625 405.80078125 2.98046875 c 1
 415.869140625 8.24609375 426.209960938 13.6552734375 436.830078125 19.2099609375 c 0
 437.702148438 19.666015625 440.01171875 23.6435546875 440.01171875 24.6630859375 c 2
398.095703125 51 m 2
 393.932617188 51 389.323242188 48.158203125 389.323242188 43 c 0
 389.323242188 38.646484375 392.427734375 35.8173828125 394.94140625 34.5283203125 c 2
 400.990234375 31.42578125 l 1
 403.71484375 51 l 1
 398.095703125 51 l 2
459.5078125 49 m 1
 454.633789062 49 l 2
 452.575195312 49 448.78515625 45.111328125 448.78515625 43 c 2
 448.78515625 34.91015625 l 1
 451.404296875 36.2529296875 452.986328125 36.939453125 456.326171875 38.6533203125 c 0
 457.198242188 39.099609375 459.5078125 43 459.5078125 44 c 2
 459.5078125 49 l 1
436.112304688 515 m 1
 431.239257812 515 l 2
 429.180664062 515 425.389648438 511.111328125 425.389648438 509 c 2
 425.389648438 502.211914062 l 1
 428.413085938 504.143554688 431.536132812 505.716796875 434.772460938 506.991210938 c 0
 435.4921875 508.18359375 436.112304688 509.481445312 436.112304688 510 c 2
 436.112304688 515 l 1
405.739257812 7.8251953125 m 0
 269.927734375 -61.8583984375 -271.23828125 -333.51171875 405.80078125 7.7373046875 c 1
 405.780273438 7.7666015625 405.758789062 7.7958984375 405.739257812 7.8251953125 c 0
EndSplineSet
EndChar

StartChar: x
Encoding: 120 120 71
Width: 487
Flags: HW
LayerCount: 2
Fore
SplineSet
356.643932183 -10 m 0
 295.033875317 -10 271.813886896 44.2236328125 252.189130587 107.546875 c 1
 250.252803803 117.301757812 243.881482661 115.388671875 242.436266833 115.388671875 c 0
 238.326492899 115.388671875 235.253300486 110.888671875 235.253300486 110.888671875 c 1
 200.194163982 75.71875 130.235351562 -1.8447265625 86.0205078125 -1.8447265625 c 0
 83.2021484375 -1.8447265625 80.4931640625 -1.66015625 77.8994140625 -1.3037109375 c 0
 49.4677734375 2.599609375 32.748046875 27.3154296875 37.96875 63.68359375 c 0
 45.5400390625 116.747070312 98.4853515625 148.520507812 135.29296875 181.873046875 c 0
 153.826171875 197.783203125 200.518447171 236.00390625 203.991838779 259.370117188 c 0
 208.157846792 288.137695312 192.849993275 314.859375 185.506759803 335.333007812 c 0
 171.18768884 375.892578125 158.880860668 410.799804688 128.1015625 447.641601562 c 1
 121.172851562 458.442382812 103.577148438 469.677734375 104.970703125 479.619140625 c 0
 108.100585938 501.955078125 149.619140625 500.728515625 168.537189254 500.728515625 c 0
 200.82679737 500.728515625 224.403872192 496.798828125 249.266832953 478.21484375 c 0
 263.628079474 467.446289062 307.274159829 404.903320312 322.093714094 404.903320312 c 2
 323.939129117 404.903320312 l 1
 325.309366174 406.215820312 l 2
 365.555159223 444.793945312 420.513671875 515 474.020507812 515 c 0
 477.354492188 515 481.421875 514.749023438 485.663085938 514.125 c 0
 502.595703125 511.584960938 517.497070312 504.29296875 515.072265625 488.223632812 c 0
 509.517578125 446.692382812 426.828125 357.97265625 397.2578125 319.581054688 c 0
 390.70585102 311.720703125 377.334324287 298.404296875 374.940626994 284.41796875 c 0
 371.659368489 260.020507812 389.116301056 236.48046875 394.34700763 220.73828125 c 2
 394.446354503 220.439453125 l 1
 394.580379058 220.155273438 l 2
 396.090820312 217.010742188 408.338867188 181.904296875 410.37890625 176.705078125 c 0
 422.739257812 145.201171875 457.6640625 83.560546875 453.0625 49.787109375 c 0
 447.67578125 7.681640625 388.041292914 -10 356.643932183 -10 c 0
EndSplineSet
EndChar

StartChar: y
Encoding: 121 121 72
Width: 435
Flags: HW
LayerCount: 2
Fore
SplineSet
31.96484375 -142 m 0
 22.7705078125 -142 13.7783203125 -138.095703125 14.916015625 -130.700195312 c 0
 18.732421875 -101.127929688 39.2529296875 -64.6884765625 58.7353515625 -42.2841796875 c 0
 83.7353515625 -13.5810546875 148.354416364 10.3564453125 150.245173188 22.177734375 c 2
 150.266722944 22.3125 l 1
 150.280777132 22.4482421875 l 2
 151.596249175 34.7861328125 136.390554179 65.2607421875 133.646484375 72.755859375 c 0
 108.845703125 153.110351562 83.123046875 242.80078125 95.91796875 335.31640625 c 0
 99.9228515625 364.34765625 109.411132812 427.768554688 129.840820312 452.841796875 c 0
 150.238614567 478.674804688 180.633139532 493 207.875778492 493 c 0
 244.577823249 493 241.455919514 457.140625 241.455919514 414 c 0
 241.455919514 363.833007812 234.10464199 252.4296875 234.027812426 188.362304688 c 0
 233.998767103 163.88671875 232.268228028 136 244.334217316 136 c 0
 261.642418909 136 310.241802692 266.350585938 333.107967358 316.877929688 c 0
 362.336931624 381.868164062 374.676757812 443.938476562 433.39453125 477.629882812 c 0
 446.380859375 484.622070312 456.516601562 490 468.96484375 490 c 0
 482.247070312 490 493.303710938 485.204101562 491.021484375 470.751953125 c 0
 485.208007812 431.024414062 458.5234375 378.295898438 439.530273438 342.309570312 c 0
 365.717432428 198.212890625 289.144591883 41.9111328125 175.026455272 -59.1904296875 c 0
 136.4542665 -93.36328125 78.052734375 -142 31.96484375 -142 c 0
110.96484375 -77.625 m 2
 110.96484375 -81 l 2
 110.96484375 -82.080078125 110.383789062 -84.6796875 111.389648438 -87.3896484375 c 1
 113.327148438 -86.4521484375 114.919921875 -85.7373046875 117.701171875 -84.3466796875 c 0
 118.595703125 -83.900390625 120.96484375 -80 120.96484375 -79 c 2
 120.96484375 -76 l 1
 112.38671875 -76 l 2
 111.85546875 -76.505859375 111.364257812 -77.064453125 110.96484375 -77.625 c 2
117.96484375 -66 m 2
 120.077148438 -66 123.96484375 -62.111328125 123.96484375 -60 c 2
 123.96484375 -37.8193359375 l 1
 109.875 -66 l 1
 117.96484375 -66 l 2
145.512659452 -22.91015625 m 1
 145.512659452 -32 l 2
 145.512659452 -33.4755859375 147.069863536 -36.6943359375 147.877510901 -37.53515625 c 2
 156.066418059 -46.0712890625 l 1
 156.066418059 -34 l 1
 156.066418059 -34 157.013670363 -28.9033203125 152.455428564 -26.5283203125 c 2
 145.512659452 -22.91015625 l 1
226.173394955 97 m 1
 224.186132703 97 l 2
 218.318977483 97 218.598187361 92.5322265625 218.598187361 92.5322265625 c 1
 218.429537099 92.1806640625 l 1
 218.429537099 91 l 2
 218.429537099 88.888671875 222.160455669 85 224.186132703 85 c 2
 226.173394955 85 l 1
 231.929990558 91 l 1
 226.173394955 97 l 1
432.618164062 409.736328125 m 2
 436.96484375 401 l 1
 439.036132812 401 l 1
 442.96484375 404.928710938 l 1
 442.96484375 413 l 1
 437.96484375 413 l 2
 436.96484375 413 433.065429688 410.630859375 432.618164062 409.736328125 c 2
196.449723253 489 m 1
 182.930530876 489 l 1
 182.930530876 460.819335938 l 1
 196.449723253 489 l 1
123.8671875 -76 m 1
 120.96484375 -76 l 1
 120.96484375 -74 l 1
 115.96484375 -74 l 2
 114.969726562 -74 113.578125 -74.8642578125 112.38671875 -76 c 1
 110.96484375 -76 l 1
 110.96484375 -77.625 l 2
 110.359375 -78.474609375 109.96484375 -79.3271484375 109.96484375 -80 c 2
 109.96484375 -88.08984375 l 2
 110.471679688 -87.8369140625 110.939453125 -87.607421875 111.389648438 -87.3896484375 c 1
 111.783203125 -88.44921875 112.419921875 -89.5263671875 113.4296875 -90.53515625 c 2
 120.299804688 -97.4052734375 l 1
 123.8671875 -76 l 1
EndSplineSet
EndChar

StartChar: z
Encoding: 122 122 73
Width: 382
Flags: HW
LayerCount: 2
Fore
SplineSet
150.137695312 8.173828125 m 0
 95.642578125 15.4609375 31.2109375 36.544921875 37.9345703125 86.298828125 c 0
 41.3916015625 109.634765625 101.267578125 168.219726562 129.455078125 195.400390625 c 0
 129.557617188 195.5 l 1
 129.654296875 195.604492188 l 0
 189.385203298 262.637695312 235.180343775 317.740234375 281.911027084 379.861328125 c 1
 282.896672016 380.91796875 287.212740117 387.504882812 287.212740117 387.504882812 c 1
 289.552963619 390.012695312 l 1
 285.82718934 398 l 1
 273.808151238 398 l 1
 273.103078062 397.75390625 l 0
 229.968814521 382.674804688 176.200152709 360 129.984375 360 c 0
 113.282226562 360 103.236328125 371.60546875 105.938476562 392.323242188 c 1
 112.59765625 438.94140625 163.34668692 486.385742188 197.710350275 496 c 1
 237.222687524 495.939453125 256.451873161 493 290.407432145 493 c 0
 304.092773438 493 339.552734375 495.049804688 369.631835938 490.760742188 c 0
 399.581054688 486.490234375 418.696289062 476.9609375 416.034179688 458.70703125 c 0
 413.333007812 439.798828125 397.124023438 422.34765625 386.625976562 403.451171875 c 0
 359.712890625 355.604492188 340.913085938 327.903320312 300.876953125 270.8515625 c 0
 277.287969758 234.913085938 227.434559253 168.69921875 226.071782158 155.551757812 c 0
 226.043542793 155.27734375 l 1
 226.043542793 155 l 0
 226.043542793 152.553710938 226.775944387 149.143554688 228.341862721 147.46484375 c 0
 229.708283606 146 l 1
 231.640402737 146 l 0
 262.625362718 146 288.361444607 148.006835938 319.583984375 158.262695312 c 1
 337.749023438 164.673828125 346.978515625 172 358.984375 172 c 0
 364.607421875 172 367.083007812 166.9921875 365.046875 155.797851562 c 1
 350.438476562 52.564453125 267.260262359 5 191.52957314 5 c 0
 181.925456215 5 167.132583718 5.8076171875 150.137695312 8.173828125 c 0
EndSplineSet
EndChar

StartChar: sterling
Encoding: 163 163 74
Width: 867
Flags: HW
LayerCount: 2
Fore
SplineSet
40.9505511783 82.2984612009 m 0
 60.1731150842 215.895280347 240.913653716 177.50587638 260.460876086 315.333677861 c 1
 264.015813102 344.197466958 236.437068199 354.346147469 239.762775187 376.28575147 c 0
 253.255412781 471.165166636 329.079651606 457.805679441 355.28716498 498.281668453 c 1
 466.862681249 675.657797471 611.725877819 884 819.169795917 884 c 0
 826.507640743 884 833.834144056 883.498815065 841.082659542 882.50930683 c 0
 906.607842878 873.564343051 960.308425915 825.380236795 949.051148152 745.713348014 c 0
 933.406781869 637.180556926 795.230389135 505 696.992575573 505 c 0
 682.574838525 505 675.70209503 511.091077106 678.218683304 527.267256695 c 0
 685.434986808 576.704017622 793.216339938 651.191335483 810.255704057 776.315450425 c 0
 811.029824298 782 l 1
 805.37559362 782 l 0
 736.99477305 782 586.905831856 553.196639503 578.809745037 497.732743305 c 1
 577.817749581 493.705562583 578.616077032 481 590.580157854 481 c 0
 746.257583776 481 l 0
 760.608134916 481 766.955985498 461.354342419 765.018358821 444.638799932 c 1
 758.451676727 397.034147251 690.392289924 324 645.756967042 324 c 0
 488.108940792 324 l 0
 465.238219326 324 430.08621735 247.204305851 429.041439361 238.721384381 c 1
 428.084356962 232.893216883 427.691953826 221.175707156 439.619680961 218.149287499 c 0
 439.802299459 218.102951747 l 1
 439.987869291 218.070894151 l 0
 486.551452911 210.026932879 508.865906127 210 553.13875162 210 c 0
 653.976062612 210 737.783847099 227.412695365 828.938267697 295.198237367 c 1
 831.526638259 295.660614222 833.342483221 296 834 296 c 0
 842.683894117 296 843.174442996 291.576392056 841.04909433 276.698951389 c 0
 829.569179522 195.279145625 669.203009788 72.6099414397 599.482095724 49.9395007594 c 1
 585.563435717 48.9927537062 530.315571641 49 518.653245878 49 c 0
 431.597345512 49 347.854102111 66 260.504602894 66 c 0
 200.191482643 66 156.840214841 11 101 11 c 0
 98.3263801659 11 95.6909775635 11.172610278 93.1040311309 11.5080090896 c 0
 60.8196192816 15.6936981435 35.7776373151 45.2259118479 40.9505511783 82.2984612009 c 0
EndSplineSet
EndChar

StartChar: section
Encoding: 167 167 75
Width: 569
Flags: HW
LayerCount: 2
Fore
SplineSet
270.75390625 356.764648438 m 0
 270.1875 352.7109375 269.930664062 348.75 269.916015625 344.537109375 c 0
 269.743164062 294.423828125 306.51953125 222 353.83203125 222 c 0
 385.96875 222 394.935546875 258.8671875 397.799804688 281.3203125 c 0
 398.327148438 285.249023438 398.579101562 289.31640625 398.580078125 293.482421875 c 0
 398.591796875 345.590820312 358.96875 420 309.819335938 420 c 0
 281.3828125 420 272.376953125 366.717773438 270.75390625 356.764648438 c 0
-40.048828125 -120.6953125 m 0
 -30.552734375 -53.2783203125 60.935546875 0 115.184570312 0 c 0
 122.520507812 0 129.329101562 0.216796875 134.309570312 -0.5810546875 c 0
 141.931640625 -1.802734375 145.736328125 -3.6201171875 143.603515625 -17.2509765625 c 0
 138.924804688 -48.8212890625 120.34375 -77.8076171875 115.23828125 -112.2578125 c 0
 114.46484375 -117.532226562 113.869140625 -122.763671875 113.818359375 -127.756835938 c 0
 113.670898438 -142.225585938 119.39453125 -156 138.658203125 -156 c 0
 189.018554688 -156 237.25390625 -77.8037109375 243.264648438 -30.68359375 c 0
 259.770507812 91.662109375 54.5830078125 139.860351562 76.9521484375 301.306640625 c 0
 83.7197265625 350.43359375 106.014648438 409.744140625 138.515625 449.815429688 c 0
 155.307617188 470.598632812 202.69140625 491.69140625 207.07421875 525.298828125 c 1
 213.30078125 567.7421875 188.822265625 604.727539062 194.358398438 645.29296875 c 0
 215.369140625 795.665039062 370.751953125 866 487.827148438 866 c 0
 500.732421875 866 513.533203125 865.19140625 525.932617188 863.466796875 c 0
 598.279296875 853.604492188 655.3515625 814.916992188 643.046875 724.678710938 c 0
 633.296875 653.506835938 580.891601562 596 513.256835938 596 c 0
 507.469726562 596 501.461914062 596.098632812 496.110351562 596.787109375 c 0
 483.22265625 598.444335938 476.454101562 602.1875 478.000976562 614.3125 c 1
 482.69140625 646.924804688 501.28125 679.96875 506.361328125 715.29296875 c 0
 507.188476562 721.208984375 508.709960938 733.080078125 508.770507812 745.16015625 c 0
 508.845703125 760.204101562 507.109375 783 489.783203125 783 c 0
 446.475585938 783 390.325195312 708.489257812 384.19921875 665.692382812 c 0
 370.440429688 565.05078125 613.41015625 523.090820312 590.05078125 354.70703125 c 0
 576.25390625 258.1328125 520.145507812 168.434570312 437.336914062 116.256835938 c 0
 435.412109375 115.043945312 l 1
 435.068359375 112.760742188 l 0
 428.893554688 71.7216796875 446.53125 36.80078125 440.9296875 -3.2880859375 c 0
 419.833007812 -153.302734375 272.520507812 -254 143.547851562 -254 c 0
 130.755859375 -254 116.450195312 -253.057617188 101.650390625 -250.953125 c 0
 28.841796875 -240.755859375 -51.7978515625 -204.504882812 -40.048828125 -120.6953125 c 0
EndSplineSet
EndChar

StartChar: fi
Encoding: 64257 64257 76
Width: 493
Flags: HW
LayerCount: 2
Fore
SplineSet
42.6962890625 -197.173828125 m 0
 5.9482421875 -192.252929688 -2.15234375 -165.9765625 5.0419921875 -114.712890625 c 0
 21.9638671875 1.1044921875 57.8359375 113.069335938 93.859375 225.448242188 c 0
 153.218791539 417.629882812 274.40319082 744 481.09375 744 c 0
 490.520507812 744 499.3515625 743.479492188 507.469726562 742.33984375 c 0
 550.891601562 736.243164062 575.134765625 713.646484375 566.139648438 650.676757812 c 0
 560.215820312 605.262695312 526.553710938 547 485.09375 547 c 0
 455.168945312 547 437.688100366 566.786132812 442.219713036 602.284179688 c 0
 444.830861796 619.329101562 457.591796875 637.424804688 460.944335938 658.787109375 c 0
 463.260742188 668.052734375 453.596679688 670 449.09375 670 c 0
 357.423699247 670 248.192221865 361.630859375 238.577585576 289.245117188 c 2
 238.532108384 288.897460938 l 1
 238.532108384 288.546875 l 2
 238.532108384 285.215820312 239.502288474 281.296875 239.502288474 281.296875 c 1
 239.502288474 277.790039062 l 1
 249.38694559 274.34375 l 1
 250.13447693 274.34375 l 2
 252.231164958 274.22265625 261.411873043 273.330078125 264.726970833 273.330078125 c 0
 294.956039168 273.330078125 339.439364792 283.96484375 355.59987437 330.323242188 c 1
 379.269805235 383.951171875 427.873553921 498.548828125 483.09375 498.548828125 c 0
 536.151367188 498.548828125 514.706054688 394.821289062 509.146484375 354.212890625 c 0
 504.185546875 319.989257812 500.344726562 300.28125 466.349609375 194.788085938 c 0
 452.12109375 151.483398438 399.54789555 14.5390625 367.621959498 0.431640625 c 1
 362.746425565 0.513671875 360.130539598 0.7451171875 356.173076474 1.3134765625 c 0
 318.974628504 6.6630859375 285.387827511 35.498046875 292.813873948 88.99609375 c 2
 303.534174462 168.48046875 l 1
 303.534174462 168.8359375 l 1
 303.534174462 168.8359375 304.113061215 175.9375 297.713093918 175.9375 c 2
 296.201924733 175.9375 l 1
 294.958881492 175.041015625 l 2
 266.478790157 154.501953125 245.030609597 136.17578125 215.765089263 133.306640625 c 2
 214.860282635 133.217773438 l 1
 208.074706649 129.669921875 l 1
 207.590564045 127.276367188 l 2
 196.995325808 74.900390625 180.53637216 22.21484375 165.974196384 -29.556640625 c 0
 144.990262156 -99.59375 129.670133185 -198 56.09375 -198 c 0
 51.2216796875 -198 46.76171875 -197.71875 42.6962890625 -197.173828125 c 0
EndSplineSet
EndChar

StartChar: fl
Encoding: 64258 64258 77
Width: 719
Flags: HW
LayerCount: 2
Fore
SplineSet
54.9755859375 -190.931640625 m 0
 3.8388671875 -183.901367188 7.728515625 -142.849609375 17.0458984375 -76.693359375 c 0
 40.244140625 91.7529296875 243.876953125 755 407.9765625 755 c 0
 411.80078125 755 415.41796875 754.784179688 418.779296875 754.318359375 c 0
 439.84375 751.397460938 453.041015625 739.639648438 447.293945312 698.671875 c 0
 442.16796875 657.940429688 389.134765625 486 358.884765625 486 c 0
 352.26953125 486 347.143554688 495.833984375 349.009765625 507.235351562 c 0
 351.779296875 526.984375 364.560546875 551.055664062 367.666015625 574.250976562 c 0
 368.200195312 577.512695312 370.053710938 588.704101562 370.133789062 598.1796875 c 0
 370.178710938 603.319335938 370.662109375 616 360.848632812 616 c 0
 342.319335938 616 293.49609375 423.130859375 286.374023438 393.208984375 c 0
 275.553710938 350.126953125 259.868164062 288.639648438 258.767578125 278.551757812 c 2
 258.73828125 278.27734375 l 1
 258.73828125 278 l 1
 258.73828125 278 255.89453125 266 265.611328125 266 c 2
 340.23046875 266 l 2
 350.374023438 266 383.455078125 362.642578125 395.588867188 385.594726562 c 0
 456.924804688 499.451171875 607.209960938 756 724.094726562 756 c 0
 727.916015625 756 731.513671875 755.776367188 734.901367188 755.349609375 c 0
 799.048828125 747.262695312 795.900390625 661.9140625 787.14453125 597.70703125 c 0
 761.419921875 413.690429688 638.545898438 258.0859375 494.860351562 184.466796875 c 0
 484.205078125 179.744140625 486.47265625 174.08984375 486.51953125 172.280273438 c 0
 485.618164062 165.962890625 485.458007812 163.689453125 485.452148438 159.529296875 c 0
 485.421875 140.666992188 495.310546875 131 512.051757812 131 c 0
 538.755859375 131 568.954101562 149.911132812 590.051757812 170.375 c 0
 608.825195312 188.540039062 662.08984375 244.1171875 671.5703125 248.990234375 c 1
 680.76953125 248.458984375 684.23828125 231.362304688 682.145507812 216.712890625 c 0
 666.6640625 108.649414062 522.963867188 -5 438.4140625 -5 c 0
 407.390625 -5 380.817382812 -1.09375 353.1640625 12.5029296875 c 0
 331.760742188 23.0263671875 319.407226562 121 302.920898438 121 c 0
 286.322265625 121 227.186523438 117.705078125 215.010742188 104.53515625 c 0
 208.13671875 97.533203125 205.788085938 82.8408203125 203.801757812 69.6904296875 c 0
 199.900390625 37.90234375 160.651367188 -144.329101562 112.927734375 -183.129882812 c 0
 103.817382812 -190.583984375 86.0556640625 -192 72.0947265625 -192 c 0
 65.765625 -192 60.0732421875 -191.6328125 54.9755859375 -190.931640625 c 0
508.124023438 294.35546875 m 1
 508.124023438 294 l 2
 508.124023438 289.979492188 510.487304688 284 516.9609375 284 c 2
 518.213867188 284 l 1
 519.314453125 284.612304688 l 2
 606.579101562 333.185546875 675.9453125 517.571289062 691.056640625 628.385742188 c 0
 691.827148438 635.319335938 693.80078125 651 681.094726562 651 c 0
 641.423828125 651 515.92578125 349.98046875 508.172851562 294.70703125 c 2
 508.124023438 294.35546875 l 1
EndSplineSet
EndChar

StartChar: AE
Encoding: 198 198 78
Width: 1158
Flags: HW
LayerCount: 2
Fore
SplineSet
573.478203917 121.732421875 m 1
 570.04050726 145.177734375 566.242321187 203 547.800339852 203 c 0
 527.015660542 203 494.966895054 180.891601562 476.237875229 179.991210938 c 0
 450.610267062 177.999023438 329.86564186 172.995117188 304.15491817 171.99609375 c 2
 302.218133211 171.920898438 l 1
 300.870888583 170.560546875 l 2
 299.063609205 169.0234375 293.424317669 164.571289062 291.81709542 161.10546875 c 0
 219.264009747 61.48046875 187.19108277 -14 71.994140625 -14 c 0
 48.5400390625 -14 23.4375 8.2861328125 26.9462890625 34.962890625 c 0
 33.564453125 80.9560546875 116.282226562 156.60546875 118.94140625 176.82421875 c 0
 123.59375 206.290039062 95.505859375 223.396484375 98.9462890625 247.807617188 c 0
 110.420898438 331.154296875 198.944197486 310.0546875 246.862228959 345.745117188 c 0
 272.970167529 364.685546875 489.842726464 703.41796875 494.309702553 734.29296875 c 0
 498.940976767 767.053710938 469.320924154 770.35546875 472.526670517 792.219726562 c 0
 475.07135854 808.506835938 479.235832786 808.013671875 501.571679691 814.168945312 c 0
 515.967094846 818.047851562 567.134363362 829.03125 574.809985192 830 c 2
 583.427905094 830 l 2
 673.353101367 830 713.187665076 741.92578125 729.990530996 656.030273438 c 2
 730.779161998 652 l 1
 757.693127841 652 l 1
 759.144750101 653.483398438 l 2
 852.767620653 749.079101562 973.516111693 830 1096.06898273 830 c 0
 1107.36132812 830 1118.10742188 829.30078125 1128.15917969 827.888671875 c 0
 1195.640625 818.40625 1232.91503906 777.650390625 1221.04296875 693.6953125 c 0
 1205.32714844 581.717773438 1088.69296337 453 980.279395698 453 c 0
 967.247654983 453 947.345353252 463.439453125 949.551780429 478.302734375 c 0
 958.875215809 545.1875 1076.7475232 614.82421875 1089.10467514 706.385742188 c 0
 1090.56692845 719.681640625 1079.25161992 724 1071.32761798 724 c 0
 978.541701408 724 815.707762343 550.631835938 801.248560857 449.46484375 c 0
 800.247308753 444.322265625 799.57078706 433.823242188 809.483762773 430.427734375 c 2
 809.912870818 430.28125 l 1
 810.361308054 430.216796875 l 2
 867.214258165 422.018554688 939.595314035 420 1006.01041504 420 c 0
 1046.40069299 420 1084.91700586 421.022460938 1116.59765625 421.985351562 c 1
 1136.46191406 418.099609375 1138.70410156 417.102539062 1136.04003906 396.676757812 c 0
 1129.34570312 349.815429688 1059.48655544 270 1014.91730635 270 c 2
 795.213987361 270 l 2
 782.776619276 270 780.271556095 253.057617188 779.427836899 246.869140625 c 0
 778.657568629 241.116210938 778.272917724 235.422851562 778.256487911 229.826171875 c 0
 778.099921462 175.561523438 812.971715327 130 865.479463254 130 c 0
 965.191995497 130 1064.74506191 233 1116.99414062 233 c 0
 1130.48144531 233 1140.80566406 216.197265625 1138.04882812 198.736328125 c 0
 1119.7421875 67.69921875 848.998428367 -29 750.679530809 -29 c 0
 667.27600365 -29 591.94724612 37.0224609375 573.478203917 121.732421875 c 1
520.278470946 547.23828125 m 2
 486.365404965 506.923828125 411.162287177 409.048828125 403.41418088 355.107421875 c 0
 402.431291507 350.095703125 401.50059095 337 413.207315607 337 c 2
 534.934830182 337 l 2
 547.039736178 337 548.898237913 351.240234375 549.729393135 356.278320312 c 0
 550.700684994 364.135742188 551.444858855 383.016601562 551.463221587 406.772460938 c 0
 551.501879969 459.243164062 550.330530982 549 524.048629691 549 c 2
 521.760053452 549 l 1
 520.278470946 547.23828125 l 2
EndSplineSet
EndChar

StartChar: OE
Encoding: 338 338 79
Width: 1169
Flags: HW
LayerCount: 2
Fore
SplineSet
253.892578125 -26.78515625 m 0
 111.9609375 -6.47265625 47.76171875 149.934570312 69.96875 307.233398438 c 0
 104.626953125 559.741210938 381.990234375 823 611.44140625 823 c 0
 646.954101562 823 694.865234375 818.609375 720.731445312 792.46484375 c 0
 736.637695312 776.387695312 792.534179688 659 805.357421875 659 c 0
 806.83203125 659 811.928710938 657.571289062 815.819335938 661.50390625 c 0
 901.526367188 752.114257812 1018.25976562 830 1132.01757812 830 c 0
 1139.43261719 830 1146.4765625 829.497070312 1153.13574219 828.522460938 c 0
 1213.71582031 819.658203125 1244.625 771.842773438 1234.06445312 699.68359375 c 0
 1218.38183594 585.982421875 1088.01367188 453 978.49609375 453 c 0
 964.813476562 453 952.356445312 458.624023438 953.724609375 470.379882812 c 0
 955.955078125 488.418945312 1086.00976562 591.303710938 1101.125 699.26953125 c 0
 1101.9609375 704.762695312 1102.48632812 709.352539062 1102.52246094 713.23046875 c 0
 1102.68945312 730.540039062 1090.73242188 732 1073.47558594 732 c 0
 991.37890625 732 818.967773438 548.642578125 805.454101562 448.508789062 c 0
 804.662109375 444.448242188 802.462890625 415 822.17578125 415 c 2
 1135.01757812 415 l 2
 1142.58007812 415 1143.23925781 404.266601562 1142.05664062 393.622070312 c 0
 1136.52929688 354.013671875 1081.70605469 314.30078125 1056.40722656 291.797851562 c 0
 1033.96484375 272.895507812 1009.65625 269 984.432617188 269 c 0
 971.833007812 269 959.9609375 270 946.836914062 270 c 2
 935.845703125 270 l 1
 912.766601562 268.943359375 808.251953125 263.759765625 784.169921875 261.645507812 c 2
 783.76953125 261.610351562 l 1
 783.380859375 261.508789062 l 2
 771.774414062 258.452148438 771.584960938 246.663085938 770.784179688 241.6015625 c 0
 770.162109375 236.76953125 769.87109375 232.424804688 769.844726562 228.044921875 c 0
 769.502929688 171.541992188 816.033203125 146 858.783203125 146 c 0
 973.149414062 146 1066.61425781 247 1131.01757812 247 c 0
 1135.44433594 247 1140.13183594 233.384765625 1139.05273438 222.600585938 c 0
 1119.73730469 86.427734375 862.61328125 -22 760.8359375 -22 c 0
 716.024414062 -22 675.467773438 -12.21484375 638.616210938 9.349609375 c 0
 617.016601562 21.4775390625 601.000976562 88 568.8984375 88 c 0
 545.955078125 88 540.200195312 69.607421875 519.580078125 55.109375 c 0
 445.884765625 3.4638671875 368.7109375 -29 285.939453125 -29 c 0
 274.826171875 -29 264.145507812 -28.2431640625 253.892578125 -26.78515625 c 0
485.791992188 678 m 0
 367.221679688 678 290.834960938 437.96875 278.073242188 344.692382812 c 0
 274.6171875 320.006835938 272.274414062 293.583007812 272.237304688 267.4609375 c 0
 272.115234375 181.260742188 297.852539062 95 395.758789062 95 c 0
 516.294921875 95 594.66796875 340.00390625 606.4453125 427.29296875 c 0
 609.073242188 445.885742188 610.607421875 466.185546875 610.62109375 486.94140625 c 0
 610.676757812 575.92578125 582.266601562 678 485.791992188 678 c 0
EndSplineSet
EndChar

StartChar: ae
Encoding: 230 230 80
Width: 827
Flags: HW
LayerCount: 2
Fore
SplineSet
770.969726562 587.2578125 m 0
 774.592773438 611.4140625 759.467773438 612 744.36328125 612 c 0
 701.092773438 612 662.012695312 557.051757812 655.9296875 511.67578125 c 0
 655.169921875 506 l 1
 660.80078125 506 l 0
 699.258789062 506 762.428710938 529.416992188 770.969726562 587.2578125 c 0
468.114257812 628 m 0
 383.4765625 628 285.529296875 500.352539062 273.508789062 410.69140625 c 0
 272.715820312 405.048828125 272.234375 399.009765625 272.189453125 392.875 c 0
 272.015625 368.451171875 279.09765625 338 307.869140625 338 c 0
 394.89453125 338 475.801757812 470.341796875 487.73046875 559.32421875 c 0
 489.814453125 574.87109375 491.317382812 587.383789062 491.405273438 597.41015625 c 0
 491.569335938 615.849609375 485.55078125 628 468.114257812 628 c 0
431.739257812 301.231445312 m 0
 431.739257812 306.272460938 l 1
 410.926757812 306.272460938 l 1
 409.46875 304.672851562 l 0
 339.767578125 228.15625 257.1640625 157.057617188 167.024414062 157.057617188 c 0
 161.22265625 157.057617188 155.6640625 157.444335938 150.348632812 158.19140625 c 0
 85.0380859375 167.370117188 53.1220703125 231.991210938 64.9775390625 315.662109375 c 0
 93.5078125 522.969726562 425.5859375 764 581.169921875 764 c 0
 618.551757812 764 610.9453125 694 653.918945312 694 c 0
 700.802734375 694 747.4921875 749 795.024414062 749 c 0
 799.978515625 749 804.725585938 748.682617188 809.264648438 748.069335938 c 0
 864.475585938 740.609375 892.051757812 688.541015625 882.076171875 618.711914062 c 0
 861.592773438 474.142578125 728.57421875 425.021484375 622.989257812 414.92578125 c 0
 621.22265625 414.756835938 l 1
 619.967773438 413.459960938 l 0
 611.629882812 404.849609375 608.795898438 391.62109375 606.786132812 379.16015625 c 1
 604.2109375 359.6640625 602.979492188 344.602539062 602.948242188 332.450195312 c 0
 602.829101562 286.4375 623.073242188 285 649.002929688 285 c 0
 705.640625 285 745.10546875 356.228515625 775.7578125 357.000976562 c 1
 776.779296875 353.790039062 776.079101562 344.401367188 774.075195312 329.70703125 c 0
 757.713867188 214.4140625 621.95703125 150 538.896484375 150 c 0
 442.110351562 150 431.739257812 193.581054688 431.739257812 301.231445312 c 0
EndSplineSet
EndChar

StartChar: oe
Encoding: 339 339 81
Width: 865
Flags: HW
LayerCount: 2
Fore
SplineSet
618.048828125 381.016601562 m 1
 618.110351562 380.448242188 l 2
 619.4765625 367.950195312 628.99609375 367 634.806640625 367 c 0
 680.436523438 367 769.543945312 551.254882812 776.447265625 604.379882812 c 0
 777.44140625 612.467773438 779.946289062 622.970703125 779.950195312 631.84375 c 0
 779.954101562 639.314453125 777.23046875 649 766.645507812 649 c 0
 701.669921875 649 629.904296875 474.466796875 622.055664062 415.627929688 c 1
 618.048828125 381.016601562 l 1
226.89453125 134.887695312 m 0
 123.381835938 149.462890625 59.8056640625 247.2578125 77.9677734375 377.241210938 c 0
 104.627929688 568.342773438 314.24609375 763 471.483398438 763 c 0
 475.638671875 763 480.612304688 762.71484375 485.7109375 761.936523438 c 0
 504.233398438 759.106445312 520.952148438 751.016601562 517.776367188 729.71484375 c 1
 511.694335938 714.608398438 375.626953125 634.73046875 342.647460938 592.069335938 c 1
 302.470703125 538.169921875 276.828125 457.387695312 267.872070312 393.72265625 c 0
 266.844726562 386.41796875 266.330078125 379.102539062 266.305664062 371.866210938 c 0
 266.118164062 315.186523438 296.591796875 261 349.482421875 261 c 0
 414.608398438 261 452.651367188 332.734375 462.58203125 402.400390625 c 0
 474.748046875 493.388671875 411.016601562 551.047851562 417.32421875 600.311523438 c 1
 423.426757812 642.848632812 509.599609375 663 540.354492188 663 c 0
 565.607421875 663 584.228515625 645 614.145507812 645 c 0
 650.11328125 645 729.668945312 740 814.016601562 740 c 0
 820.518554688 740 826.81640625 739.568359375 832.883789062 738.725585938 c 0
 894.861328125 730.112304688 934.61328125 678.534179688 923.067382812 597.70703125 c 0
 907.454101562 486.686523438 800.202148438 396.952148438 718.705078125 342.208007812 c 0
 718.491210938 342.063476562 l 1
 718.29296875 341.8984375 l 0
 700.690429688 327.185546875 654.306640625 316.952148438 651.58984375 300.125 c 1
 648.95703125 281.092773438 664.978515625 277 675.145507812 277 c 0
 729.134765625 277 769.541992188 340 814.016601562 340 c 0
 826.275390625 340 837.734375 325.055664062 836.061523438 311.666992188 c 1
 822.81640625 219.900390625 606.474609375 140 546.2578125 140 c 0
 501.490234375 140 471.388671875 169.174804688 447.092773438 207.698242188 c 0
 444.2890625 212.142578125 l 1
 440.075195312 209.056640625 l 0
 373.21875 160.090820312 329.383789062 133 254.046875 133 c 0
 244.704101562 133 235.646484375 133.641601562 226.89453125 134.887695312 c 0
EndSplineSet
EndChar

StartChar: onehalf
Encoding: 189 189 82
Width: 831
Flags: HW
LayerCount: 2
Fore
SplineSet
90.9515774791 424.305794159 m 0
 105.572155087 527.624542591 212.308954978 617.473405573 226.441472835 722.349939524 c 1
 231.249026217 761.524194815 186.695347673 743.10450535 190.954189417 776.323470952 c 1
 200.23451519 840.563185015 334.707640025 901 383.567548259 901 c 0
 402.855928732 901 410.701587738 894.13277954 407.183868285 871.738975951 c 1
 397.582026857 801.322599522 347.926499133 727.682725975 320.132315917 658.929759019 c 0
 278.865446641 558.461150299 249.900467095 383 130 383 c 0
 125.758961322 383 121.793443764 383.230414284 118.158898735 383.717226896 c 0
 97.8727806922 386.43435876 87.0077974397 395.910577875 90.9515774791 424.305794159 c 0
78.9582988938 33.3551024092 m 0
 88.490117243 103.890558193 298.009682332 363.810700585 348.204696257 429.974583662 c 0
 366.873938839 454.995300823 452.223301052 568.905223779 469.018527664 592.049917053 c 0
 525.763260921 671.141806908 680.047215016 908 766 908 c 0
 804.768998018 908 824.847933784 871.190982712 819.046894354 827.683186986 c 0
 807.38964245 743.168110685 204.377600408 -11 111 -11 c 0
 91.0367385695 -11 76.2117178121 11.3824537552 78.9582988938 33.3551024092 c 0
502.317143371 -36.6798950673 m 0
 513.422221338 43.4410269988 690.391269804 141.208697765 710.450328271 287.292893219 c 0
 712.408911131 301.258297735 l 0
 713.323599236 307.469396271 714.067217528 314.386664979 714.080794192 321.153875348 c 0
 714.110146741 335.784485897 710.199029237 354 691.845880663 354 c 0
 658.485587852 354 655.098875053 277.232289389 651.642314224 251.707106781 c 0
 648.952866356 232.531557317 646.250680983 211.819141311 645.780609472 203.553609141 c 1
 638.572220376 198.267484801 635.823749708 198 629.012080427 198 c 0
 584.489996259 198 571.041494903 257.320649442 576.927417235 301.285196187 c 0
 589.257419181 388.231064551 675.19523269 444 749 444 c 0
 756.178207343 444 763.193825746 443.540870295 769.977522022 442.626993667 c 0
 825.384911986 435.162697412 865.451850329 398.08236349 856.050252532 329.707106781 c 0
 838.473648581 206.67087913 695.485830572 130.307892513 684.04099247 48.7071067812 c 0
 683.24054781 43 l 1
 688.900546277 43 l 0
 730.49963005 43 771.528758513 50.3145567501 812.085235591 50.9544197385 c 1
 798.354287598 -18.8680390494 736.250040003 -61.9052338342 679.016574627 -88.0037892338 c 1
 667.389303618 -88.1092954608 632.641681451 -89 624.103189784 -89 c 0
 612.28431508 -89 589.722769447 -89.2851577319 567.065901444 -86.2300485084 c 0
 530.010304716 -81.2333783893 498.17974431 -68.2863161647 502.317143371 -36.6798950673 c 0
EndSplineSet
EndChar

StartChar: onequarter
Encoding: 188 188 83
Width: 833
Flags: HW
LayerCount: 2
Fore
SplineSet
91.9477996466 430.279083617 m 0
 105.557929998 526.522148248 212.422022971 618.438363191 225.562828497 717.347727437 c 0
 231.32259871 761.965336238 186.656037466 741.705405497 191.954660441 782.328181635 c 0
 199.270986873 836.286089072 346.499520016 906 393.372533672 906 c 0
 409.050159834 906 416.751598231 893.161265332 414.028557218 873.732743305 c 0
 406.431278994 821.46312297 356.656459857 731.381614492 338.828263566 687.971503218 c 1
 298.40008187 594.225415731 263.470640391 382 141 382 c 0
 136.002895671 382 131.222717203 382.316174516 126.757022257 382.974754161 c 0
 102.437807426 386.561237352 87.2864489918 399.203412585 91.9477996466 430.279083617 c 0
86 37 m 2
 86 38.3563650126 88.8059781812 54.1403951859 89.6967971668 58.1510088007 c 1
 186.554410778 229.8007234 669.068317489 914 779 914 c 0
 816.431407267 914 825.06873731 869.836087681 820.046894354 834.683186986 c 0
 804.579515516 722.54469041 380.797852644 229.244110846 282.918192108 125.488083416 c 0
 245.764020658 86.5945862686 176.179411676 -5 115 -5 c 0
 90.6349720518 -5 82.1749896452 9.86958845725 85.9497474683 36.2928932188 c 0
 86 36.6446609407 l 1
 86 37 l 2
569.925818837 -56.6712743635 m 0
 576.571531151 -5.38432015471 607.002016067 33.783927122 615.056233874 94.3281816351 c 0
 615.810757335 100 l 1
 515.910253952 100 l 1
 511.88519294 103.209416319 504.845453193 111.797695807 502.543809057 115.081361067 c 1
 503.471739485 121.666986751 504.497685685 137.44883279 505.071257516 139.787321875 c 0
 505.133540758 140.041254643 l 1
 505.169470836 140.300427891 l 0
 517.819948128 231.551700085 633.763255657 443 739 443 c 0
 755.820026963 443 764.535905742 438.935230323 762.050252532 420.707106781 c 0
 751.611202035 347.633753307 640.258960038 293.748415035 628.888015625 214.725570937 c 0
 628.064138054 209 l 1
 680.834292736 209 l 0
 692.663239089 209 742.397449003 303 823 303 c 0
 831.202823535 303 835.006419671 301.697198964 844.13816131 297.321133398 c 1
 842.161357867 287.869907468 840.715827425 275.037908141 839.044839411 261.67000403 c 1
 830.95846971 206.076212332 841.677051015 219.727696862 838.042843687 190.654038234 c 1
 833.479345496 157.796851264 797.65849293 145.270170424 776.984015483 116.978780233 c 1
 707.21118534 23.8622706454 745.094504572 -91 610.195225663 -91 c 0
 603.176194928 -91 596.841454456 -90.7753488661 591.450245861 -90.0291982942 c 0
 574.628998436 -87.7011148662 566.488777008 -81.8947457112 569.925818837 -56.6712743635 c 0
EndSplineSet
EndChar

StartChar: threequarters
Encoding: 190 190 84
Width: 959
Flags: HW
LayerCount: 2
Fore
SplineSet
695.376542245 -54.6990453246 m 0
 700.963138314 -14.0358508798 735.281956302 20.9072205614 741.605821176 66.0194193243 c 0
 742.125818132 68.6600509649 742.998409412 74.7463100189 743.062304143 81.0734389027 c 0
 743.116363288 86.4266060277 743.379730318 100 732.839958888 100 c 2
 634.996098755 100 l 1
 629.766384249 104.974766481 622.034779516 128.882554414 622.515721618 132.301780785 c 0
 633.049093725 208.160649297 746.420764023 393.173459614 796.616410831 426.839748528 c 0
 819.100741698 442.063641601 838.259641289 443 863 443 c 0
 870.197128196 443 877.009289516 443.105518194 881.929206218 442.29359711 c 0
 889.061716752 441.11653741 891.389099524 439.748409797 890.05916676 431.768813213 c 0
 878.608629008 352.569260423 765.91640564 302.70862174 754.54609377 217.672836362 c 2
 753.787567011 212 l 1
 759.424351833 212 l 2
 851.863559576 212 849.242727511 303 946 303 c 0
 951.687795856 303 963.448295983 302.846680807 967.292014611 302.476362573 c 1
 970.533317145 298.69484295 l 1
 968.465824519 289.758713717 968.047246746 286.697293126 967.055359462 280.745969421 c 0
 961.899568866 242.593119016 967.920012446 229.794411667 963.045037848 195.66958948 c 0
 958.442864759 161.61350862 920.945101315 143.840798258 901.596124881 108.367674795 c 0
 850.382634517 13.1062011232 841.983375339 -91 727.916923158 -91 c 0
 705.440082734 -91 691.914865475 -79.3096095342 695.376542245 -54.6990453246 c 0
205.957133642 40.3465367058 m 0
 212.453701811 88.7893782026 384.285052961 313.994615503 428.596350746 374 c 0
 464.014525011 421.962512298 634.346588215 648.956305872 672.747446865 698.957842282 c 0
 718.674666313 759.799436904 827.862357815 914 901 914 c 0
 938.490546814 914 950.033763435 867.582391015 945.049182 829.699572109 c 0
 932.394809855 740.145553848 328.610014551 -7 243.490207281 -7 c 0
 218.037777783 -7 202.276034943 11.8180217874 205.957133642 40.3465367058 c 0
91.951620186 457.306114786 m 0
 102.619354579 532.950049572 180.028115143 605 248.413243012 605 c 0
 252.561519567 605 256.498283776 605.076786848 259.607081379 604.72280816 c 0
 265.765097864 604.021634629 268.167064805 603.32557351 267.157489979 594.610030407 c 0
 262.634875112 558.782140974 220.251020645 526.372239163 213.98728072 477.599481135 c 0
 213.627630306 474.312024057 212.867943616 468.260321311 212.842973983 461.592948 c 0
 212.8037609 451.1222989 214.644202598 433 230.690314382 433 c 0
 285.848223387 433 337.864401356 532.620426527 344.855264327 580.292893219 c 0
 352.478823172 634.492085381 294.552333624 626.392740904 298.58419878 658.332939939 c 0
 304.962867763 706.458121997 373.862446647 738.517555564 382.281211698 798.37021415 c 0
 383.738922795 811.694716129 372.479453233 816 364.59688625 816 c 0
 316.5552172 816 307.865536225 707 275.982243102 707 c 0
 243.427986982 707 234.541300469 753.978235026 238.525274312 786.348293346 c 0
 249.756766669 869.04962241 353.528766939 906 417.765672139 906 c 0
 423.436131066 906 429.156787218 905.600588767 434.830775965 904.80187793 c 0
 481.468198988 898.236863999 523.572895806 865.584389342 515.294931343 806.732743305 c 0
 507.715672139 754.772933926 478.935092941 734.121714175 437.207767315 697.796283012 c 2
 434.148582135 695.133130773 l 1
 436.114104546 691.560893212 l 2
 456.962785143 653.669470803 500.087700901 647.428919552 493.630730705 598.712977866 c 0
 477.32810669 483.784510534 309.623075221 350 210 350 c 0
 202.642647384 350 195.131723102 350.493764117 187.645479331 351.500421397 c 0
 133.520255788 358.778510652 82.8268131851 391.773409961 91.951620186 457.306114786 c 0
EndSplineSet
EndChar

StartChar: multiply
Encoding: 215 215 85
Width: 694
Flags: HW
LayerCount: 2
Fore
SplineSet
392.45411252 279.677734375 m 2
 286.302529766 237.522460938 189.489249074 111 76.001953125 111 c 0
 58.9716796875 111 44.4208984375 122.467773438 46.9599609375 145.669921875 c 1
 60.291015625 243.095703125 304.042912927 304.104492188 312.855248156 367.29296875 c 0
 312.904019626 367.64453125 l 1
 312.904019626 368 l 0
 312.904019626 368.551757812 313.506490727 374.876953125 312.704152229 376.993164062 c 1
 180.563113749 548.186523438 l 1
 180.488522089 548.274414062 l 0
 170.000743417 560.764648438 173.710244052 589.041992188 176.74363823 612 c 0
 185.391489285 679.572265625 212.046532132 716 269.816816579 716 c 0
 353.527785282 716 403.666769119 584.6328125 444.902568909 519.295898438 c 1
 449.440228232 511.880859375 452.334958426 508 460.771466445 508 c 0
 462.603743634 508 486.53714719 505.141601562 494.021177087 512.779296875 c 1
 647.44140625 662.03125 l 0
 665.5625 679.974609375 693.668945312 693 716.001953125 693 c 0
 718.6953125 693 721.3203125 692.818359375 723.853515625 692.459960938 c 0
 746.30859375 689.267578125 762.1796875 672.76953125 758.05078125 640.389648438 c 0
 742.55859375 529.724609375 535.074322941 429.994140625 527.404770197 371.666992188 c 0
 527.360780244 371.334960938 l 1
 527.360780244 358.704101562 l 1
 527.977595895 357.572265625 l 0
 537.885854745 338.9765625 586.950909937 257.109375 596.473778543 239.23828125 c 1
 613.28367856 205.390625 646.560546875 148.137695312 643.057617188 123.963867188 c 1
 640.525390625 105.719726562 620.844212724 89 607.659658649 89 c 0
 548.352594743 89 439.760525879 233.3125 397.68509176 278.494140625 c 0
 395.44829826 280.83203125 l 1
 392.45411252 279.677734375 l 2
EndSplineSet
EndChar

StartChar: f_f
Encoding: 64256 64256 86
Width: 632
Flags: HW
LayerCount: 2
Fore
SplineSet
390.920372029 809 m 1
 390.715803938 808.021484375 386.054710424 803.6484375 386.054710424 803.6484375 c 1
 382.061808946 785.31640625 317.977508686 600.557617188 305.813354674 509.75 c 1
 305.291419264 506.548828125 301.038506007 489 315.54754566 489 c 0
 374.279618155 489 l 0
 404.808060004 489 547.612838292 1001 697.061523438 1001 c 0
 740.657226562 1001 739.377929688 950.493164062 732.119140625 901.760742188 c 0
 727.733398438 873.25390625 693.873046875 715 658.061523438 715 c 0
 639.271484375 715 647.721679688 770.961914062 651.048828125 818.65234375 c 0
 652.946289062 845.849609375 l 1
 641.521484375 821.095703125 l 0
 599.665858207 729.645507812 566.260080124 617.23046875 552.49092693 519.768554688 c 1
 551.401171679 512.966796875 550.475835641 495.188476562 550.475835641 493.528320312 c 0
 550.475835641 492.068359375 l 1
 557.770504345 479.926757812 l 1
 560.871527183 480.330078125 l 0
 568.800930526 481.361328125 588.099157731 484.364257812 608.229040261 484.364257812 c 0
 614.971183934 484.364257812 621.891601562 484 628.376953125 483.065429688 c 0
 650.73828125 479.840820312 665.365234375 470.958007812 662.111328125 448.42578125 c 0
 641.208007812 299.424804688 505.29687714 314.95703125 496.937307251 290.607421875 c 1
 475.880176833 232.559570312 450.290046939 -37 356.659996407 -37 c 0
 353.909798286 -37 351.029594275 -36.8779296875 348.07769584 -36.62109375 c 0
 317.874268715 -33.9921875 285.710238063 -18.6416015625 289.062669349 19.25 c 0
 291.053862497 31.455078125 296.933761226 85.46484375 298.844656619 96.19921875 c 1
 308.623776112 166.134765625 324.259852117 234.946289062 334.09632715 305.29296875 c 0
 334.894525075 311 l 1
 269.540755539 311 l 0
 227.977107882 311 221.936613642 -30 105.061523438 -30 c 0
 99.1865234375 -30 93.7724609375 -29.6416015625 88.794921875 -28.9560546875 c 0
 31.8017578125 -21.0283203125 26.7939453125 31.498046875 37.013671875 105.608398438 c 0
 60.2265625 273.760742188 267.427203907 1007 463.356594773 1007 c 0
 496.095136746 1007 490.265902077 943.6796875 485.918352179 913.697265625 c 1
 481.719926684 881.533203125 439.690743231 715 407.561125903 715 c 0
 395.095855308 715 398.395710683 761.203125 401.672623843 803.606445312 c 0
 402.08940743 809 l 1
 390.920372029 809 l 1
EndSplineSet
EndChar

StartChar: f_f_i
Encoding: 64259 64259 87
Width: 784
Flags: HW
LayerCount: 2
Fore
SplineSet
87.7666015625 -33.0390625 m 0
 29.02734375 -25.0341796875 28.6328125 32.6552734375 38.994140625 109.6953125 c 0
 57.232421875 238.614257812 266.22550937 997 444.289071645 997 c 0
 482.854248819 997 478.126923117 947.041015625 471.894924235 903.760742188 c 0
 467.596132529 875.356445312 433.317256159 719 398.04583356 719 c 0
 389.734580039 719 393.824869778 767.791992188 396.069388648 807.71484375 c 2
 396.239457072 810.732421875 l 1
 393.689391541 812.287109375 l 2
 359.805419818 832.951171875 310.596073107 567.984375 302.653781592 509.685546875 c 2
 301.879345715 504 l 1
 307.527154755 504 l 2
 315.839369114 504 350.45357814 501 365.577177032 501 c 2
 369.775080689 501 l 1
 370.036428776 501.028320312 l 2
 407.578312887 505.116210938 534.538715654 1012 796.041992188 1012 c 0
 802.461914062 1012 808.595703125 1011.57324219 814.416992188 1010.73339844 c 0
 863.969726562 1003.58496094 892.666992188 966.86328125 883.086914062 900.666992188 c 0
 876.165039062 849.25390625 843.729492188 789 792.041992188 789 c 0
 788.774414062 789 785.747070312 789.203125 782.947265625 789.586914062 c 0
 748.194620607 794.387695312 743.71711293 829.004882812 749.263073083 869.405273438 c 0
 750.205655707 878.98046875 753.063189577 888.643554688 755.104971511 899.01953125 c 2
 755.254862326 899.780273438 l 1
 755.170308533 900.551757812 l 2
 753.804956943 913.049804688 744.285929356 914 738.474777762 914 c 0
 736.21776799 914 731.48275558 913 731.48275558 913 c 1
 729.918510409 913 l 1
 728.594474877 911.96875 l 2
 621.559942111 828.599609375 578.904475198 653.494140625 538.213923136 531.189453125 c 0
 537.64510671 530.2734375 535.967482589 528.908203125 535.815670097 525.497070312 c 0
 534.60117016 513.149414062 543.081531267 501 555.469622786 501 c 0
 714.568153618 501 685.601753631 741 795.041992188 741 c 0
 842.759765625 741 835.458984375 662.393554688 829.094726562 615.723632812 c 0
 816.775390625 530.223632812 739.432733803 186.381835938 649.923896322 186.381835938 c 0
 584.936619661 186.381835938 587.642341038 293.235351562 594.790019066 354.372070312 c 2
 595.454919348 360.05859375 l 1
 589.906076679 360.05859375 l 2
 588.823211625 360.05859375 582.919819529 361.07421875 580.067089853 361.07421875 c 0
 407.509132511 361.07421875 495.339385032 -33 328.189027091 -33 c 0
 324.793423629 -33 321.614008843 -32.796875 318.63925267 -32.4111328125 c 0
 274.331143439 -26.6572265625 269.50196885 22.166015625 276.980175342 76.3212890625 c 0
 286.699057348 148.42578125 317.176856386 218.274414062 327.167655704 291.379882812 c 0
 327.575051253 295.112304688 328.06315724 299.162109375 327.47704572 303.354492188 c 0
 326.480656136 310.470703125 320.827082065 316.5234375 310.783436625 314.952148438 c 0
 302.83538008 313.942382812 265.871920781 309.069335938 257.076404627 306.834960938 c 0
 210.834127381 293.779296875 217.783872666 -34 103.041992188 -34 c 0
 97.5263671875 -34 92.443359375 -33.669921875 87.7666015625 -33.0390625 c 0
EndSplineSet
EndChar

